{
.appVersion = "3324";
.formatVersion = 3;
DisplayStrings = (
"̨"
);
axes = (
{
name = Weight;
tag = wght;
}
);
classes = (
{
automatic = 1;
code = "A Aacute Abreve Acircumflex Adieresis Agrave Amacron Aogonek Aring Atilde AE B C Cacute Ccaron Ccedilla Cdotaccent D Dcaron Dcroat Eth E Eacute Ecaron Ecircumflex Edieresis Edotaccent Egrave Emacron Eogonek F G Gbreve Gcommaaccent Gdotaccent H Hbar I IJ Iacute Icircumflex Idieresis Idotaccent Igrave Imacron Iogonek J Jacute K Kcommaaccent L Lacute Lcaron Lcommaaccent Lslash M N Nacute Ncaron Ncommaaccent Ntilde O Oacute Ocircumflex Odieresis Ograve Ohungarumlaut Oslash Otilde OE P Thorn Q R Racute Rcaron S Sacute Scaron Scedilla Scommaaccent Germandbls T Tcaron Tcedilla Tcommaaccent U Uacute Ucircumflex Udieresis Ugrave Uhungarumlaut Umacron Uogonek Uring V W Wacute Wcircumflex Wdieresis Wgrave X Y Yacute Ycircumflex Ydieresis Ygrave Z Zacute Zcaron Zdotaccent Delta Omega";
name = Uppercase;
}
);
customParameters = (
{
name = "Variable Font Origin";
value = "685EC287-0A44-43F1-AA0E-B98846C13147";
},
{
name = unicodeRanges;
value = (
0,
1,
2,
3,
5,
6,
29,
31,
33,
35,
45,
46
);
},
{
name = "Enforce Compatibility Check";
value = 1;
},
{
name = fsType;
value = (
);
},
{
name = "Axis Mappings";
value = {
wght = {
200 = 60;
300 = 75;
400 = 94;
500 = 115;
600 = 130;
700 = 146;
800 = 170;
};
};
},
{
name = "Use Typo Metrics";
value = 1;
}
);
date = "2024-04-25 14:25:41 +0000";
familyName = "Atkinson Hyperlegible Next";
featurePrefixes = (
{
automatic = 1;
code = "languagesystem DFLT dflt;

languagesystem latn dflt;
languagesystem latn AZE;
languagesystem latn CRT;
languagesystem latn KAZ;
languagesystem latn TAT;
languagesystem latn TRK;
languagesystem latn ROM;
languagesystem latn MOL;
languagesystem latn CAT;
languagesystem latn NLD;
";
name = Languagesystems;
}
);
features = (
{
automatic = 1;
code = "feature locl;
feature sups;
feature frac;
feature ordn;
feature pnum;
feature tnum;
feature case;
";
tag = aalt;
},
{

glyphs = (
{
glyphname = A;
kernLeft = A;
kernRight = A;
lastChange = "2024-11-01 12:02:53 +0000";
layers = (
{
anchors = (
{
name = bottom;
pos = (239,0);
},
{
name = ogonek;
pos = (522,10);
},
{
name = top;
pos = (381,668);
}
);
layerId = m003;
shapes = (
{
closed = 1;
nodes = (
(16,0,l),
(114,168,l),
(440,168,l),
(466,0,l),
(520,0,l),
(411,668,l),
(352,668,l),
(-43,0,l)
);
},
{
closed = 1;
nodes = (
(372,613,l),
(433,216,l),
(141,216,l)
);
}
);
width = 583;
},
{
anchors = (
{
name = bottom;
pos = (298,0);
},
{
name = ogonek;
pos = (648,10);
},
{
name = top;
pos = (440,668);
}
);
layerId = m004;
shapes = (
{
closed = 1;
nodes = (
(141,0,l),
(203,114,l),
(449,114,l),
(463,0,l),
(645,0,l),
(533,668,l),
(346,668,l),
(-49,0,l)
);
},
{
closed = 1;
nodes = (
(405,487,l),
(433,251,l),
(277,251,l)
);
}
);
width = 702;
},
{
anchors = (
{
name = bottom;
pos = (261,0);
},
{
name = ogonek;
pos = (565,10);
},
{
name = top;
pos = (403,668);
}
);
layerId = "685EC287-0A44-43F1-AA0E-B98846C13147";
shapes = (
{
closed = 1;
nodes = (
(60,0,l),
(143,146,l),
(445,146,l),
(466,0,l),
(563,0,l),
(454,668,l),
(352,668,l),
(-43,0,l)
);
},
{
closed = 1;
nodes = (
(385,571,l),
(434,227,l),
(189,227,l)
);
}
);
width = 626;
},
{
anchors = (
{
name = bottom;
pos = (292,0);
},
{
name = ogonek;
pos = (634,10);
},
{
name = top;
pos = (434,668);
}
);
layerId = "FD063E2A-CA5A-4098-9599-3D7AAD1E2DEB";
shapes = (
{
closed = 1;
nodes = (
(127,0,l),
(192,119,l),
(449,119,l),
(464,0,l),
(632,0,l),
(520,668,l),
(347,668,l),
(-48,0,l)
);
},
{
closed = 1;
nodes = (
(401,501,l),
(433,247,l),
(262,247,l)
);
}
);
width = 690;
}
);
metricRight = "=|";
unicode = 65;
},
{
glyphname = Aogonek;
kernLeft = A;
kernRight = A;
lastChange = "2024-11-01 12:02:53 +0000";
layers = (
{
anchors = (
{
name = bottom;
pos = (239,0);
},
{
name = top;
pos = (381,668);
}
);
layerId = m003;
shapes = (
{
closed = 1;
nodes = (
(462,-168,o),
(472,-167,o),
(485,-163,c),
(493,-123,l),
(486,-125,o),
(473,-127,o),
(468,-127,cs),
(438,-127,o),
(417,-119,o),
(417,-92,cs),
(417,-46,o),
(476,-13,o),
(520,0,c),
(411,668,l),
(352,668,l),
(-43,0,l),
(16,0,l),
(114,168,l),
(440,168,l),
(465,7,l),
(465,7,l),
(417,-16,o),
(369,-49,o),
(369,-103,cs),
(369,-147,o),
(409,-168,o),
(453,-168,cs)
);
},
{
closed = 1;
nodes = (
(372,613,l),
(433,216,l),
(141,216,l)
);
}
);
width = 583;
},
{
anchors = (
{
name = bottom;
pos = (298,0);
},
{
name = top;
pos = (440,668);
}
);
layerId = m004;
shapes = (
{
closed = 1;
nodes = (
(581,-176,o),
(597,-175,o),
(609,-172,c),
(626,-91,l),
(619,-92,o),
(598,-95,o),
(580,-95,cs),
(556,-95,o),
(535,-87,o),
(535,-67,cs),
(535,-32,o),
(609,-2,o),
(645,0,c),
(533,668,l),
(346,668,l),
(-49,0,l),
(141,0,l),
(203,114,l),
(449,114,l),
(463,0,l),
(463,0,l),
(435,-17,o),
(393,-48,o),
(393,-90,cs),
(393,-152,o),
(488,-176,o),
(567,-176,cs)
);
},
{
closed = 1;
nodes = (
(405,487,l),
(433,251,l),
(277,251,l)
);
}
);
width = 702;
},
{
anchors = (
{
name = bottom;
pos = (261,0);
},
{
name = top;
pos = (403,668);
}
);
layerId = "685EC287-0A44-43F1-AA0E-B98846C13147";
shapes = (
{
closed = 1;
nodes = (
(494,-173,o),
(510,-171,o),
(528,-167,c),
(540,-110,l),
(530,-113,o),
(519,-115,o),
(506,-115,cs),
(482,-115,o),
(459,-106,o),
(459,-80,cs),
(459,-42,o),
(501,-19,o),
(563,0,c),
(454,668,l),
(352,668,l),
(-43,0,l),
(60,0,l),
(143,146,l),
(445,146,l),
(465,5,l),
(465,5,l),
(420,-16,o),
(387,-55,o),
(387,-99,cs),
(387,-148,o),
(426,-173,o),
(478,-173,cs)
);
},
{
closed = 1;
nodes = (
(385,571,l),
(434,227,l),
(189,227,l)
);
}
);
width = 626;
},
{
anchors = (
{
name = bottom;
pos = (292,0);
},
{
name = top;
pos = (434,668);
}
);
layerId = "FD063E2A-CA5A-4098-9599-3D7AAD1E2DEB";
shapes = (
{
closed = 1;
nodes = (
(572,-174,o),
(589,-173,o),
(597,-172,c),
(613,-94,l),
(602,-96,o),
(583,-98,o),
(569,-98,cs),
(545,-98,o),
(524,-90,o),
(524,-70,cs),
(524,-34,o),
(596,-3,o),
(632,0,c),
(520,668,l),
(347,668,l),
(-48,0,l),
(127,0,l),
(192,119,l),
(449,119,l),
(464,0,l),
(464,0,l),
(441,-12,o),
(392,-49,o),
(392,-88,cs),
(392,-152,o),
(479,-174,o),
(556,-174,cs)
);
},
{
closed = 1;
nodes = (
(401,501,l),
(433,247,l),
(262,247,l)
);
}
);
width = 690;
}
);
metricLeft = A;
metricWidth = A;
unicode = 260;
},
{
glyphname = Aring;
kernLeft = A;
kernRight = A;
lastChange = "2024-11-01 12:02:53 +0000";
layers = (
{
anchors = (
{
name = bottom;
pos = (239,0);
},
{
name = ogonek;
pos = (522,10);
},
{
name = top;
pos = (416,835);
}
);
layerId = m003;
shapes = (
{
closed = 1;
nodes = (
(16,0,l),
(114,168,l),
(440,168,l),
(466,0,l),
(520,0,l),
(414,647,l),
(458,656,o),
(491,694,o),
(491,740,cs),
(491,792,o),
(448,835,o),
(396,835,cs),
(344,835,o),
(301,792,o),
(301,740,cs),
(301,706,o),
(319,676,o),
(347,659,c),
(-43,0,l)
);
},
{
closed = 1;
nodes = (
(372,613,l),
(433,216,l),
(141,216,l)
);
},
{
closed = 1;
nodes = (
(366,685,o),
(341,710,o),
(341,740,cs),
(341,770,o),
(366,795,o),
(396,795,cs),
(426,795,o),
(451,770,o),
(451,740,cs),
(451,710,o),
(426,685,o),
(396,685,cs)
);
}
);
width = 583;
},
{
anchors = (
{
name = bottom;
pos = (298,0);
},
{
name = ogonek;
pos = (648,10);
},
{
name = top;
pos = (482,865);
}
);
layerId = m004;
shapes = (
{
closed = 1;
nodes = (
(141,0,l),
(203,114,l),
(449,114,l),
(463,0,l),
(645,0,l),
(541,622,l),
(571,647,o),
(590,685,o),
(590,728,cs),
(590,805,o),
(529,865,o),
(453,865,cs),
(377,865,o),
(316,805,o),
(316,728,cs),
(316,700,o),
(324,675,o),
(337,654,c),
(-49,0,l)
);
},
{
closed = 1;
nodes = (
(405,487,l),
(433,251,l),
(277,251,l)
);
},
{
closed = 1;
nodes = (
(428,682,o),
(407,702,o),
(407,728,cs),
(407,754,o),
(428,774,o),
(453,774,cs),
(478,774,o),
(499,754,o),
(499,728,cs),
(499,702,o),
(478,682,o),
(453,682,cs)
);
}
);
width = 702;
},
{
anchors = (
{
name = bottom;
pos = (261,0);
},
{
name = ogonek;
pos = (565,10);
},
{
name = top;
pos = (439,838);
}
);
layerId = "685EC287-0A44-43F1-AA0E-B98846C13147";
shapes = (
{
closed = 1;
nodes = (
(60,0,l),
(143,146,l),
(445,146,l),
(466,0,l),
(563,0,l),
(460,629,l),
(499,646,o),
(525,685,o),
(525,729,cs),
(525,788,o),
(478,838,o),
(416,838,cs),
(354,838,o),
(307,788,o),
(307,729,cs),
(307,698,o),
(320,670,o),
(341,650,c),
(-43,0,l)
);
},
{
closed = 1;
nodes = (
(385,571,l),
(434,227,l),
(189,227,l)
);
},
{
closed = 1;
nodes = (
(386,678,o),
(364,700,o),
(364,729,cs),
(364,758,o),
(386,780,o),
(416,780,cs),
(446,780,o),
(468,758,o),
(468,729,cs),
(468,700,o),
(446,678,o),
(416,678,cs)
);
}
);
width = 626;
},
{
anchors = (
{
name = bottom;
pos = (292,0);
},
{
name = ogonek;
pos = (634,10);
},
{
name = top;
pos = (434,861);
}
);
layerId = "FD063E2A-CA5A-4098-9599-3D7AAD1E2DEB";
shapes = (
{
closed = 1;
nodes = (
(127,0,l),
(192,119,l),
(449,119,l),
(464,0,l),
(632,0,l),
(526,634,l),
(551,658,o),
(566,692,o),
(566,729,cs),
(566,802,o),
(507,861,o),
(434,861,cs),
(361,861,o),
(302,802,o),
(302,729,cs),
(302,697,o),
(314,667,o),
(333,644,c),
(-48,0,l)
);
},
{
closed = 1;
nodes = (
(401,501,l),
(433,247,l),
(262,247,l)
);
},
{
closed = 1;
nodes = (
(408,682,o),
(387,703,o),
(387,729,cs),
(387,755,o),
(408,776,o),
(434,776,cs),
(460,776,o),
(481,755,o),
(481,729,cs),
(481,703,o),
(460,682,o),
(434,682,cs)
);
}
);
width = 690;
}
);
metricLeft = A;
metricRight = A;
unicode = 197;
},
{
glyphname = AE;
kernLeft = AE;
kernRight = E;
lastChange = "2024-11-01 12:02:53 +0000";
layers = (
{
anchors = (
{
name = bottom;
pos = (362,0);
},
{
name = top;
pos = (504,668);
}
);
layerId = m003;
shapes = (
{
closed = 1;
nodes = (
(9,0,l),
(137,168,l),
(388,168,l),
(352,0,l),
(772,0,l),
(782,48,l),
(418,48,l),
(476,320,l),
(770,320,l),
(780,368,l),
(486,368,l),
(540,620,l),
(900,620,l),
(910,668,l),
(461,668,l),
(-53,0,l)
);
},
{
closed = 1;
nodes = (
(484,623,l),
(398,216,l),
(174,216,l)
);
}
);
width = 865;
},
{
anchors = (
{
name = bottom;
pos = (481,0);
},
{
name = top;
pos = (623,668);
}
);
layerId = m004;
shapes = (
{
closed = 1;
nodes = (
(147,0,l),
(230,114,l),
(443,114,l),
(419,0,l),
(914,0,l),
(946,150,l),
(621,150,l),
(646,269,l),
(824,269,l),
(856,418,l),
(678,418,l),
(699,518,l),
(1024,518,l),
(1056,668,l),
(449,668,l),
(-53,0,l)
);
},
{
closed = 1;
nodes = (
(531,528,l),
(472,251,l),
(330,251,l)
);
}
);
width = 1001;
},
{
anchors = (
{
name = bottom;
pos = (402,0);
},
{
name = top;
pos = (544,668);
}
);
layerId = "685EC287-0A44-43F1-AA0E-B98846C13147";
shapes = (
{
closed = 1;
nodes = (
(55,0,l),
(165,146,l),
(408,146,l),
(377,0,l),
(800,0,l),
(817,81,l),
(488,81,l),
(535,303,l),
(771,303,l),
(788,384,l),
(553,384,l),
(596,587,l),
(925,587,l),
(942,668,l),
(457,668,l),
(-53,0,l)
);
},
{
closed = 1;
nodes = (
(503,594,l),
(425,227,l),
(226,227,l)
);
}
);
width = 891;
},
{
anchors = (
{
name = bottom;
pos = (468,0);
},
{
name = top;
pos = (610,668);
}
);
layerId = "FD063E2A-CA5A-4098-9599-3D7AAD1E2DEB";
shapes = (
{
closed = 1;
nodes = (
(132,0,l),
(219,119,l),
(437,119,l),
(412,0,l),
(896,0,l),
(926,139,l),
(600,139,l),
(628,274,l),
(815,274,l),
(845,413,l),
(658,413,l),
(682,529,l),
(1008,529,l),
(1038,668,l),
(450,668,l),
(-53,0,l)
);
},
{
closed = 1;
nodes = (
(527,540,l),
(465,247,l),
(313,247,l)
);
}
);
width = 983;
}
);
metricLeft = "=0";
metricRight = E;
unicode = 198;
},
{
glyphname = B;
kernLeft = B;
kernRight = B;
lastChange = "2024-11-01 12:02:53 +0000";
layers = (
{
anchors = (
{
name = bottom;
pos = (238,0);
},
{
name = center;
pos = (309,334);
},
{
name = top;
pos = (380,668);
}
);
layerId = m003;
shapes = (
{
closed = 1;
nodes = (
(316,0,ls),
(464,0,o),
(535,101,o),
(535,206,cs),
(535,258,o),
(512,309,o),
(453,340,c),
(534,370,o),
(571,445,o),
(571,518,cs),
(571,596,o),
(519,668,o),
(378,668,cs),
(171,668,l),
(29,0,l)
);
},
{
closed = 1;
nodes = (
(153,322,l),
(327,322,ls),
(427,322,o),
(478,272,o),
(478,205,cs),
(478,120,o),
(421,48,o),
(314,48,cs),
(95,48,l)
);
},
{
closed = 1;
nodes = (
(217,620,l),
(374,620,ls),
(477,620,o),
(514,569,o),
(514,510,cs),
(514,435,o),
(471,370,o),
(377,370,cs),
(163,370,l)
);
}
);
width = 585;
},
{
anchors = (
{
name = bottom;
pos = (290,0);
},
{
name = center;
pos = (361,334);
},
{
name = top;
pos = (432,668);
}
);
layerId = m004;
shapes = (
{
closed = 1;
nodes = (
(388,0,ls),
(524,0,o),
(627,76,o),
(627,209,cs),
(627,276,o),
(583,319,o),
(537,340,c),
(611,366,o),
(663,420,o),
(663,505,cs),
(663,613,o),
(557,668,o),
(412,668,cs),
(143,668,l),
(1,0,l)
);
},
{
closed = 1;
nodes = (
(230,277,l),
(366,277,ls),
(423,277,o),
(453,254,o),
(453,216,cs),
(453,168,o),
(420,141,o),
(360,141,cs),
(201,141,l)
);
},
{
closed = 1;
nodes = (
(284,530,l),
(406,530,ls),
(456,530,o),
(484,509,o),
(484,476,cs),
(484,433,o),
(452,408,o),
(400,408,cs),
(258,408,l)
);
}
);
width = 659;
},
{
anchors = (
{
name = bottom;
pos = (260,0);
},
{
name = center;
pos = (331,334);
},
{
name = top;
pos = (402,668);
}
);
layerId = "685EC287-0A44-43F1-AA0E-B98846C13147";
shapes = (
{
closed = 1;
nodes = (
(341,0,ls),
(485,0,o),
(567,93,o),
(567,207,cs),
(567,264,o),
(537,312,o),
(482,340,c),
(561,368,o),
(603,437,o),
(603,513,cs),
(603,602,o),
(533,668,o),
(390,668,cs),
(167,668,l),
(25,0,l)
);
},
{
closed = 1;
nodes = (
(184,308,l),
(342,308,ls),
(427,308,o),
(472,266,o),
(472,209,cs),
(472,136,o),
(423,79,o),
(331,79,cs),
(136,79,l)
);
},
{
closed = 1;
nodes = (
(244,589,l),
(390,589,ls),
(475,589,o),
(509,549,o),
(509,499,cs),
(509,434,o),
(470,382,o),
(390,382,cs),
(200,382,l)
);
}
);
width = 613;
},
{
anchors = (
{
name = bottom;
pos = (283,0);
},
{
name = center;
pos = (354,334);
},
{
name = top;
pos = (425,668);
}
);
layerId = "FD063E2A-CA5A-4098-9599-3D7AAD1E2DEB";
shapes = (
{
closed = 1;
nodes = (
(377,0,ls),
(515,0,o),
(614,79,o),
(614,209,cs),
(614,274,o),
(572,318,o),
(525,340,c),
(600,366,o),
(650,423,o),
(650,506,cs),
(650,611,o),
(550,668,o),
(405,668,cs),
(145,668,l),
(3,0,l)
);
},
{
closed = 1;
nodes = (
(221,282,l),
(359,282,ls),
(420,282,o),
(453,256,o),
(453,215,cs),
(453,163,o),
(417,131,o),
(352,131,cs),
(189,131,l)
);
},
{
closed = 1;
nodes = (
(276,539,l),
(400,539,ls),
(455,539,o),
(484,515,o),
(484,480,cs),
(484,433,o),
(451,404,o),
(394,404,cs),
(247,404,l)
);
}
);
width = 649;
}
);
metricLeft = H;
unicode = 66;
},
{
glyphname = C;
kernLeft = O;
kernRight = C;
lastChange = "2024-11-01 12:02:53 +0000";
layers = (
{
anchors = (
{
name = bottom;
pos = (317,0);
},
{
name = top;
pos = (425,668);
}
);
layerId = m003;
shapes = (
{
closed = 1;
nodes = (
(414,-12,o),
(504,23,o),
(569,132,c),
(520,152,l),
(466,71,o),
(403,36,o),
(321,36,cs),
(183,36,o),
(114,137,o),
(114,270,cs),
(114,422,o),
(203,632,o),
(401,632,cs),
(488,632,o),
(554,589,o),
(580,510,c),
(630,528,l),
(600,627,o),
(512,680,o),
(405,680,cs),
(177,680,o),
(57,453,o),
(57,267,cs),
(57,107,o),
(146,-12,o),
(317,-12,cs)
);
}
);
width = 632;
},
{
anchors = (
{
name = bottom;
pos = (351,0);
},
{
name = top;
pos = (445,668);
}
);
layerId = m004;
shapes = (
{
closed = 1;
nodes = (
(463,-12,o),
(574,33,o),
(648,135,c),
(499,196,l),
(467,145,o),
(417,128,o),
(366,128,cs),
(268,128,o),
(224,195,o),
(224,284,cs),
(224,384,o),
(282,540,o),
(418,540,cs),
(473,540,o),
(520,510,o),
(541,467,c),
(692,519,l),
(645,629,o),
(541,680,o),
(420,680,cs),
(189,680,o),
(42,492,o),
(42,274,cs),
(42,98,o),
(162,-12,o),
(351,-12,cs)
);
}
);
width = 665;
},
{
anchors = (
{
name = bottom;
pos = (335,0);
},
{
name = top;
pos = (439,668);
}
);
layerId = "685EC287-0A44-43F1-AA0E-B98846C13147";
shapes = (
{
closed = 1;
nodes = (
(438,-12,o),
(533,26,o),
(602,134,c),
(520,167,l),
(473,96,o),
(415,67,o),
(343,67,cs),
(216,67,o),
(155,157,o),
(155,275,cs),
(155,409,o),
(234,601,o),
(414,601,cs),
(489,601,o),
(551,563,o),
(575,497,c),
(657,525,l),
(621,628,o),
(529,680,o),
(417,680,cs),
(188,680,o),
(59,466,o),
(59,269,cs),
(59,104,o),
(158,-12,o),
(335,-12,cs)
);
}
);
width = 645;
},
{
anchors = (
{
name = bottom;
pos = (349,0);
},
{
name = top;
pos = (445,668);
}
);
layerId = "FD063E2A-CA5A-4098-9599-3D7AAD1E2DEB";
shapes = (
{
closed = 1;
nodes = (
(461,-12,o),
(568,32,o),
(639,137,c),
(500,192,l),
(467,137,o),
(417,118,o),
(363,118,cs),
(261,118,o),
(213,189,o),
(213,282,cs),
(213,389,o),
(275,550,o),
(418,550,cs),
(477,550,o),
(526,519,o),
(548,472,c),
(687,520,l),
(643,629,o),
(541,680,o),
(420,680,cs),
(190,680,o),
(46,488,o),
(46,273,cs),
(46,99,o),
(162,-12,o),
(349,-12,cs)
);
}
);
width = 663;
}
);
metricLeft = O;
unicode = 67;
},
{
glyphname = Ccedilla;
kernLeft = O;
kernRight = C;
lastChange = "2024-11-01 12:02:53 +0000";
layers = (
{
anchors = (
{
name = top;
pos = (425,668);
}
);
layerId = m003;
shapes = (
{
closed = 1;
nodes = (
(334,-177,o),
(374,-144,o),
(374,-97,cs),
(374,-68,o),
(350,-44,o),
(314,-44,cs),
(307,-44,o),
(300,-45,o),
(293,-47,c),
(323,-12,l),
(418,-10,o),
(505,25,o),
(569,132,c),
(520,152,l),
(466,71,o),
(403,36,o),
(321,36,cs),
(183,36,o),
(114,137,o),
(114,270,cs),
(114,422,o),
(203,632,o),
(401,632,cs),
(488,632,o),
(554,589,o),
(580,510,c),
(630,528,l),
(600,627,o),
(512,680,o),
(405,680,cs),
(177,680,o),
(57,453,o),
(57,267,cs),
(57,117,o),
(136,3,o),
(287,-11,c),
(253,-52,ls),
(242,-65,o),
(243,-79,o),
(261,-79,cs),
(268,-79,o),
(280,-77,o),
(288,-77,cs),
(312,-77,o),
(330,-85,o),
(330,-106,cs),
(330,-127,o),
(310,-145,o),
(280,-145,cs),
(264,-145,o),
(244,-141,o),
(217,-123,c),
(199,-147,l),
(226,-167,o),
(252,-177,o),
(282,-177,cs)
);
}
);
width = 632;
},
{
anchors = (
{
name = top;
pos = (445,668);
}
);
layerId = m004;
shapes = (
{
closed = 1;
nodes = (
(392,-188,o),
(449,-166,o),
(449,-108,cs),
(449,-67,o),
(404,-46,o),
(356,-46,cs),
(352,-46,o),
(346,-46,o),
(341,-47,c),
(370,-12,l),
(475,-7,o),
(578,39,o),
(648,135,c),
(499,196,l),
(467,145,o),
(417,128,o),
(366,128,cs),
(268,128,o),
(224,195,o),
(224,284,cs),
(224,384,o),
(282,540,o),
(418,540,cs),
(473,540,o),
(520,510,o),
(541,467,c),
(692,519,l),
(645,629,o),
(541,680,o),
(420,680,cs),
(189,680,o),
(42,492,o),
(42,274,cs),
(42,110,o),
(146,4,o),
(312,-10,c),
(277,-53,ls),
(263,-70,o),
(269,-92,o),
(295,-87,cs),
(301,-86,o),
(309,-85,o),
(320,-85,cs),
(337,-85,o),
(349,-95,o),
(349,-108,cs),
(349,-127,o),
(332,-136,o),
(313,-136,cs),
(286,-136,o),
(256,-125,o),
(245,-118,c),
(219,-168,l),
(246,-179,o),
(286,-188,o),
(328,-188,cs)
);
}
);
width = 665;
},
{
anchors = (
{
name = top;
pos = (439,668);
}
);
guides = (
{
pos = (360,-183);
}
);
layerId = "685EC287-0A44-43F1-AA0E-B98846C13147";
shapes = (
{
closed = 1;
nodes = (
(359,-183,o),
(405,-151,o),
(405,-100,cs),
(405,-60,o),
(376,-42,o),
(337,-42,cs),
(333,-42,o),
(326,-42,o),
(318,-43,c),
(345,-12,l),
(444,-10,o),
(536,30,o),
(602,134,c),
(520,167,l),
(473,96,o),
(415,67,o),
(343,67,cs),
(216,67,o),
(155,157,o),
(155,275,cs),
(155,409,o),
(234,601,o),
(414,601,cs),
(489,601,o),
(551,563,o),
(575,497,c),
(657,525,l),
(621,628,o),
(529,680,o),
(417,680,cs),
(188,680,o),
(59,466,o),
(59,269,cs),
(59,116,o),
(144,6,o),
(296,-10,c),
(262,-50,ls),
(251,-61,o),
(255,-83,o),
(279,-78,cs),
(285,-77,o),
(294,-76,o),
(300,-76,cs),
(324,-76,o),
(345,-86,o),
(345,-105,cs),
(345,-128,o),
(321,-142,o),
(295,-142,cs),
(270,-142,o),
(253,-133,o),
(233,-121,c),
(212,-154,l),
(239,-170,o),
(267,-183,o),
(306,-183,cs)
);
}
);
width = 645;
},
{
anchors = (
{
name = top;
pos = (445,668);
}
);
layerId = "FD063E2A-CA5A-4098-9599-3D7AAD1E2DEB";
shapes = (
{
closed = 1;
nodes = (
(388,-187,o),
(443,-164,o),
(443,-107,cs),
(443,-69,o),
(405,-46,o),
(353,-46,cs),
(349,-46,o),
(343,-46,o),
(338,-47,c),
(367,-12,l),
(472,-7,o),
(572,38,o),
(639,137,c),
(500,192,l),
(467,137,o),
(417,118,o),
(363,118,cs),
(261,118,o),
(213,189,o),
(213,282,cs),
(213,389,o),
(275,550,o),
(418,550,cs),
(477,550,o),
(526,519,o),
(548,472,c),
(687,520,l),
(642,629,o),
(540,680,o),
(420,680,cs),
(190,680,o),
(46,488,o),
(46,273,cs),
(46,111,o),
(147,4,o),
(311,-10,c),
(276,-53,ls),
(263,-70,o),
(268,-91,o),
(293,-86,cs),
(299,-85,o),
(308,-84,o),
(318,-84,cs),
(336,-84,o),
(349,-94,o),
(349,-108,cs),
(349,-127,o),
(332,-137,o),
(307,-137,cs),
(285,-137,o),
(257,-127,o),
(244,-118,c),
(219,-166,l),
(246,-178,o),
(284,-187,o),
(325,-187,cs)
);
}
);
width = 663;
}
);
unicode = 199;
},
{
glyphname = D;
kernLeft = H;
kernRight = O;
lastChange = "2024-11-01 12:02:53 +0000";
layers = (
{
anchors = (
{
name = bottom;
pos = (270,0);
},
{
name = center;
pos = (204,351);
},
{
name = top;
pos = (422,668);
}
);
layerId = m003;
shapes = (
{
closed = 1;
nodes = (
(262,0,ls),
(521,0,o),
(617,213,o),
(617,402,cs),
(617,580,o),
(492,668,o),
(275,668,cs),
(171,668,l),
(29,0,l)
);
},
{
closed = 1;
nodes = (
(217,620,l),
(269,620,ls),
(431,620,o),
(560,569,o),
(560,400,cs),
(560,238,o),
(486,48,o),
(261,48,cs),
(95,48,l)
);
}
);
width = 640;
},
{
anchors = (
{
name = bottom;
pos = (305,0);
},
{
name = center;
pos = (195,344);
},
{
name = top;
pos = (427,668);
}
);
layerId = m004;
shapes = (
{
closed = 1;
nodes = (
(313,0,ls),
(618,0,o),
(692,234,o),
(692,392,cs),
(692,577,o),
(545,668,o),
(316,668,cs),
(143,668,l),
(1,0,l)
);
},
{
closed = 1;
nodes = (
(283,527,l),
(322,527,ls),
(428,527,o),
(517,490,o),
(517,372,cs),
(517,258,o),
(458,143,o),
(327,143,cs),
(201,143,l)
);
}
);
width = 699;
},
{
anchors = (
{
name = bottom;
pos = (287,0);
},
{
name = center;
pos = (206,349);
},
{
name = top;
pos = (429,668);
}
);
layerId = "685EC287-0A44-43F1-AA0E-B98846C13147";
shapes = (
{
closed = 1;
nodes = (
(282,0,ls),
(556,0,o),
(645,220,o),
(645,398,cs),
(645,579,o),
(513,668,o),
(292,668,cs),
(167,668,l),
(25,0,l)
);
},
{
closed = 1;
nodes = (
(244,589,l),
(290,589,ls),
(433,589,o),
(549,543,o),
(549,390,cs),
(549,250,o),
(483,79,o),
(286,79,cs),
(136,79,l)
);
}
);
width = 669;
},
{
anchors = (
{
name = bottom;
pos = (300,0);
},
{
name = center;
pos = (196,345);
},
{
name = top;
pos = (426,668);
}
);
layerId = "FD063E2A-CA5A-4098-9599-3D7AAD1E2DEB";
shapes = (
{
closed = 1;
nodes = (
(305,0,ls),
(605,0,o),
(682,232,o),
(682,393,cs),
(682,577,o),
(537,668,o),
(310,668,cs),
(145,668,l),
(3,0,l)
);
},
{
closed = 1;
nodes = (
(275,537,l),
(313,537,ls),
(426,537,o),
(519,499,o),
(519,372,cs),
(519,247,o),
(450,133,o),
(319,133,cs),
(189,133,l)
);
}
);
width = 693;
}
);
metricLeft = H;
metricRight = O;
unicode = 68;
},
{
glyphname = Dcroat;
kernLeft = H;
kernRight = O;
lastChange = "2024-11-01 12:02:53 +0000";
layers = (
{
layerId = m003;
shapes = (
{
closed = 1;
nodes = (
(284,0,ls),
(543,0,o),
(639,213,o),
(639,402,cs),
(639,580,o),
(514,668,o),
(297,668,cs),
(193,668,l),
(131,375,l),
(53,375,l),
(43,327,l),
(121,327,l),
(51,0,l)
);
},
{
closed = 1;
nodes = (
(177,327,l),
(379,327,l),
(389,375,l),
(187,375,l),
(239,620,l),
(291,620,ls),
(453,620,o),
(582,569,o),
(582,400,cs),
(582,238,o),
(508,48,o),
(283,48,cs),
(117,48,l)
);
}
);
width = 662;
},
{
layerId = m004;
shapes = (
{
closed = 1;
nodes = (
(334,0,ls),
(639,0,o),
(713,234,o),
(713,392,cs),
(713,577,o),
(566,668,o),
(337,668,cs),
(164,668,l),
(110,413,l),
(44,413,l),
(14,274,l),
(80,274,l),
(22,0,l)
);
},
{
closed = 1;
nodes = (
(250,274,l),
(377,274,l),
(407,413,l),
(280,413,l),
(304,527,l),
(343,527,ls),
(449,527,o),
(538,490,o),
(538,372,cs),
(538,258,o),
(479,143,o),
(348,143,cs),
(222,143,l)
);
}
);
width = 720;
},
{
layerId = "685EC287-0A44-43F1-AA0E-B98846C13147";
shapes = (
{
closed = 1;
nodes = (
(302,0,ls),
(576,0,o),
(665,220,o),
(665,398,cs),
(665,579,o),
(533,668,o),
(312,668,cs),
(187,668,l),
(127,388,l),
(60,388,l),
(44,309,l),
(111,309,l),
(45,0,l)
);
},
{
closed = 1;
nodes = (
(205,309,l),
(395,309,l),
(411,388,l),
(221,388,l),
(264,589,l),
(310,589,ls),
(453,589,o),
(569,543,o),
(569,390,cs),
(569,250,o),
(503,79,o),
(306,79,cs),
(156,79,l)
);
}
);
width = 689;
},
{
layerId = "FD063E2A-CA5A-4098-9599-3D7AAD1E2DEB";
shapes = (
{
closed = 1;
nodes = (
(325,0,ls),
(625,0,o),
(702,232,o),
(702,393,cs),
(702,577,o),
(557,668,o),
(330,668,cs),
(165,668,l),
(110,409,l),
(45,409,l),
(17,280,l),
(83,280,l),
(23,0,l)
);
},
{
closed = 1;
nodes = (
(240,280,l),
(378,280,l),
(406,409,l),
(268,409,l),
(295,537,l),
(333,537,ls),
(446,537,o),
(539,499,o),
(539,372,cs),
(539,247,o),
(470,133,o),
(339,133,cs),
(209,133,l)
);
}
);
width = 713;
}
);
metricRight = D;
unicode = 272;
},
{
glyphname = Eth;
kernLeft = H;
kernRight = O;
lastChange = "2024-11-01 12:02:53 +0000";
layers = (
{
layerId = m003;
shapes = (
{
closed = 1;
nodes = (
(284,0,ls),
(543,0,o),
(639,213,o),
(639,402,cs),
(639,580,o),
(514,668,o),
(297,668,cs),
(193,668,l),
(131,375,l),
(53,375,l),
(43,327,l),
(121,327,l),
(51,0,l)
);
},
{
closed = 1;
nodes = (
(177,327,l),
(379,327,l),
(389,375,l),
(187,375,l),
(239,620,l),
(291,620,ls),
(453,620,o),
(582,569,o),
(582,400,cs),
(582,238,o),
(508,48,o),
(283,48,cs),
(117,48,l)
);
}
);
width = 662;
},
{
layerId = m004;
shapes = (
{
closed = 1;
nodes = (
(334,0,ls),
(639,0,o),
(713,234,o),
(713,392,cs),
(713,577,o),
(566,668,o),
(337,668,cs),
(164,668,l),
(110,413,l),
(44,413,l),
(14,274,l),
(80,274,l),
(22,0,l)
);
},
{
closed = 1;
nodes = (
(250,274,l),
(377,274,l),
(407,413,l),
(280,413,l),
(304,527,l),
(343,527,ls),
(449,527,o),
(538,490,o),
(538,372,cs),
(538,258,o),
(479,143,o),
(348,143,cs),
(222,143,l)
);
}
);
width = 720;
},
{
layerId = "685EC287-0A44-43F1-AA0E-B98846C13147";
shapes = (
{
closed = 1;
nodes = (
(302,0,ls),
(576,0,o),
(665,220,o),
(665,398,cs),
(665,579,o),
(533,668,o),
(312,668,cs),
(187,668,l),
(127,388,l),
(60,388,l),
(44,309,l),
(111,309,l),
(45,0,l)
);
},
{
closed = 1;
nodes = (
(205,309,l),
(395,309,l),
(411,388,l),
(221,388,l),
(264,589,l),
(310,589,ls),
(453,589,o),
(569,543,o),
(569,390,cs),
(569,250,o),
(503,79,o),
(306,79,cs),
(156,79,l)
);
}
);
width = 689;
},
{
layerId = "FD063E2A-CA5A-4098-9599-3D7AAD1E2DEB";
shapes = (
{
closed = 1;
nodes = (
(325,0,ls),
(625,0,o),
(702,232,o),
(702,393,cs),
(702,577,o),
(557,668,o),
(330,668,cs),
(165,668,l),
(110,409,l),
(45,409,l),
(17,280,l),
(83,280,l),
(23,0,l)
);
},
{
closed = 1;
nodes = (
(240,280,l),
(378,280,l),
(406,409,l),
(268,409,l),
(295,537,l),
(333,537,ls),
(446,537,o),
(539,499,o),
(539,372,cs),
(539,247,o),
(470,133,o),
(339,133,cs),
(209,133,l)
);
}
);
width = 713;
}
);
metricRight = D;
unicode = 208;
},
{
glyphname = E;
kernLeft = B;
kernRight = E;
lastChange = "2024-11-01 12:02:53 +0000";
layers = (
{
anchors = (
{
name = bottom;
pos = (217,0);
},
{
name = ogonek;
pos = (451,10);
},
{
name = top;
pos = (381,668);
},
{
name = topleft;
pos = (98,668);
}
);
layerId = m003;
shapes = (
{
closed = 1;
nodes = (
(449,0,l),
(459,48,l),
(95,48,l),
(153,320,l),
(447,320,l),
(457,368,l),
(163,368,l),
(217,620,l),
(577,620,l),
(587,668,l),
(171,668,l),
(29,0,l)
);
}
);
width = 542;
},
{
anchors = (
{
name = bottom;
pos = (254,0);
},
{
name = ogonek;
pos = (528,10);
},
{
name = top;
pos = (408,668);
},
{
name = topleft;
pos = (125,668);
}
);
layerId = m004;
shapes = (
{
closed = 1;
nodes = (
(526,0,l),
(558,150,l),
(203,150,l),
(228,269,l),
(436,269,l),
(468,418,l),
(260,418,l),
(281,518,l),
(632,518,l),
(664,668,l),
(143,668,l),
(1,0,l)
);
}
);
width = 613;
},
{
anchors = (
{
name = bottom;
pos = (234,0);
},
{
name = ogonek;
pos = (480,10);
},
{
name = top;
pos = (395,668);
},
{
name = topleft;
pos = (112,668);
}
);
layerId = "685EC287-0A44-43F1-AA0E-B98846C13147";
shapes = (
{
closed = 1;
nodes = (
(478,0,l),
(495,81,l),
(136,81,l),
(183,303,l),
(449,303,l),
(466,384,l),
(201,384,l),
(244,587,l),
(599,587,l),
(616,668,l),
(167,668,l),
(25,0,l)
);
}
);
width = 569;
},
{
anchors = (
{
name = bottom;
pos = (249,0);
},
{
name = ogonek;
pos = (519,10);
},
{
name = top;
pos = (404,668);
},
{
name = topleft;
pos = (121,668);
}
);
layerId = "FD063E2A-CA5A-4098-9599-3D7AAD1E2DEB";
shapes = (
{
closed = 1;
nodes = (
(517,0,l),
(547,139,l),
(191,139,l),
(219,274,l),
(436,274,l),
(466,413,l),
(249,413,l),
(273,529,l),
(625,529,l),
(655,668,l),
(145,668,l),
(3,0,l)
);
}
);
width = 604;
}
);
metricLeft = H;
unicode = 69;
},
{
glyphname = Eogonek;
kernLeft = B;
kernRight = E;
lastChange = "2024-11-01 12:02:53 +0000";
layers = (
{
anchors = (
{
name = bottom;
pos = (217,0);
},
{
name = top;
pos = (281,668);
},
{
name = topleft;
pos = (98,668);
}
);
layerId = m003;
shapes = (
{
closed = 1;
nodes = (
(381,0,l),
(338,-22,o),
(298,-54,o),
(298,-103,cs),
(298,-147,o),
(338,-168,o),
(382,-168,cs),
(391,-168,o),
(401,-167,o),
(414,-163,c),
(422,-123,l),
(415,-125,o),
(402,-127,o),
(397,-127,cs),
(367,-127,o),
(346,-119,o),
(346,-92,cs),
(346,-46,o),
(405,-13,o),
(449,0,c),
(459,48,l),
(95,48,l),
(153,320,l),
(447,320,l),
(457,368,l),
(163,368,l),
(217,620,l),
(577,620,l),
(587,668,l),
(171,668,l),
(29,0,l)
);
}
);
width = 542;
},
{
anchors = (
{
name = bottom;
pos = (254,0);
},
{
name = top;
pos = (291,668);
},
{
name = topleft;
pos = (125,668);
}
);
layerId = m004;
shapes = (
{
closed = 1;
nodes = (
(358,0,l),
(317,-18,o),
(275,-47,o),
(275,-90,cs),
(275,-152,o),
(370,-176,o),
(449,-176,cs),
(463,-176,o),
(479,-175,o),
(491,-172,c),
(508,-91,l),
(501,-92,o),
(480,-95,o),
(462,-95,cs),
(438,-95,o),
(417,-87,o),
(417,-67,cs),
(417,-32,o),
(491,-2,o),
(526,0,c),
(558,150,l),
(203,150,l),
(228,269,l),
(436,269,l),
(468,418,l),
(260,418,l),
(281,518,l),
(632,518,l),
(664,668,l),
(143,668,l),
(1,0,l)
);
}
);
width = 613;
},
{
anchors = (
{
name = bottom;
pos = (234,0);
},
{
name = top;
pos = (284,668);
},
{
name = topleft;
pos = (112,668);
}
);
layerId = "685EC287-0A44-43F1-AA0E-B98846C13147";
shapes = (
{
closed = 1;
nodes = (
(371,0,l),
(331,-21,o),
(302,-58,o),
(302,-99,cs),
(302,-148,o),
(341,-173,o),
(393,-173,cs),
(409,-173,o),
(425,-171,o),
(443,-167,c),
(455,-110,l),
(445,-113,o),
(434,-115,o),
(421,-115,cs),
(397,-115,o),
(374,-106,o),
(374,-80,cs),
(374,-42,o),
(416,-19,o),
(478,0,c),
(495,81,l),
(136,81,l),
(183,303,l),
(449,303,l),
(466,384,l),
(201,384,l),
(244,587,l),
(599,587,l),
(616,668,l),
(167,668,l),
(25,0,l)
);
}
);
width = 569;
},
{
anchors = (
{
name = bottom;
pos = (249,0);
},
{
name = top;
pos = (291,668);
},
{
name = topleft;
pos = (121,668);
}
);
layerId = "FD063E2A-CA5A-4098-9599-3D7AAD1E2DEB";
shapes = (
{
closed = 1;
nodes = (
(360,0,l),
(318,-18,o),
(277,-48,o),
(277,-88,cs),
(277,-152,o),
(364,-174,o),
(441,-174,cs),
(457,-174,o),
(474,-173,o),
(482,-172,c),
(498,-94,l),
(487,-96,o),
(468,-98,o),
(454,-98,cs),
(430,-98,o),
(409,-90,o),
(409,-70,cs),
(409,-34,o),
(481,-3,o),
(517,0,c),
(547,139,l),
(191,139,l),
(219,274,l),
(436,274,l),
(466,413,l),
(249,413,l),
(273,529,l),
(625,529,l),
(655,668,l),
(145,668,l),
(3,0,l)
);
}
);
width = 604;
}
);
metricLeft = E;
metricWidth = E;
unicode = 280;
},
{
glyphname = F;
kernLeft = B;
kernRight = F;
lastChange = "2024-11-01 12:02:53 +0000";
layers = (
{
anchors = (
{
name = bottom;
pos = (211,0);
},
{
name = top;
pos = (353,668);
}
);
layerId = m003;
shapes = (
{
closed = 1;
nodes = (
(85,0,l),
(153,320,l),
(503,320,l),
(513,368,l),
(163,368,l),
(217,620,l),
(571,620,l),
(581,668,l),
(171,668,l),
(29,0,l)
);
}
);
width = 535;
},
{
anchors = (
{
name = bottom;
pos = (234,0);
},
{
name = top;
pos = (376,668);
}
);
layerId = m004;
shapes = (
{
closed = 1;
nodes = (
(171,0,l),
(221,233,l),
(532,233,l),
(564,383,l),
(252,383,l),
(281,518,l),
(597,518,l),
(629,668,l),
(143,668,l),
(1,0,l)
);
}
);
width = 574;
},
{
anchors = (
{
name = bottom;
pos = (224,0);
},
{
name = top;
pos = (366,668);
}
);
layerId = "685EC287-0A44-43F1-AA0E-B98846C13147";
shapes = (
{
closed = 1;
nodes = (
(119,0,l),
(183,303,l),
(520,303,l),
(537,384,l),
(201,384,l),
(244,587,l),
(584,587,l),
(601,668,l),
(167,668,l),
(25,0,l)
);
}
);
width = 552;
},
{
anchors = (
{
name = bottom;
pos = (230,0);
},
{
name = top;
pos = (372,668);
}
);
layerId = "FD063E2A-CA5A-4098-9599-3D7AAD1E2DEB";
shapes = (
{
closed = 1;
nodes = (
(161,0,l),
(213,244,l),
(528,244,l),
(558,383,l),
(242,383,l),
(273,529,l),
(593,529,l),
(623,668,l),
(145,668,l),
(3,0,l)
);
}
);
width = 569;
}
);
metricLeft = H;
unicode = 70;
},
{
glyphname = G;
kernLeft = O;
kernRight = G;
lastChange = "2024-11-01 12:02:53 +0000";
layers = (
{
anchors = (
{
name = bottom;
pos = (285,0);
},
{
name = top;
pos = (423,668);
}
);
layerId = m003;
shapes = (
{
closed = 1;
nodes = (
(373,-12,o),
(455,14,o),
(520,89,c),
(513,0,l),
(553,0,l),
(623,327,l),
(351,327,l),
(340,279,l),
(559,279,l),
(554,253,ls),
(520,78,o),
(385,36,o),
(307,36,cs),
(181,36,o),
(113,132,o),
(113,264,cs),
(113,410,o),
(197,632,o),
(400,632,cs),
(482,632,o),
(558,592,o),
(583,503,c),
(636,522,l),
(603,623,o),
(515,680,o),
(403,680,cs),
(166,680,o),
(56,442,o),
(56,260,cs),
(56,102,o),
(144,-12,o),
(301,-12,cs)
);
}
);
width = 670;
},
{
anchors = (
{
name = bottom;
pos = (304,0);
},
{
name = top;
pos = (450,668);
}
);
layerId = m004;
shapes = (
{
closed = 1;
nodes = (
(394,-12,o),
(459,11,o),
(515,64,c),
(521,0,l),
(634,0,l),
(716,384,l),
(403,384,l),
(374,247,l),
(516,247,l),
(512,229,ls),
(494,147,o),
(427,128,o),
(369,128,cs),
(271,128,o),
(224,190,o),
(224,282,cs),
(224,384,o),
(279,540,o),
(422,540,cs),
(493,540,o),
(533,504,o),
(545,480,c),
(699,532,l),
(667,612,o),
(567,680,o),
(425,680,cs),
(187,680,o),
(42,490,o),
(42,271,cs),
(42,100,o),
(150,-12,o),
(329,-12,cs)
);
}
);
width = 731;
},
{
anchors = (
{
name = bottom;
pos = (298,0);
},
{
name = top;
pos = (439,668);
}
);
layerId = "685EC287-0A44-43F1-AA0E-B98846C13147";
shapes = (
{
closed = 1;
nodes = (
(390,-12,o),
(466,13,o),
(528,81,c),
(525,0,l),
(590,0,l),
(664,345,l),
(378,345,l),
(361,264,l),
(553,264,l),
(550,245,ls),
(521,101,o),
(409,67,o),
(335,67,cs),
(215,67,o),
(154,152,o),
(154,270,cs),
(154,401,o),
(230,601,o),
(415,601,cs),
(495,601,o),
(560,563,o),
(582,496,c),
(666,525,l),
(634,619,o),
(542,680,o),
(418,680,cs),
(180,680,o),
(58,458,o),
(58,264,cs),
(58,101,o),
(153,-12,o),
(318,-12,cs)
);
}
);
width = 694;
},
{
anchors = (
{
name = bottom;
pos = (303,0);
},
{
name = top;
pos = (448,668);
}
);
layerId = "FD063E2A-CA5A-4098-9599-3D7AAD1E2DEB";
shapes = (
{
closed = 1;
nodes = (
(393,-12,o),
(460,11,o),
(516,67,c),
(521,0,l),
(626,0,l),
(707,378,l),
(398,378,l),
(371,250,l),
(522,250,l),
(518,232,ls),
(498,139,o),
(423,118,o),
(363,118,cs),
(262,118,o),
(212,184,o),
(212,280,cs),
(212,387,o),
(271,550,o),
(421,550,cs),
(493,550,o),
(537,514,o),
(550,483,c),
(693,531,l),
(661,613,o),
(562,680,o),
(424,680,cs),
(186,680,o),
(45,485,o),
(45,270,cs),
(45,100,o),
(150,-12,o),
(327,-12,cs)
);
}
);
width = 724;
}
);
metricLeft = O;
unicode = 71;
},
{
glyphname = H;
kernLeft = B;
kernRight = H;
lastChange = "2024-11-01 12:02:53 +0000";
layers = (
{
anchors = (
{
name = bottom;
pos = (279,0);
},
{
name = center;
pos = (395,540);
},
{
name = top;
pos = (421,668);
},
{
name = topleft;
pos = (94,668);
}
);
layerId = m003;
shapes = (
{
closed = 1;
nodes = (
(85,0,l),
(153,321,l),
(543,321,l),
(475,0,l),
(531,0,l),
(673,668,l),
(617,668,l),
(553,369,l),
(163,369,l),
(227,668,l),
(171,668,l),
(29,0,l)
);
}
);
width = 666;
},
{
anchors = (
{
name = bottom;
pos = (302,0);
},
{
name = center;
pos = (418,546);
},
{
name = top;
pos = (444,668);
},
{
name = topleft;
pos = (109,668);
}
);
layerId = m004;
shapes = (
{
closed = 1;
nodes = (
(171,0,l),
(228,268,l),
(489,268,l),
(432,0,l),
(602,0,l),
(744,668,l),
(574,668,l),
(521,418,l),
(260,418,l),
(313,668,l),
(143,668,l),
(1,0,l)
);
}
);
width = 709;
},
{
anchors = (
{
name = bottom;
pos = (293,0);
},
{
name = center;
pos = (409,544);
},
{
name = top;
pos = (435,668);
},
{
name = topleft;
pos = (105,668);
}
);
layerId = "685EC287-0A44-43F1-AA0E-B98846C13147";
shapes = (
{
closed = 1;
nodes = (
(119,0,l),
(183,303,l),
(533,303,l),
(469,0,l),
(563,0,l),
(705,668,l),
(611,668,l),
(551,384,l),
(201,384,l),
(261,668,l),
(167,668,l),
(25,0,l)
);
}
);
width = 694;
},
{
anchors = (
{
name = bottom;
pos = (298,0);
},
{
name = center;
pos = (414,549);
},
{
name = top;
pos = (440,668);
},
{
name = topleft;
pos = (106,668);
}
);
layerId = "FD063E2A-CA5A-4098-9599-3D7AAD1E2DEB";
shapes = (
{
closed = 1;
nodes = (
(161,0,l),
(219,274,l),
(494,274,l),
(436,0,l),
(594,0,l),
(736,668,l),
(578,668,l),
(524,413,l),
(248,413,l),
(303,668,l),
(145,668,l),
(3,0,l)
);
}
);
width = 703;
}
);
metricRight = "=|";
unicode = 72;
},
{
glyphname = Hbar;
kernLeft = H;
kernRight = H;
lastChange = "2024-11-01 12:02:53 +0000";
layers = (
{
layerId = m003;
shapes = (
{
closed = 1;
nodes = (
(85,0,l),
(153,321,l),
(543,321,l),
(475,0,l),
(531,0,l),
(641,517,l),
(706,517,l),
(716,563,l),
(651,563,l),
(673,668,l),
(617,668,l),
(595,563,l),
(205,563,l),
(227,668,l),
(171,668,l),
(149,563,l),
(84,563,l),
(74,517,l),
(139,517,l),
(29,0,l)
);
},
{
closed = 1;
nodes = (
(195,517,l),
(585,517,l),
(553,369,l),
(163,369,l)
);
}
);
width = 666;
},
{
layerId = m004;
shapes = (
{
closed = 1;
nodes = (
(171,0,l),
(228,268,l),
(489,268,l),
(432,0,l),
(602,0,l),
(708,498,l),
(748,498,l),
(768,594,l),
(728,594,l),
(744,668,l),
(574,668,l),
(558,594,l),
(297,594,l),
(313,668,l),
(143,668,l),
(127,594,l),
(87,594,l),
(67,498,l),
(107,498,l),
(1,0,l)
);
},
{
closed = 1;
nodes = (
(277,498,l),
(538,498,l),
(521,418,l),
(260,418,l)
);
}
);
width = 709;
},
{
layerId = "685EC287-0A44-43F1-AA0E-B98846C13147";
shapes = (
{
closed = 1;
nodes = (
(119,0,l),
(183,303,l),
(533,303,l),
(469,0,l),
(563,0,l),
(671,506,l),
(738,506,l),
(753,582,l),
(687,582,l),
(705,668,l),
(611,668,l),
(593,582,l),
(243,582,l),
(261,668,l),
(167,668,l),
(149,582,l),
(82,582,l),
(66,506,l),
(133,506,l),
(25,0,l)
);
},
{
closed = 1;
nodes = (
(227,506,l),
(577,506,l),
(551,384,l),
(201,384,l)
);
}
);
width = 694;
},
{
layerId = "FD063E2A-CA5A-4098-9599-3D7AAD1E2DEB";
shapes = (
{
closed = 1;
nodes = (
(161,0,l),
(219,274,l),
(494,274,l),
(436,0,l),
(594,0,l),
(701,501,l),
(746,501,l),
(766,597,l),
(721,597,l),
(736,668,l),
(578,668,l),
(563,597,l),
(288,597,l),
(303,668,l),
(145,668,l),
(130,597,l),
(85,597,l),
(65,501,l),
(110,501,l),
(3,0,l)
);
},
{
closed = 1;
nodes = (
(267,501,l),
(543,501,l),
(524,413,l),
(248,413,l)
);
}
);
width = 703;
}
);
unicode = 294;
},
{
glyphname = I;
kernLeft = I;
kernRight = I;
lastChange = "2024-11-01 12:02:53 +0000";
layers = (
{
anchors = (
{
name = bottom;
pos = (127,0);
},
{
name = ogonek;
pos = (250,10);
},
{
name = top;
pos = (268,668);
},
{
name = topleft;
pos = (95,668);
}
);
guides = (
{
angle = 78;
pos = (287,626);
},
{
angle = 78;
pos = (231,626);
},
{
angle = 78;
pos = (302,626);
},
{
angle = 78;
pos = (216,626);
},
{
angle = 78;
pos = (259,626);
}
);
layerId = m003;
shapes = (
{
closed = 1;
nodes = (
(248,0,l),
(257,42,l),
(163,42,l),
(287,626,l),
(381,626,l),
(390,668,l),
(146,668,l),
(137,626,l),
(231,626,l),
(107,42,l),
(13,42,l),
(4,0,l)
);
}
);
width = 358;
},
{
anchors = (
{
name = bottom;
pos = (165,0);
},
{
name = ogonek;
pos = (344,10);
},
{
name = top;
pos = (307,668);
},
{
name = topleft;
pos = (92,668);
}
);
guides = (
{
angle = 78;
pos = (213,626);
},
{
angle = 78;
pos = (383,626);
},
{
angle = 78;
pos = (298,626);
}
);
layerId = m004;
shapes = (
{
closed = 1;
nodes = (
(342,0,l),
(368,124,l),
(276,124,l),
(366,544,l),
(458,544,l),
(484,668,l),
(130,668,l),
(104,544,l),
(196,544,l),
(106,124,l),
(14,124,l),
(-12,0,l)
);
}
);
width = 435;
},
{
anchors = (
{
name = bottom;
pos = (144,0);
},
{
name = ogonek;
pos = (286,10);
},
{
name = top;
pos = (285,668);
},
{
name = topleft;
pos = (98,668);
}
);
guides = (
{
angle = 78;
pos = (317,598);
},
{
angle = 78;
pos = (223,598);
},
{
angle = 78;
pos = (270,598);
}
);
layerId = "685EC287-0A44-43F1-AA0E-B98846C13147";
shapes = (
{
closed = 1;
nodes = (
(284,0,l),
(299,70,l),
(205,70,l),
(317,598,l),
(411,598,l),
(426,668,l),
(144,668,l),
(129,598,l),
(223,598,l),
(111,70,l),
(17,70,l),
(2,0,l)
);
}
);
width = 392;
},
{
anchors = (
{
name = bottom;
pos = (164,0);
},
{
name = ogonek;
pos = (338,10);
},
{
name = top;
pos = (306,668);
},
{
name = topleft;
pos = (95,668);
}
);
layerId = "FD063E2A-CA5A-4098-9599-3D7AAD1E2DEB";
shapes = (
{
closed = 1;
nodes = (
(336,0,l),
(361,116,l),
(268,116,l),
(360,552,l),
(453,552,l),
(478,668,l),
(134,668,l),
(109,552,l),
(202,552,l),
(110,116,l),
(17,116,l),
(-8,0,l)
);
}
);
width = 433;
}
);
unicode = 73;
},
{
glyphname = Iogonek;
kernLeft = I;
kernRight = I;
lastChange = "2024-11-01 12:02:53 +0000";
layers = (
{
anchors = (
{
name = bottom;
pos = (127,0);
},
{
name = top;
pos = (268,668);
},
{
name = topleft;
pos = (95,668);
}
);
layerId = m003;
shapes = (
{
closed = 1;
nodes = (
(180,0,l),
(137,-22,o),
(97,-54,o),
(97,-103,cs),
(97,-147,o),
(137,-168,o),
(181,-168,cs),
(190,-168,o),
(200,-167,o),
(213,-163,c),
(221,-123,l),
(214,-125,o),
(201,-127,o),
(196,-127,cs),
(166,-127,o),
(145,-119,o),
(145,-92,cs),
(145,-46,o),
(204,-13,o),
(248,0,c),
(257,42,l),
(163,42,l),
(287,626,l),
(381,626,l),
(390,668,l),
(146,668,l),
(137,626,l),
(231,626,l),
(107,42,l),
(13,42,l),
(4,0,l)
);
}
);
width = 358;
},
{
anchors = (
{
name = bottom;
pos = (165,0);
},
{
name = top;
pos = (307,668);
},
{
name = topleft;
pos = (92,668);
}
);
layerId = m004;
shapes = (
{
closed = 1;
nodes = (
(174,0,l),
(133,-18,o),
(91,-47,o),
(91,-90,cs),
(91,-152,o),
(186,-176,o),
(265,-176,cs),
(279,-176,o),
(295,-175,o),
(307,-172,c),
(324,-91,l),
(317,-92,o),
(296,-95,o),
(278,-95,cs),
(254,-95,o),
(233,-87,o),
(233,-67,cs),
(233,-32,o),
(307,-2,o),
(342,0,c),
(368,124,l),
(276,124,l),
(366,544,l),
(458,544,l),
(484,668,l),
(130,668,l),
(104,544,l),
(196,544,l),
(106,124,l),
(14,124,l),
(-12,0,l)
);
}
);
width = 435;
},
{
anchors = (
{
name = bottom;
pos = (144,0);
},
{
name = top;
pos = (285,668);
},
{
name = topleft;
pos = (98,668);
}
);
layerId = "685EC287-0A44-43F1-AA0E-B98846C13147";
shapes = (
{
closed = 1;
nodes = (
(177,0,l),
(137,-21,o),
(108,-58,o),
(108,-99,cs),
(108,-148,o),
(147,-173,o),
(199,-173,cs),
(215,-173,o),
(231,-171,o),
(249,-167,c),
(261,-110,l),
(251,-113,o),
(240,-115,o),
(227,-115,cs),
(203,-115,o),
(180,-106,o),
(180,-80,cs),
(180,-42,o),
(222,-19,o),
(284,0,c),
(299,70,l),
(205,70,l),
(317,598,l),
(411,598,l),
(426,668,l),
(144,668,l),
(129,598,l),
(223,598,l),
(111,70,l),
(17,70,l),
(2,0,l)
);
}
);
width = 392;
},
{
anchors = (
{
name = bottom;
pos = (164,0);
},
{
name = top;
pos = (306,668);
},
{
name = topleft;
pos = (95,668);
}
);
layerId = "FD063E2A-CA5A-4098-9599-3D7AAD1E2DEB";
shapes = (
{
closed = 1;
nodes = (
(179,0,l),
(137,-18,o),
(96,-48,o),
(96,-88,cs),
(96,-152,o),
(183,-174,o),
(260,-174,cs),
(276,-174,o),
(293,-173,o),
(301,-172,c),
(317,-94,l),
(306,-96,o),
(287,-98,o),
(273,-98,cs),
(249,-98,o),
(228,-90,o),
(228,-70,cs),
(228,-34,o),
(300,-3,o),
(336,0,c),
(361,116,l),
(268,116,l),
(360,552,l),
(453,552,l),
(478,668,l),
(134,668,l),
(109,552,l),
(202,552,l),
(110,116,l),
(17,116,l),
(-8,0,l)
);
}
);
width = 433;
}
);
metricLeft = I;
metricWidth = I;
unicode = 302;
},
{
glyphname = J;
kernLeft = J;
kernRight = U;
lastChange = "2024-11-01 12:02:53 +0000";
layers = (
{
anchors = (
{
name = bottom;
pos = (189,0);
},
{
name = top;
pos = (451,668);
}
);
layerId = m003;
shapes = (
{
closed = 1;
nodes = (
(280,-12,o),
(347,53,o),
(371,164,cs),
(479,668,l),
(423,668,l),
(317,171,ls),
(300,92,o),
(256,36,o),
(174,36,cs),
(82,36,o),
(38,105,o),
(61,206,c),
(6,195,l),
(-17,66,o),
(47,-12,o),
(174,-12,cs)
);
}
);
width = 472;
},
{
anchors = (
{
name = bottom;
pos = (232,0);
},
{
name = top;
pos = (535,668);
}
);
layerId = m004;
shapes = (
{
closed = 1;
nodes = (
(390,-12,o),
(493,73,o),
(528,237,cs),
(620,668,l),
(450,668,l),
(362,254,ls),
(345,172,o),
(313,122,o),
(247,122,cs),
(185,122,o),
(163,170,o),
(156,231,c),
(-7,174,l),
(15,49,o),
(112,-12,o),
(239,-12,cs)
);
}
);
width = 585;
},
{
anchors = (
{
name = bottom;
pos = (199,0);
},
{
name = top;
pos = (475,668);
}
);
layerId = "685EC287-0A44-43F1-AA0E-B98846C13147";
shapes = (
{
closed = 1;
nodes = (
(313,-12,o),
(392,60,o),
(420,189,cs),
(523,668,l),
(429,668,l),
(329,199,ls),
(312,119,o),
(271,65,o),
(195,65,cs),
(113,65,o),
(76,127,o),
(89,214,c),
(0,189,l),
(-7,61,o),
(65,-12,o),
(192,-12,cs)
);
}
);
width = 512;
},
{
anchors = (
{
name = bottom;
pos = (228,0);
},
{
name = top;
pos = (526,668);
}
);
layerId = "FD063E2A-CA5A-4098-9599-3D7AAD1E2DEB";
shapes = (
{
closed = 1;
nodes = (
(379,-12,o),
(479,71,o),
(512,229,cs),
(605,668,l),
(447,668,l),
(358,245,ls),
(341,163,o),
(308,113,o),
(240,113,cs),
(175,113,o),
(150,163,o),
(147,228,c),
(-5,176,l),
(13,51,o),
(106,-12,o),
(233,-12,cs)
);
}
);
width = 572;
}
);
metricRight = H;
unicode = 74;
},
{
glyphname = K;
kernLeft = H;
kernRight = K;
lastChange = "2024-11-01 12:02:53 +0000";
layers = (
{
anchors = (
{
name = bottom;
pos = (237,0);
},
{
name = top;
pos = (379,668);
}
);
layerId = m003;
shapes = (
{
closed = 1;
nodes = (
(85,0,l),
(131,214,l),
(282,351,l),
(468,0,l),
(531,0,l),
(323,387,l),
(636,668,l),
(556,668,l),
(146,291,l),
(227,668,l),
(171,668,l),
(29,0,l)
);
}
);
width = 600;
},
{
anchors = (
{
name = bottom;
pos = (296,0);
},
{
name = top;
pos = (438,668);
}
);
layerId = m004;
shapes = (
{
closed = 1;
nodes = (
(171,0,l),
(210,185,l),
(293,259,l),
(431,0,l),
(618,0,l),
(416,369,l),
(750,668,l),
(533,668,l),
(259,416,l),
(313,668,l),
(143,668,l),
(1,0,l)
);
}
);
width = 681;
},
{
anchors = (
{
name = bottom;
pos = (262,0);
},
{
name = top;
pos = (404,668);
}
);
layerId = "685EC287-0A44-43F1-AA0E-B98846C13147";
shapes = (
{
closed = 1;
nodes = (
(119,0,l),
(162,204,l),
(290,319,l),
(458,0,l),
(566,0,l),
(360,383,l),
(679,668,l),
(553,668,l),
(190,335,l),
(261,668,l),
(167,668,l),
(25,0,l)
);
}
);
width = 631;
},
{
anchors = (
{
name = bottom;
pos = (289,0);
},
{
name = top;
pos = (431,668);
}
);
layerId = "FD063E2A-CA5A-4098-9599-3D7AAD1E2DEB";
shapes = (
{
closed = 1;
nodes = (
(161,0,l),
(201,188,l),
(292,269,l),
(433,0,l),
(608,0,l),
(406,371,l),
(737,668,l),
(534,668,l),
(247,403,l),
(303,668,l),
(145,668,l),
(3,0,l)
);
}
);
width = 671;
}
);
metricLeft = H;
metricRight = V;
unicode = 75;
},
{
glyphname = L;
kernLeft = H;
kernRight = L;
lastChange = "2024-11-20 12:16:05 +0000";
layers = (
{
anchors = (
{
name = bottom;
pos = (202,0);
},
{
name = center;
pos = (170,330);
},
{
name = top;
pos = (344,668);
},
{
name = topright;
pos = (260,459);
}
);
layerId = m003;
shapes = (
{
closed = 1;
nodes = (
(464,0,l),
(474,48,l),
(95,48,l),
(227,668,l),
(171,668,l),
(29,0,l)
);
}
);
width = 522;
},
{
anchors = (
{
name = bottom;
pos = (232,0);
},
{
name = center;
pos = (203,363);
},
{
name = top;
pos = (374,668);
},
{
name = topright;
pos = (313,459);
}
);
layerId = m004;
shapes = (
{
closed = 1;
nodes = (
(484,0,l),
(516,150,l),
(203,150,l),
(313,668,l),
(143,668,l),
(1,0,l)
);
}
);
width = 558;
},
{
anchors = (
{
name = bottom;
pos = (217,0);
},
{
name = center;
pos = (186,341);
},
{
name = top;
pos = (359,668);
},
{
name = topright;
pos = (283,459);
}
);
layerId = "685EC287-0A44-43F1-AA0E-B98846C13147";
shapes = (
{
closed = 1;
nodes = (
(478,0,l),
(495,81,l),
(136,81,l),
(261,668,l),
(167,668,l),
(25,0,l)
);
}
);
width = 541;
},
{
anchors = (
{
name = bottom;
pos = (228,0);
},
{
name = center;
pos = (198,359);
},
{
name = top;
pos = (370,668);
},
{
name = topright;
pos = (306,459);
}
);
layerId = "FD063E2A-CA5A-4098-9599-3D7AAD1E2DEB";
shapes = (
{
closed = 1;
nodes = (
(481,0,l),
(511,139,l),
(191,139,l),
(303,668,l),
(145,668,l),
(3,0,l)
);
}
);
width = 554;
}
);
metricLeft = H;
unicode = 76;
},
{
glyphname = Lslash;
kernLeft = H;
kernRight = L;
lastChange = "2024-11-01 12:02:53 +0000";
layers = (
{
layerId = m003;
shapes = (
{
closed = 1;
nodes = (
(494,0,l),
(504,48,l),
(125,48,l),
(177,292,l),
(403,408,l),
(416,466,l),
(189,350,l),
(257,668,l),
(201,668,l),
(126,317,l),
(-3,251,l),
(-16,193,l),
(114,260,l),
(59,0,l)
);
}
);
width = 552;
},
{
layerId = m004;
shapes = (
{
closed = 1;
nodes = (
(514,0,l),
(546,150,l),
(233,150,l),
(270,323,l),
(438,411,l),
(466,544,l),
(298,456,l),
(343,668,l),
(173,668,l),
(107,356,l),
(27,314,l),
(-1,182,l),
(79,223,l),
(31,0,l)
);
}
);
width = 588;
},
{
layerId = "685EC287-0A44-43F1-AA0E-B98846C13147";
shapes = (
{
closed = 1;
nodes = (
(508,0,l),
(525,81,l),
(166,81,l),
(213,300,l),
(421,408,l),
(439,491,l),
(230,383,l),
(291,668,l),
(197,668,l),
(125,328,l),
(14,271,l),
(-4,188,l),
(107,246,l),
(55,0,l)
);
}
);
width = 571;
},
{
layerId = "FD063E2A-CA5A-4098-9599-3D7AAD1E2DEB";
shapes = (
{
closed = 1;
nodes = (
(511,0,l),
(541,139,l),
(221,139,l),
(259,318,l),
(435,410,l),
(461,535,l),
(285,443,l),
(333,668,l),
(175,668,l),
(107,350,l),
(23,306,l),
(-3,181,l),
(81,225,l),
(33,0,l)
);
}
);
width = 584;
}
);
metricRight = L;
unicode = 321;
},
{
glyphname = M;
kernLeft = H;
kernRight = H;
lastChange = "2024-11-01 12:02:53 +0000";
layers = (
{
anchors = (
{
name = bottom;
pos = (334,0);
},
{
name = top;
pos = (476,668);
}
);
layerId = m003;
shapes = (
{
closed = 1;
nodes = (
(85,0,l),
(217,620,l),
(306,0,l),
(364,0,l),
(715,620,l),
(583,0,l),
(639,0,l),
(781,668,l),
(681,668,l),
(346,64,l),
(265,668,l),
(171,668,l),
(29,0,l)
);
}
);
width = 774;
},
{
anchors = (
{
name = bottom;
pos = (386,0);
},
{
name = top;
pos = (528,668);
}
);
layerId = m004;
shapes = (
{
closed = 1;
nodes = (
(165,0,l),
(275,517,l),
(316,0,l),
(453,0,l),
(716,517,l),
(606,0,l),
(771,0,l),
(913,668,l),
(656,668,l),
(423,202,l),
(390,668,l),
(143,668,l),
(1,0,l)
);
}
);
width = 878;
},
{
anchors = (
{
name = bottom;
pos = (358,0);
},
{
name = top;
pos = (500,668);
}
);
layerId = "685EC287-0A44-43F1-AA0E-B98846C13147";
shapes = (
{
closed = 1;
nodes = (
(117,0,l),
(242,585,l),
(316,0,l),
(401,0,l),
(724,585,l),
(600,0,l),
(693,0,l),
(835,668,l),
(682,668,l),
(379,110,l),
(312,668,l),
(167,668,l),
(25,0,l)
);
}
);
width = 824;
},
{
anchors = (
{
name = bottom;
pos = (379,0);
},
{
name = top;
pos = (521,668);
}
);
layerId = "FD063E2A-CA5A-4098-9599-3D7AAD1E2DEB";
shapes = (
{
closed = 1;
nodes = (
(155,0,l),
(268,528,l),
(314,0,l),
(442,0,l),
(716,528,l),
(603,0,l),
(757,0,l),
(899,668,l),
(660,668,l),
(414,187,l),
(376,668,l),
(145,668,l),
(3,0,l)
);
}
);
width = 866;
}
);
metricLeft = H;
metricRight = H;
unicode = 77;
},
{
glyphname = N;
kernLeft = H;
kernRight = H;
lastChange = "2024-11-01 12:02:53 +0000";
layers = (
{
anchors = (
{
name = bottom;
pos = (278,0);
},
{
name = top;
pos = (420,668);
}
);
layerId = m003;
shapes = (
{
closed = 1;
nodes = (
(85,0,l),
(217,621,l),
(443,0,l),
(526,0,l),
(668,668,l),
(612,668,l),
(481,51,l),
(256,668,l),
(171,668,l),
(29,0,l)
);
}
);
width = 661;
},
{
anchors = (
{
name = bottom;
pos = (314,0);
},
{
name = top;
pos = (456,668);
}
);
guides = (
{
angle = 257.999;
pos = (72,334);
},
{
angle = 257.999;
pos = (235,334);
},
{
angle = 257.999;
pos = (534,334);
},
{
angle = 257.999;
pos = (697,334);
}
);
layerId = m004;
shapes = (
{
closed = 1;
nodes = (
(164,0,l),
(262,462,l),
(424,0,l),
(626,0,l),
(768,668,l),
(605,668,l),
(506,205,l),
(344,668,l),
(143,668,l),
(1,0,l)
);
}
);
width = 733;
},
{
anchors = (
{
name = bottom;
pos = (295,0);
},
{
name = top;
pos = (437,668);
}
);
layerId = "685EC287-0A44-43F1-AA0E-B98846C13147";
shapes = (
{
closed = 1;
nodes = (
(116,0,l),
(237,566,l),
(438,0,l),
(562,0,l),
(704,668,l),
(612,668,l),
(492,104,l),
(291,668,l),
(167,668,l),
(25,0,l)
);
}
);
width = 693;
},
{
anchors = (
{
name = bottom;
pos = (309,0);
},
{
name = top;
pos = (451,668);
}
);
layerId = "FD063E2A-CA5A-4098-9599-3D7AAD1E2DEB";
shapes = (
{
closed = 1;
nodes = (
(155,0,l),
(257,478,l),
(425,0,l),
(614,0,l),
(756,668,l),
(604,668,l),
(502,188,l),
(333,668,l),
(145,668,l),
(3,0,l)
);
}
);
width = 723;
}
);
metricLeft = H;
metricRight = H;
unicode = 78;
},
{
glyphname = O;
kernLeft = O;
kernRight = O;
lastChange = "2024-11-01 12:02:53 +0000";
layers = (
{
anchors = (
{
name = bottom;
pos = (290,0);
},
{
name = center;
pos = (361,334);
},
{
name = ogonek;
pos = (575,10);
},
{
name = top;
pos = (422,668);
},
{
name = topleft;
pos = (96,668);
},
{
name = topright;
pos = (766,668);
}
);
layerId = m003;
shapes = (
{
closed = 1;
nodes = (
(532,-12,o),
(660,200,o),
(660,401,cs),
(660,562,o),
(567,680,o),
(402,680,cs),
(186,680,o),
(58,468,o),
(58,267,cs),
(58,106,o),
(151,-12,o),
(316,-12,cs)
);
},
{
closed = 1;
nodes = (
(186,36,o),
(115,135,o),
(115,269,cs),
(115,418,o),
(203,632,o),
(400,632,cs),
(532,632,o),
(603,533,o),
(603,399,cs),
(603,250,o),
(515,36,o),
(318,36,cs)
);
}
);
width = 681;
},
{
anchors = (
{
name = bottom;
pos = (325,0);
},
{
name = center;
pos = (396,334);
},
{
name = ogonek;
pos = (632,10);
},
{
name = top;
pos = (455,668);
},
{
name = topleft;
pos = (105,668);
},
{
name = topright;
pos = (829,668);
}
);
layerId = m004;
shapes = (
{
closed = 1;
nodes = (
(595,-12,o),
(749,171,o),
(749,384,cs),
(749,562,o),
(621,680,o),
(430,680,cs),
(194,680,o),
(43,494,o),
(43,285,cs),
(43,105,o),
(174,-12,o),
(364,-12,cs)
);
},
{
closed = 1;
nodes = (
(275,128,o),
(225,194,o),
(225,288,cs),
(225,388,o),
(282,540,o),
(423,540,cs),
(513,540,o),
(567,476,o),
(567,380,cs),
(567,284,o),
(511,128,o),
(370,128,cs)
);
}
);
width = 756;
},
{
anchors = (
{
name = bottom;
pos = (306,0);
},
{
name = center;
pos = (377,334);
},
{
name = ogonek;
pos = (598,10);
},
{
name = top;
pos = (437,668);
},
{
name = topleft;
pos = (103,668);
},
{
name = topright;
pos = (791,668);
}
);
layerId = "685EC287-0A44-43F1-AA0E-B98846C13147";
shapes = (
{
closed = 1;
nodes = (
(554,-12,o),
(691,191,o),
(691,395,cs),
(691,580,o),
(569,680,o),
(413,680,cs),
(197,680,o),
(60,477,o),
(60,273,cs),
(60,88,o),
(182,-12,o),
(338,-12,cs)
);
},
{
closed = 1;
nodes = (
(228,67,o),
(156,148,o),
(156,275,cs),
(156,408,o),
(236,601,o),
(412,601,cs),
(523,601,o),
(595,520,o),
(595,393,cs),
(595,260,o),
(515,67,o),
(339,67,cs)
);
}
);
width = 714;
},
{
anchors = (
{
name = bottom;
pos = (323,0);
},
{
name = center;
pos = (394,334);
},
{
name = ogonek;
pos = (628,10);
},
{
name = top;
pos = (453,668);
},
{
name = topleft;
pos = (106,668);
},
{
name = topright;
pos = (824,668);
}
);
layerId = "FD063E2A-CA5A-4098-9599-3D7AAD1E2DEB";
shapes = (
{
closed = 1;
nodes = (
(593,-12,o),
(741,177,o),
(741,385,cs),
(741,563,o),
(615,680,o),
(428,680,cs),
(195,680,o),
(47,491,o),
(47,283,cs),
(47,105,o),
(173,-12,o),
(360,-12,cs)
);
},
{
closed = 1;
nodes = (
(267,118,o),
(215,188,o),
(215,286,cs),
(215,391,o),
(275,550,o),
(422,550,cs),
(521,550,o),
(573,480,o),
(573,382,cs),
(573,277,o),
(513,118,o),
(366,118,cs)
);
}
);
width = 752;
}
);
metricRight = "=|";
unicode = 79;
},
{
glyphname = Oslash;
kernLeft = O;
kernRight = O;
lastChange = "2024-11-01 12:02:53 +0000";
layers = (
{
anchors = (
{
name = bottom;
pos = (290,0);
},
{
name = center;
pos = (361,334);
},
{
name = top;
pos = (422,668);
},
{
name = topleft;
pos = (96,668);
},
{
name = topright;
pos = (766,668);
}
);
layerId = m003;
shapes = (
{
closed = 1;
nodes = (
(532,-12,o),
(660,200,o),
(660,401,cs),
(660,460,o),
(648,513,o),
(624,556,c),
(717,644,l),
(689,670,l),
(603,589,l),
(559,646,o),
(491,680,o),
(402,680,cs),
(186,680,o),
(58,468,o),
(58,267,cs),
(58,207,o),
(71,153,o),
(95,109,c),
(5,24,l),
(32,-3,l),
(117,77,l),
(161,21,o),
(228,-12,o),
(316,-12,cs)
);
},
{
closed = 1;
nodes = (
(245,36,o),
(191,66,o),
(157,115,c),
(581,516,l),
(596,482,o),
(603,442,o),
(603,399,cs),
(603,250,o),
(515,36,o),
(318,36,cs)
);
},
{
closed = 1;
nodes = (
(115,418,o),
(203,632,o),
(400,632,cs),
(474,632,o),
(528,601,o),
(562,550,c),
(138,150,l),
(123,184,o),
(115,225,o),
(115,269,cs)
);
}
);
width = 681;
},
{
anchors = (
{
name = bottom;
pos = (325,0);
},
{
name = center;
pos = (396,334);
},
{
name = top;
pos = (455,668);
},
{
name = topleft;
pos = (105,668);
},
{
name = topright;
pos = (829,668);
}
);
layerId = m004;
shapes = (
{
closed = 1;
nodes = (
(595,-12,o),
(749,171,o),
(749,384,cs),
(749,453,o),
(730,512,o),
(696,560,c),
(765,624,l),
(712,680,l),
(642,615,l),
(588,657,o),
(515,680,o),
(430,680,cs),
(194,680,o),
(43,494,o),
(43,285,cs),
(43,216,o),
(62,156,o),
(97,108,c),
(26,42,l),
(78,-13,l),
(150,54,l),
(205,12,o),
(279,-12,o),
(364,-12,cs)
);
},
{
closed = 1;
nodes = (
(327,128,o),
(294,141,o),
(270,165,c),
(560,434,l),
(565,418,o),
(567,400,o),
(567,380,cs),
(567,284,o),
(511,128,o),
(370,128,cs)
);
},
{
closed = 1;
nodes = (
(225,388,o),
(282,540,o),
(423,540,cs),
(464,540,o),
(498,527,o),
(522,503,c),
(231,233,l),
(227,250,o),
(225,268,o),
(225,288,cs)
);
}
);
width = 756;
},
{
anchors = (
{
name = bottom;
pos = (306,0);
},
{
name = center;
pos = (377,334);
},
{
name = top;
pos = (437,668);
},
{
name = topleft;
pos = (103,668);
},
{
name = topright;
pos = (791,668);
}
);
guides = (
{
angle = 78;
pos = (63,334);
},
{
angle = 78;
pos = (82,334);
},
{
angle = 78;
pos = (670,334);
},
{
angle = 78;
pos = (689,334);
}
);
layerId = "685EC287-0A44-43F1-AA0E-B98846C13147";
shapes = (
{
closed = 1;
nodes = (
(554,-12,o),
(691,191,o),
(691,395,cs),
(691,459,o),
(676,513,o),
(651,556,c),
(737,637,l),
(700,673,l),
(620,597,l),
(569,652,o),
(496,680,o),
(413,680,cs),
(197,680,o),
(60,477,o),
(60,273,cs),
(60,208,o),
(75,153,o),
(102,109,c),
(18,30,l),
(53,-6,l),
(133,69,l),
(183,16,o),
(256,-12,o),
(338,-12,cs)
);
},
{
closed = 1;
nodes = (
(279,67,o),
(231,90,o),
(199,131,c),
(579,488,l),
(589,461,o),
(595,429,o),
(595,393,cs),
(595,260,o),
(515,67,o),
(339,67,cs)
);
},
{
closed = 1;
nodes = (
(156,408,o),
(236,601,o),
(412,601,cs),
(472,601,o),
(521,577,o),
(553,535,c),
(174,177,l),
(162,205,o),
(156,238,o),
(156,275,cs)
);
}
);
width = 714;
},
{
anchors = (
{
name = bottom;
pos = (323,0);
},
{
name = center;
pos = (394,334);
},
{
name = top;
pos = (453,668);
},
{
name = topleft;
pos = (106,668);
},
{
name = topright;
pos = (824,668);
}
);
guides = (
{
angle = 78;
pos = (48,334);
},
{
angle = 78;
pos = (90,334);
},
{
angle = 78;
pos = (698,334);
},
{
angle = 78;
pos = (740,334);
}
);
layerId = "FD063E2A-CA5A-4098-9599-3D7AAD1E2DEB";
shapes = (
{
closed = 1;
nodes = (
(593,-12,o),
(741,177,o),
(741,385,cs),
(741,453,o),
(723,512,o),
(690,559,c),
(760,625,l),
(709,679,l),
(639,613,l),
(585,656,o),
(513,680,o),
(428,680,cs),
(195,680,o),
(47,491,o),
(47,283,cs),
(47,215,o),
(66,155,o),
(99,108,c),
(28,42,l),
(79,-12,l),
(150,54,l),
(204,12,o),
(276,-12,o),
(360,-12,cs)
);
},
{
closed = 1;
nodes = (
(321,118,o),
(286,133,o),
(260,158,c),
(565,443,l),
(570,424,o),
(573,404,o),
(573,382,cs),
(573,277,o),
(513,118,o),
(366,118,cs)
);
},
{
closed = 1;
nodes = (
(215,391,o),
(275,550,o),
(422,550,cs),
(467,550,o),
(503,535,o),
(528,510,c),
(223,224,l),
(218,243,o),
(215,264,o),
(215,286,cs)
);
}
);
width = 752;
}
);
metricLeft = O;
metricRight = O;
unicode = 216;
},
{
glyphname = OE;
kernLeft = O;
kernRight = E;
lastChange = "2024-11-01 12:02:53 +0000";
layers = (
{
anchors = (
{
name = bottom;
pos = (444,0);
},
{
name = top;
pos = (586,668);
}
);
layerId = m003;
shapes = (
{
closed = 1;
nodes = (
(398,-12,o),
(470,34,o),
(520,101,c),
(499,0,l),
(890,0,l),
(901,50,l),
(567,50,l),
(624,318,l),
(888,318,l),
(898,369,l),
(634,369,l),
(687,618,l),
(1017,618,l),
(1028,668,l),
(641,668,l),
(609,518,l),
(583,617,o),
(512,680,o),
(394,680,cs),
(164,680,o),
(57,439,o),
(57,262,cs),
(57,105,o),
(143,-12,o),
(303,-12,cs)
);
},
{
closed = 1;
nodes = (
(176,40,o),
(115,138,o),
(115,265,cs),
(115,409,o),
(197,628,o),
(388,628,cs),
(518,628,o),
(575,531,o),
(575,407,cs),
(575,264,o),
(496,40,o),
(305,40,cs)
);
}
);
width = 983;
},
{
anchors = (
{
name = bottom;
pos = (469,0);
},
{
name = top;
pos = (611,668);
}
);
layerId = m004;
shapes = (
{
closed = 1;
nodes = (
(373,-12,o),
(422,1,o),
(464,23,c),
(459,0,l),
(947,0,l),
(979,150,l),
(649,150,l),
(674,269,l),
(856,269,l),
(888,418,l),
(706,418,l),
(727,518,l),
(1053,518,l),
(1085,668,l),
(601,668,l),
(592,626,l),
(551,661,o),
(494,680,o),
(421,680,cs),
(191,680,o),
(42,489,o),
(42,274,cs),
(42,105,o),
(148,-12,o),
(317,-12,cs)
);
},
{
closed = 1;
nodes = (
(271,128,o),
(222,179,o),
(222,274,cs),
(222,373,o),
(269,540,o),
(411,540,cs),
(498,540,o),
(537,487,o),
(537,402,cs),
(537,308,o),
(484,128,o),
(354,128,cs)
);
}
);
width = 1034;
},
{
anchors = (
{
name = bottom;
pos = (458,0);
},
{
name = top;
pos = (600,668);
}
);
layerId = "685EC287-0A44-43F1-AA0E-B98846C13147";
shapes = (
{
closed = 1;
nodes = (
(392,-12,o),
(455,17,o),
(504,63,c),
(491,0,l),
(914,0,l),
(931,81,l),
(598,81,l),
(645,303,l),
(885,303,l),
(902,384,l),
(663,384,l),
(706,587,l),
(1035,587,l),
(1052,668,l),
(633,668,l),
(612,569,l),
(576,639,o),
(509,680,o),
(409,680,cs),
(179,680,o),
(58,456,o),
(58,266,cs),
(58,105,o),
(151,-12,o),
(314,-12,cs)
);
},
{
closed = 1;
nodes = (
(214,67,o),
(154,152,o),
(154,268,cs),
(154,398,o),
(227,601,o),
(402,601,cs),
(517,601,o),
(568,516,o),
(568,405,cs),
(568,279,o),
(498,67,o),
(328,67,cs)
);
}
);
width = 1005;
},
{
anchors = (
{
name = bottom;
pos = (468,0);
},
{
name = top;
pos = (610,668);
}
);
layerId = "FD063E2A-CA5A-4098-9599-3D7AAD1E2DEB";
shapes = (
{
closed = 1;
nodes = (
(376,-12,o),
(427,3,o),
(471,27,c),
(465,0,l),
(942,0,l),
(972,139,l),
(642,139,l),
(670,274,l),
(861,274,l),
(891,413,l),
(700,413,l),
(724,529,l),
(1050,529,l),
(1080,668,l),
(607,668,l),
(597,619,l),
(556,659,o),
(497,680,o),
(420,680,cs),
(190,680,o),
(46,483,o),
(46,273,cs),
(46,105,o),
(150,-12,o),
(317,-12,cs)
);
},
{
closed = 1;
nodes = (
(263,118,o),
(212,175,o),
(212,273,cs),
(212,377,o),
(263,550,o),
(410,550,cs),
(502,550,o),
(543,492,o),
(543,402,cs),
(543,304,o),
(487,118,o),
(351,118,cs)
);
}
);
width = 1029;
}
);
metricLeft = O;
metricRight = E;
unicode = 338;
},
{
glyphname = P;
kernLeft = H;
kernRight = P;
lastChange = "2024-11-01 12:02:53 +0000";
layers = (
{
anchors = (
{
name = bottom;
pos = (227,0);
},
{
name = top;
pos = (369,668);
}
);
layerId = m003;
shapes = (
{
closed = 1;
nodes = (
(85,0,l),
(146,285,l),
(352,285,ls),
(481,285,o),
(577,367,o),
(577,500,cs),
(577,606,o),
(491,668,o),
(348,668,cs),
(171,668,l),
(29,0,l)
);
},
{
closed = 1;
nodes = (
(217,620,l),
(341,620,ls),
(456,620,o),
(520,579,o),
(520,498,cs),
(520,392,o),
(452,333,o),
(344,333,cs),
(156,333,l)
);
}
);
width = 559;
},
{
anchors = (
{
name = bottom;
pos = (283,0);
},
{
name = top;
pos = (425,668);
}
);
layerId = m004;
shapes = (
{
closed = 1;
nodes = (
(171,0,l),
(218,223,l),
(395,223,ls),
(558,223,o),
(671,319,o),
(671,472,cs),
(671,595,o),
(567,668,o),
(421,668,cs),
(143,668,l),
(1,0,l)
);
},
{
closed = 1;
nodes = (
(282,524,l),
(411,524,ls),
(458,524,o),
(491,499,o),
(491,457,cs),
(491,399,o),
(454,367,o),
(382,367,cs),
(249,367,l)
);
}
);
width = 647;
},
{
anchors = (
{
name = bottom;
pos = (251,0);
},
{
name = top;
pos = (393,668);
}
);
layerId = "685EC287-0A44-43F1-AA0E-B98846C13147";
shapes = (
{
closed = 1;
nodes = (
(119,0,l),
(176,266,l),
(371,266,ls),
(512,266,o),
(614,351,o),
(614,491,cs),
(614,602,o),
(522,668,o),
(378,668,cs),
(167,668,l),
(25,0,l)
);
},
{
closed = 1;
nodes = (
(244,587,l),
(369,587,ls),
(462,587,o),
(515,552,o),
(515,484,cs),
(515,394,o),
(458,347,o),
(362,347,cs),
(193,347,l)
);
}
);
width = 592;
},
{
anchors = (
{
name = bottom;
pos = (276,0);
},
{
name = top;
pos = (418,668);
}
);
layerId = "FD063E2A-CA5A-4098-9599-3D7AAD1E2DEB";
shapes = (
{
closed = 1;
nodes = (
(161,0,l),
(210,230,l),
(389,230,ls),
(549,230,o),
(660,324,o),
(660,475,cs),
(660,596,o),
(558,668,o),
(412,668,cs),
(145,668,l),
(3,0,l)
);
},
{
closed = 1;
nodes = (
(275,534,l),
(402,534,ls),
(457,534,o),
(493,508,o),
(493,461,cs),
(493,398,o),
(453,364,o),
(377,364,cs),
(238,364,l)
);
}
);
width = 637;
}
);
metricLeft = H;
unicode = 80;
},
{
glyphname = Thorn;
kernLeft = H;
kernRight = Thorn;
lastChange = "2024-11-01 12:02:53 +0000";
layers = (
{
anchors = (
{
name = bottom;
pos = (207,0);
},
{
name = top;
pos = (349,668);
}
);
layerId = m003;
shapes = (
{
closed = 1;
nodes = (
(85,0,l),
(116,148,l),
(323,148,ls),
(452,148,o),
(548,230,o),
(548,363,cs),
(548,469,o),
(462,531,o),
(319,531,cs),
(198,531,l),
(227,668,l),
(171,668,l),
(29,0,l)
);
},
{
closed = 1;
nodes = (
(188,483,l),
(312,483,ls),
(427,483,o),
(491,442,o),
(491,361,cs),
(491,255,o),
(423,196,o),
(315,196,cs),
(127,196,l)
);
}
);
width = 559;
},
{
anchors = (
{
name = bottom;
pos = (279,0);
},
{
name = top;
pos = (421,668);
}
);
layerId = m004;
shapes = (
{
closed = 1;
nodes = (
(171,0,l),
(196,119,l),
(373,119,ls),
(537,119,o),
(649,215,o),
(649,368,cs),
(649,491,o),
(545,564,o),
(399,564,cs),
(291,564,l),
(313,668,l),
(143,668,l),
(1,0,l)
);
},
{
closed = 1;
nodes = (
(260,420,l),
(389,420,ls),
(434,420,o),
(469,395,o),
(469,352,cs),
(469,294,o),
(430,263,o),
(361,263,cs),
(227,263,l)
);
}
);
width = 647;
},
{
anchors = (
{
name = bottom;
pos = (236,0);
},
{
name = top;
pos = (378,668);
}
);
layerId = "685EC287-0A44-43F1-AA0E-B98846C13147";
shapes = (
{
closed = 1;
nodes = (
(119,0,l),
(149,139,l),
(345,139,ls),
(486,139,o),
(587,225,o),
(587,365,cs),
(587,477,o),
(495,541,o),
(351,541,cs),
(234,541,l),
(261,668,l),
(167,668,l),
(25,0,l)
);
},
{
closed = 1;
nodes = (
(217,460,l),
(343,460,ls),
(434,460,o),
(488,426,o),
(488,358,cs),
(488,268,o),
(430,220,o),
(335,220,cs),
(166,220,l)
);
}
);
width = 592;
},
{
anchors = (
{
name = bottom;
pos = (270,0);
},
{
name = top;
pos = (412,668);
}
);
layerId = "FD063E2A-CA5A-4098-9599-3D7AAD1E2DEB";
shapes = (
{
closed = 1;
nodes = (
(161,0,l),
(187,122,l),
(366,122,ls),
(527,122,o),
(637,217,o),
(637,368,cs),
(637,489,o),
(535,560,o),
(389,560,cs),
(280,560,l),
(303,668,l),
(145,668,l),
(3,0,l)
);
},
{
closed = 1;
nodes = (
(252,426,l),
(380,426,ls),
(432,426,o),
(470,400,o),
(470,353,cs),
(470,290,o),
(428,256,o),
(355,256,cs),
(215,256,l)
);
}
);
width = 637;
}
);
metricLeft = H;
metricRight = P;
unicode = 222;
},
{
glyphname = Q;
kernLeft = O;
kernRight = O;
lastChange = "2024-11-01 12:02:53 +0000";
layers = (
{
layerId = m003;
shapes = (
{
closed = 1;
nodes = (
(397,-12,o),
(466,18,o),
(521,66,c),
(609,-35,l),
(649,-1,l),
(557,104,l),
(624,184,o),
(660,294,o),
(660,401,cs),
(660,562,o),
(567,680,o),
(402,680,cs),
(186,680,o),
(58,468,o),
(58,267,cs),
(58,106,o),
(151,-12,o),
(316,-12,cs)
);
},
{
closed = 1;
nodes = (
(186,36,o),
(115,135,o),
(115,269,cs),
(115,418,o),
(203,632,o),
(400,632,cs),
(532,632,o),
(603,533,o),
(603,399,cs),
(603,318,o),
(577,219,o),
(522,144,c),
(374,315,l),
(334,280,l),
(487,104,l),
(444,63,o),
(388,36,o),
(318,36,cs)
);
}
);
width = 694;
},
{
layerId = m004;
shapes = (
{
closed = 1;
nodes = (
(436,-12,o),
(501,6,o),
(556,37,c),
(632,-52,l),
(728,31,l),
(653,118,l),
(714,189,o),
(749,283,o),
(749,384,cs),
(749,562,o),
(621,680,o),
(430,680,cs),
(194,680,o),
(43,494,o),
(43,285,cs),
(43,105,o),
(174,-12,o),
(364,-12,cs)
);
},
{
closed = 1;
nodes = (
(275,128,o),
(225,194,o),
(225,288,cs),
(225,388,o),
(282,540,o),
(423,540,cs),
(513,540,o),
(567,476,o),
(567,380,cs),
(567,342,o),
(558,294,o),
(539,251,c),
(438,368,l),
(343,287,l),
(458,152,l),
(433,137,o),
(404,128,o),
(370,128,cs)
);
}
);
width = 766;
},
{
layerId = "685EC287-0A44-43F1-AA0E-B98846C13147";
shapes = (
{
closed = 1;
nodes = (
(417,-12,o),
(485,15,o),
(540,59,c),
(623,-44,l),
(691,14,l),
(602,124,l),
(659,199,o),
(691,297,o),
(691,395,cs),
(691,580,o),
(569,680,o),
(413,680,cs),
(197,680,o),
(60,477,o),
(60,273,cs),
(60,88,o),
(182,-12,o),
(338,-12,cs)
);
},
{
closed = 1;
nodes = (
(228,67,o),
(156,148,o),
(156,275,cs),
(156,408,o),
(236,601,o),
(412,601,cs),
(523,601,o),
(595,520,o),
(595,393,cs),
(595,332,o),
(578,259,o),
(543,197,c),
(411,360,l),
(343,302,l),
(487,125,l),
(448,90,o),
(399,67,o),
(339,67,cs)
);
}
);
width = 724;
},
{
layerId = "FD063E2A-CA5A-4098-9599-3D7AAD1E2DEB";
shapes = (
{
closed = 1;
nodes = (
(432,-12,o),
(496,6,o),
(550,37,c),
(626,-55,l),
(718,24,l),
(643,115,l),
(706,187,o),
(741,284,o),
(741,385,cs),
(741,563,o),
(615,680,o),
(428,680,cs),
(195,680,o),
(47,491,o),
(47,283,cs),
(47,105,o),
(173,-12,o),
(360,-12,cs)
);
},
{
closed = 1;
nodes = (
(267,118,o),
(215,188,o),
(215,286,cs),
(215,391,o),
(275,550,o),
(422,550,cs),
(521,550,o),
(573,480,o),
(573,382,cs),
(573,339,o),
(563,286,o),
(541,240,c),
(435,368,l),
(343,289,l),
(461,145,l),
(435,128,o),
(403,118,o),
(366,118,cs)
);
}
);
width = 764;
}
);
metricLeft = O;
unicode = 81;
},
{
glyphname = R;
kernLeft = H;
kernRight = R;
lastChange = "2024-11-01 12:02:53 +0000";
layers = (
{
anchors = (
{
name = bottom;
pos = (232,0);
},
{
name = top;
pos = (350,668);
}
);
layerId = m003;
shapes = (
{
closed = 1;
nodes = (
(85,0,l),
(147,291,l),
(272,291,l),
(429,0,l),
(494,0,l),
(332,293,l),
(366,293,ls),
(493,293,o),
(586,372,o),
(586,504,cs),
(586,608,o),
(502,668,o),
(362,668,cs),
(171,668,l),
(29,0,l)
);
},
{
closed = 1;
nodes = (
(217,620,l),
(353,620,ls),
(466,620,o),
(528,580,o),
(528,499,cs),
(528,396,o),
(460,339,o),
(359,339,cs),
(157,339,l)
);
}
);
width = 583;
},
{
anchors = (
{
name = bottom;
pos = (294,0);
},
{
name = top;
pos = (412,668);
}
);
layerId = m004;
shapes = (
{
closed = 1;
nodes = (
(171,0,l),
(223,245,l),
(296,245,l),
(424,0,l),
(608,0,l),
(469,252,l),
(469,252,l),
(590,272,o),
(671,356,o),
(671,485,cs),
(671,600,o),
(574,668,o),
(436,668,cs),
(143,668,l),
(1,0,l)
);
},
{
closed = 1;
nodes = (
(282,524,l),
(423,524,ls),
(462,524,o),
(492,503,o),
(492,465,cs),
(492,413,o),
(456,389,o),
(400,389,cs),
(254,389,l)
);
}
);
width = 668;
},
{
anchors = (
{
name = bottom;
pos = (258,0);
},
{
name = top;
pos = (376,668);
}
);
layerId = "685EC287-0A44-43F1-AA0E-B98846C13147";
shapes = (
{
closed = 1;
nodes = (
(119,0,l),
(178,277,l),
(283,277,l),
(428,0,l),
(535,0,l),
(383,279,l),
(386,279,ls),
(545,279,o),
(620,382,o),
(620,498,cs),
(620,605,o),
(531,668,o),
(392,668,cs),
(167,668,l),
(25,0,l)
);
},
{
closed = 1;
nodes = (
(244,587,l),
(381,587,ls),
(469,587,o),
(521,554,o),
(521,488,cs),
(521,402,o),
(463,358,o),
(378,358,cs),
(195,358,l)
);
}
);
width = 614;
},
{
anchors = (
{
name = bottom;
pos = (286,0);
},
{
name = top;
pos = (404,668);
}
);
layerId = "FD063E2A-CA5A-4098-9599-3D7AAD1E2DEB";
shapes = (
{
closed = 1;
nodes = (
(161,0,l),
(214,250,l),
(291,250,l),
(423,0,l),
(595,0,l),
(454,255,l),
(454,255,l),
(577,273,o),
(661,357,o),
(661,487,cs),
(661,601,o),
(565,668,o),
(427,668,cs),
(145,668,l),
(3,0,l)
);
},
{
closed = 1;
nodes = (
(274,534,l),
(414,534,ls),
(461,534,o),
(495,511,o),
(495,469,cs),
(495,411,o),
(455,384,o),
(395,384,cs),
(242,384,l)
);
}
);
width = 658;
}
);
metricLeft = H;
unicode = 82;
},
{
glyphname = S;
kernLeft = S;
kernRight = S;
lastChange = "2024-11-01 12:02:53 +0000";
layers = (
{
anchors = (
{
name = bottom;
pos = (266,0);
},
{
name = top;
pos = (370,668);
}
);
layerId = m003;
shapes = (
{
closed = 1;
nodes = (
(402,-12,o),
(521,67,o),
(521,195,cs),
(521,284,o),
(448,327,o),
(363,360,cs),
(273,394,ls),
(220,414,o),
(175,448,o),
(175,499,cs),
(175,582,o),
(257,632,o),
(344,632,cs),
(410,632,o),
(483,600,o),
(508,542,c),
(564,562,l),
(529,642,o),
(441,680,o),
(350,680,cs),
(229,680,o),
(118,608,o),
(118,495,cs),
(118,412,o),
(186,367,o),
(251,343,cs),
(339,310,ls),
(433,274,o),
(465,239,o),
(465,191,cs),
(465,94,o),
(375,36,o),
(272,36,cs),
(183,36,o),
(103,80,o),
(87,162,c),
(32,143,l),
(53,44,o),
(157,-12,o),
(266,-12,cs)
);
}
);
width = 580;
},
{
anchors = (
{
name = bottom;
pos = (295,0);
},
{
name = top;
pos = (399,668);
}
);
layerId = m004;
shapes = (
{
closed = 1;
nodes = (
(454,-12,o),
(590,77,o),
(590,221,cs),
(590,326,o),
(490,371,o),
(398,401,cs),
(315,428,ls),
(274,441,o),
(255,460,o),
(255,485,cs),
(255,528,o),
(301,544,o),
(346,544,cs),
(404,544,o),
(458,524,o),
(474,474,c),
(629,527,l),
(598,631,o),
(491,680,o),
(374,680,cs),
(225,680,o),
(82,603,o),
(82,460,cs),
(82,373,o),
(154,317,o),
(247,287,cs),
(321,263,ls),
(383,243,o),
(415,225,o),
(415,192,cs),
(415,142,o),
(367,124,o),
(316,124,cs),
(246,124,o),
(182,154,o),
(169,215,c),
(13,164,l),
(47,42,o),
(164,-12,o),
(295,-12,cs)
);
}
);
width = 618;
},
{
anchors = (
{
name = bottom;
pos = (275,0);
},
{
name = top;
pos = (379,668);
}
);
layerId = "685EC287-0A44-43F1-AA0E-B98846C13147";
shapes = (
{
closed = 1;
nodes = (
(418,-12,o),
(543,70,o),
(543,204,cs),
(543,298,o),
(461,342,o),
(374,374,cs),
(286,405,ls),
(236,423,o),
(198,452,o),
(198,494,cs),
(198,564,o),
(270,601,o),
(344,601,cs),
(409,601,o),
(476,574,o),
(498,520,c),
(584,549,l),
(550,638,o),
(457,680,o),
(357,680,cs),
(226,680,o),
(105,606,o),
(105,483,cs),
(105,399,o),
(174,350,o),
(248,324,cs),
(332,294,ls),
(416,264,o),
(449,234,o),
(449,191,cs),
(449,110,o),
(373,67,o),
(286,67,cs),
(203,67,o),
(127,105,o),
(113,180,c),
(27,151,l),
(51,43,o),
(158,-12,o),
(275,-12,cs)
);
}
);
width = 592;
},
{
anchors = (
{
name = bottom;
pos = (292,0);
},
{
name = top;
pos = (396,668);
}
);
layerId = "FD063E2A-CA5A-4098-9599-3D7AAD1E2DEB";
shapes = (
{
closed = 1;
nodes = (
(448,-12,o),
(582,76,o),
(582,218,cs),
(582,321,o),
(485,366,o),
(394,397,cs),
(310,424,ls),
(266,438,o),
(244,459,o),
(244,487,cs),
(244,534,o),
(294,553,o),
(346,553,cs),
(405,553,o),
(461,532,o),
(479,481,c),
(621,530,l),
(589,632,o),
(485,680,o),
(371,680,cs),
(225,680,o),
(86,603,o),
(86,464,cs),
(86,377,o),
(157,323,o),
(247,293,cs),
(323,268,ls),
(391,246,o),
(423,227,o),
(423,192,cs),
(423,137,o),
(370,115,o),
(311,115,cs),
(239,115,o),
(173,146,o),
(160,209,c),
(14,162,l),
(48,42,o),
(163,-12,o),
(292,-12,cs)
);
}
);
width = 614;
}
);
unicode = 83;
},
{
glyphname = Scedilla;
kernLeft = S;
kernRight = S;
lastChange = "2024-11-01 12:02:53 +0000";
layers = (
{
anchors = (
{
name = top;
pos = (370,668);
}
);
layerId = m003;
shapes = (
{
closed = 1;
nodes = (
(283,-177,o),
(323,-144,o),
(323,-97,cs),
(323,-68,o),
(299,-44,o),
(263,-44,cs),
(256,-44,o),
(249,-45,o),
(242,-47,c),
(272,-12,l),
(406,-9,o),
(521,69,o),
(521,195,cs),
(521,284,o),
(448,327,o),
(363,360,cs),
(273,394,ls),
(220,414,o),
(175,448,o),
(175,499,cs),
(175,582,o),
(257,632,o),
(344,632,cs),
(410,632,o),
(483,600,o),
(508,542,c),
(564,562,l),
(529,642,o),
(441,680,o),
(350,680,cs),
(229,680,o),
(118,608,o),
(118,495,cs),
(118,412,o),
(186,367,o),
(251,343,cs),
(339,310,ls),
(433,274,o),
(465,239,o),
(465,191,cs),
(465,94,o),
(375,36,o),
(272,36,cs),
(183,36,o),
(103,80,o),
(87,162,c),
(32,143,l),
(51,53,o),
(138,-1,o),
(236,-11,c),
(202,-52,ls),
(191,-65,o),
(192,-79,o),
(210,-79,cs),
(217,-79,o),
(229,-77,o),
(237,-77,cs),
(261,-77,o),
(279,-85,o),
(279,-106,cs),
(279,-127,o),
(259,-145,o),
(229,-145,cs),
(213,-145,o),
(193,-141,o),
(166,-123,c),
(148,-147,l),
(175,-167,o),
(201,-177,o),
(231,-177,cs)
);
}
);
width = 580;
},
{
anchors = (
{
name = top;
pos = (399,668);
}
);
layerId = m004;
shapes = (
{
closed = 1;
nodes = (
(336,-188,o),
(393,-166,o),
(393,-108,cs),
(393,-67,o),
(348,-46,o),
(300,-46,cs),
(296,-46,o),
(290,-46,o),
(285,-47,c),
(314,-12,l),
(465,-5,o),
(590,83,o),
(590,221,cs),
(590,326,o),
(490,371,o),
(398,401,cs),
(315,428,ls),
(274,441,o),
(255,460,o),
(255,485,cs),
(255,528,o),
(301,544,o),
(346,544,cs),
(404,544,o),
(458,524,o),
(474,474,c),
(629,527,l),
(598,631,o),
(491,680,o),
(374,680,cs),
(225,680,o),
(82,603,o),
(82,460,cs),
(82,373,o),
(154,317,o),
(247,287,cs),
(321,263,ls),
(383,243,o),
(415,225,o),
(415,192,cs),
(415,142,o),
(367,124,o),
(316,124,cs),
(246,124,o),
(182,154,o),
(169,215,c),
(13,164,l),
(44,54,o),
(142,-1,o),
(256,-10,c),
(221,-53,ls),
(207,-70,o),
(213,-92,o),
(239,-87,cs),
(245,-86,o),
(253,-85,o),
(264,-85,cs),
(281,-85,o),
(293,-95,o),
(293,-108,cs),
(293,-127,o),
(276,-136,o),
(257,-136,cs),
(230,-136,o),
(200,-125,o),
(189,-118,c),
(163,-168,l),
(190,-179,o),
(230,-188,o),
(272,-188,cs)
);
}
);
width = 618;
},
{
anchors = (
{
name = top;
pos = (379,668);
}
);
layerId = "685EC287-0A44-43F1-AA0E-B98846C13147";
shapes = (
{
closed = 1;
nodes = (
(299,-183,o),
(345,-151,o),
(345,-100,cs),
(345,-60,o),
(316,-42,o),
(277,-42,cs),
(273,-42,o),
(266,-42,o),
(258,-43,c),
(285,-12,l),
(424,-8,o),
(543,73,o),
(543,204,cs),
(543,298,o),
(461,342,o),
(374,374,cs),
(286,405,ls),
(236,423,o),
(198,452,o),
(198,494,cs),
(198,564,o),
(270,601,o),
(344,601,cs),
(409,601,o),
(476,574,o),
(498,520,c),
(584,549,l),
(550,638,o),
(457,680,o),
(357,680,cs),
(226,680,o),
(105,606,o),
(105,483,cs),
(105,399,o),
(174,350,o),
(248,324,cs),
(332,294,ls),
(416,264,o),
(449,234,o),
(449,191,cs),
(449,110,o),
(373,67,o),
(286,67,cs),
(203,67,o),
(127,105,o),
(113,180,c),
(27,151,l),
(49,55,o),
(135,1,o),
(236,-10,c),
(202,-50,ls),
(191,-61,o),
(195,-83,o),
(219,-78,cs),
(225,-77,o),
(234,-76,o),
(240,-76,cs),
(264,-76,o),
(285,-86,o),
(285,-105,cs),
(285,-128,o),
(261,-142,o),
(235,-142,cs),
(210,-142,o),
(193,-133,o),
(173,-121,c),
(152,-154,l),
(179,-170,o),
(207,-183,o),
(246,-183,cs)
);
}
);
width = 592;
},
{
anchors = (
{
name = top;
pos = (396,668);
}
);
layerId = "FD063E2A-CA5A-4098-9599-3D7AAD1E2DEB";
shapes = (
{
closed = 1;
nodes = (
(331,-187,o),
(386,-164,o),
(386,-107,cs),
(386,-69,o),
(348,-46,o),
(296,-46,cs),
(292,-46,o),
(286,-46,o),
(281,-47,c),
(310,-12,l),
(458,-5,o),
(582,82,o),
(582,218,cs),
(582,321,o),
(485,366,o),
(394,397,cs),
(310,424,ls),
(266,438,o),
(244,459,o),
(244,487,cs),
(244,534,o),
(294,553,o),
(346,553,cs),
(405,553,o),
(462,532,o),
(479,481,c),
(621,531,l),
(589,632,o),
(485,680,o),
(371,680,cs),
(225,680,o),
(86,603,o),
(86,464,cs),
(86,377,o),
(157,323,o),
(247,293,cs),
(323,268,ls),
(391,246,o),
(423,227,o),
(423,192,cs),
(423,137,o),
(370,115,o),
(311,115,cs),
(239,115,o),
(173,146,o),
(160,209,c),
(14,162,l),
(44,54,o),
(141,-1,o),
(254,-10,c),
(219,-53,ls),
(206,-70,o),
(211,-91,o),
(236,-86,cs),
(242,-85,o),
(251,-84,o),
(261,-84,cs),
(279,-84,o),
(292,-94,o),
(292,-108,cs),
(292,-127,o),
(275,-137,o),
(250,-137,cs),
(228,-137,o),
(200,-127,o),
(187,-118,c),
(162,-166,l),
(189,-178,o),
(227,-187,o),
(268,-187,cs)
);
}
);
width = 614;
}
);
metricLeft = S;
metricRight = S;
unicode = 350;
},
{
glyphname = Germandbls;
kernLeft = H;
kernRight = Germandbls;
lastChange = "2024-11-01 12:02:53 +0000";
layers = (
{
layerId = m003;
shapes = (
{
closed = 1;
nodes = (
(500,-12,o),
(579,85,o),
(579,199,cs),
(579,292,o),
(513,347,o),
(436,348,c),
(647,584,l),
(658,634,l),
(545,663,o),
(455,680,o),
(375,680,cs),
(230,680,o),
(156,607,o),
(128,473,cs),
(28,0,l),
(84,0,l),
(183,468,ls),
(207,580,o),
(261,632,o),
(369,632,cs),
(436,632,o),
(514,621,o),
(598,601,c),
(362,339,l),
(380,296,l),
(394,299,o),
(405,300,o),
(417,300,cs),
(473,300,o),
(525,267,o),
(525,195,cs),
(525,112,o),
(470,38,o),
(387,38,cs),
(325,38,o),
(287,66,o),
(279,119,c),
(230,102,l),
(242,32,o),
(296,-12,o),
(381,-12,cs)
);
}
);
width = 631;
},
{
layerId = m004;
shapes = (
{
closed = 1;
nodes = (
(554,-12,o),
(665,87,o),
(665,213,cs),
(665,299,o),
(613,350,o),
(542,369,c),
(669,507,l),
(696,636,l),
(545,676,o),
(458,680,o),
(386,680,cs),
(202,680,o),
(128,603,o),
(101,475,cs),
(0,0,l),
(170,0,l),
(259,419,ls),
(276,498,o),
(323,550,o),
(418,550,cs),
(454,550,o),
(491,546,o),
(529,539,c),
(370,368,l),
(404,270,l),
(415,272,o),
(426,273,o),
(436,273,cs),
(476,273,o),
(501,249,o),
(501,211,cs),
(501,172,o),
(479,120,o),
(424,120,cs),
(394,120,o),
(375,134,o),
(367,158,c),
(235,113,l),
(260,31,o),
(335,-12,o),
(427,-12,cs)
);
}
);
width = 695;
},
{
layerId = "685EC287-0A44-43F1-AA0E-B98846C13147";
shapes = (
{
closed = 1;
nodes = (
(523,-12,o),
(613,86,o),
(613,204,cs),
(613,295,o),
(552,347,o),
(476,356,c),
(660,558,l),
(676,635,l),
(550,668,o),
(461,680,o),
(384,680,cs),
(226,680,o),
(152,605,o),
(124,474,cs),
(24,0,l),
(118,0,l),
(214,451,ls),
(236,553,o),
(287,606,o),
(391,606,cs),
(449,606,o),
(514,597,o),
(583,582,c),
(370,349,l),
(393,288,l),
(406,291,o),
(417,292,o),
(428,292,cs),
(481,292,o),
(523,262,o),
(523,201,cs),
(523,129,o),
(478,63,o),
(404,63,cs),
(354,63,o),
(321,89,o),
(312,131,c),
(238,106,l),
(254,32,o),
(314,-12,o),
(401,-12,cs)
);
}
);
width = 659;
},
{
layerId = "FD063E2A-CA5A-4098-9599-3D7AAD1E2DEB";
shapes = (
{
closed = 1;
nodes = (
(545,-12,o),
(653,87,o),
(653,211,cs),
(653,297,o),
(600,349,o),
(528,367,c),
(664,515,l),
(689,636,l),
(542,675,o),
(457,680,o),
(384,680,cs),
(204,680,o),
(130,603,o),
(103,475,cs),
(2,0,l),
(160,0,l),
(250,424,ls),
(268,507,o),
(315,559,o),
(412,559,cs),
(451,559,o),
(492,555,o),
(534,547,c),
(366,365,l),
(398,273,l),
(410,275,o),
(421,276,o),
(431,276,cs),
(475,276,o),
(501,253,o),
(501,210,cs),
(501,166,o),
(475,111,o),
(417,111,cs),
(383,111,o),
(362,127,o),
(355,154,c),
(230,112,l),
(253,31,o),
(325,-12,o),
(419,-12,cs)
);
}
);
width = 687;
}
);
metricLeft = U;
metricRight = B;
unicode = 7838;
},
{
glyphname = T;
kernLeft = T;
kernRight = T;
lastChange = "2024-11-01 12:02:53 +0000";
layers = (
{
anchors = (
{
name = bottom;
pos = (210,0);
},
{
name = center;
pos = (279,334);
},
{
name = top;
pos = (350,668);
}
);
guides = (
{
angle = 258;
pos = (246,310);
},
{
angle = 78;
pos = (302,310);
},
{
angle = 78;
pos = (274,310);
}
);
layerId = m003;
shapes = (
{
closed = 1;
nodes = (
(236,0,l),
(368,620,l),
(593,620,l),
(603,668,l),
(97,668,l),
(87,620,l),
(312,620,l),
(180,0,l)
);
}
);
width = 522;
},
{
anchors = (
{
name = bottom;
pos = (262,0);
},
{
name = center;
pos = (332,334);
},
{
name = top;
pos = (403,668);
}
);
guides = (
{
angle = 258;
pos = (238,310);
},
{
angle = 78;
pos = (416,310);
},
{
angle = 78;
pos = (327,310);
}
);
layerId = m004;
shapes = (
{
closed = 1;
nodes = (
(346,0,l),
(456,518,l),
(669,518,l),
(701,668,l),
(105,668,l),
(73,518,l),
(286,518,l),
(176,0,l)
);
}
);
width = 628;
},
{
anchors = (
{
name = bottom;
pos = (228,0);
},
{
name = center;
pos = (298,334);
},
{
name = top;
pos = (369,668);
}
);
layerId = "685EC287-0A44-43F1-AA0E-B98846C13147";
shapes = (
{
closed = 1;
nodes = (
(273,0,l),
(398,587,l),
(620,587,l),
(637,668,l),
(99,668,l),
(82,587,l),
(304,587,l),
(179,0,l)
);
}
);
width = 558;
},
{
anchors = (
{
name = bottom;
pos = (257,0);
},
{
name = center;
pos = (328,334);
},
{
name = top;
pos = (399,668);
}
);
layerId = "FD063E2A-CA5A-4098-9599-3D7AAD1E2DEB";
shapes = (
{
closed = 1;
nodes = (
(336,0,l),
(448,529,l),
(663,529,l),
(693,668,l),
(105,668,l),
(75,529,l),
(290,529,l),
(178,0,l)
);
}
);
width = 619;
}
);
metricRight = "=|";
unicode = 84;
},
{
glyphname = Tcedilla;
kernLeft = T;
kernRight = T;
lastChange = "2024-11-01 12:02:53 +0000";
layers = (
{
anchors = (
{
name = center;
pos = (279,334);
},
{
name = top;
pos = (350,668);
}
);
layerId = m003;
shapes = (
{
closed = 1;
nodes = (
(189,0,l),
(146,-52,ls),
(135,-65,o),
(136,-79,o),
(154,-79,cs),
(161,-79,o),
(173,-77,o),
(181,-77,cs),
(205,-77,o),
(223,-85,o),
(223,-106,cs),
(223,-127,o),
(203,-145,o),
(173,-145,cs),
(157,-145,o),
(137,-141,o),
(110,-123,c),
(92,-147,l),
(119,-167,o),
(145,-177,o),
(175,-177,cs),
(227,-177,o),
(267,-144,o),
(267,-97,cs),
(267,-68,o),
(243,-44,o),
(207,-44,cs),
(200,-44,o),
(193,-45,o),
(186,-47,c),
(227,0,l),
(236,0,l),
(368,620,l),
(593,620,l),
(603,668,l),
(97,668,l),
(87,620,l),
(312,620,l),
(180,0,l)
);
}
);
width = 522;
},
{
anchors = (
{
name = center;
pos = (332,334);
},
{
name = top;
pos = (403,668);
}
);
layerId = m004;
shapes = (
{
closed = 1;
nodes = (
(234,0,l),
(190,-53,ls),
(176,-70,o),
(182,-92,o),
(208,-87,cs),
(214,-86,o),
(222,-85,o),
(233,-85,cs),
(250,-85,o),
(262,-95,o),
(262,-108,cs),
(262,-127,o),
(245,-136,o),
(226,-136,cs),
(199,-136,o),
(169,-125,o),
(158,-118,c),
(132,-168,l),
(159,-179,o),
(199,-188,o),
(241,-188,cs),
(305,-188,o),
(362,-166,o),
(362,-108,cs),
(362,-67,o),
(317,-46,o),
(269,-46,cs),
(265,-46,o),
(259,-46,o),
(254,-47,c),
(293,0,l),
(346,0,l),
(456,518,l),
(669,518,l),
(701,668,l),
(105,668,l),
(73,518,l),
(286,518,l),
(176,0,l)
);
}
);
width = 628;
},
{
anchors = (
{
name = center;
pos = (298,334);
},
{
name = top;
pos = (369,668);
}
);
layerId = "685EC287-0A44-43F1-AA0E-B98846C13147";
shapes = (
{
closed = 1;
nodes = (
(201,0,l),
(158,-50,ls),
(147,-61,o),
(151,-83,o),
(175,-78,cs),
(181,-77,o),
(190,-76,o),
(196,-76,cs),
(220,-76,o),
(241,-86,o),
(241,-105,cs),
(241,-128,o),
(217,-142,o),
(191,-142,cs),
(166,-142,o),
(149,-133,o),
(129,-121,c),
(108,-154,l),
(135,-170,o),
(163,-183,o),
(202,-183,cs),
(255,-183,o),
(301,-151,o),
(301,-100,cs),
(301,-60,o),
(272,-42,o),
(233,-42,cs),
(229,-42,o),
(222,-42,o),
(214,-43,c),
(251,0,l),
(273,0,l),
(398,587,l),
(620,587,l),
(637,668,l),
(99,668,l),
(82,587,l),
(304,587,l),
(179,0,l)
);
}
);
width = 558;
},
{
anchors = (
{
name = center;
pos = (328,334);
},
{
name = top;
pos = (399,668);
}
);
layerId = "FD063E2A-CA5A-4098-9599-3D7AAD1E2DEB";
shapes = (
{
closed = 1;
nodes = (
(230,0,l),
(186,-53,ls),
(173,-70,o),
(178,-91,o),
(203,-86,cs),
(209,-85,o),
(218,-84,o),
(228,-84,cs),
(246,-84,o),
(259,-94,o),
(259,-108,cs),
(259,-127,o),
(242,-137,o),
(217,-137,cs),
(195,-137,o),
(167,-127,o),
(154,-118,c),
(129,-166,l),
(156,-178,o),
(194,-187,o),
(235,-187,cs),
(298,-187,o),
(353,-164,o),
(353,-107,cs),
(353,-69,o),
(315,-46,o),
(263,-46,cs),
(259,-46,o),
(253,-46,o),
(248,-47,c),
(287,0,l),
(336,0,l),
(448,529,l),
(663,529,l),
(693,668,l),
(105,668,l),
(75,529,l),
(290,529,l),
(178,0,l)
);
}
);
width = 619;
}
);
unicode = 354;
},
{
glyphname = U;
kernLeft = U;
kernRight = U;
lastChange = "2024-11-01 12:02:53 +0000";
layers = (
{
anchors = (
{
name = bottom;
pos = (283,0);
},
{
name = ogonek;
pos = (475,10);
},
{
name = top;
pos = (426,668);
},
{
name = topright;
pos = (756,668);
}
);
layerId = m003;
shapes = (
{
closed = 1;
nodes = (
(472,-12,o),
(554,73,o),
(591,245,cs),
(682,668,l),
(626,668,l),
(536,246,ls),
(506,104,o),
(437,36,o),
(321,36,cs),
(165,36,o),
(110,123,o),
(145,288,cs),
(226,668,l),
(170,668,l),
(91,299,ls),
(46,91,o),
(126,-12,o),
(324,-12,cs)
);
}
);
width = 673;
},
{
anchors = (
{
name = bottom;
pos = (293,0);
},
{
name = ogonek;
pos = (531,10);
},
{
name = top;
pos = (434,668);
},
{
name = topright;
pos = (743,668);
}
);
layerId = m004;
shapes = (
{
closed = 1;
nodes = (
(517,-12,o),
(601,79,o),
(640,264,cs),
(725,668,l),
(555,668,l),
(471,268,ls),
(452,179,o),
(424,126,o),
(343,126,cs),
(243,126,o),
(209,170,o),
(231,277,cs),
(313,668,l),
(143,668,l),
(67,313,ls),
(7,35,o),
(176,-12,o),
(335,-12,cs)
);
}
);
width = 690;
},
{
anchors = (
{
name = bottom;
pos = (292,0);
},
{
name = ogonek;
pos = (500,10);
},
{
name = top;
pos = (434,668);
},
{
name = topright;
pos = (757,668);
}
);
layerId = "685EC287-0A44-43F1-AA0E-B98846C13147";
shapes = (
{
closed = 1;
nodes = (
(493,-12,o),
(576,75,o),
(614,251,cs),
(703,668,l),
(609,668,l),
(521,254,ls),
(495,130,o),
(438,69,o),
(334,69,cs),
(197,69,o),
(149,140,o),
(179,284,cs),
(260,668,l),
(166,668,l),
(88,304,ls),
(37,72,o),
(148,-12,o),
(333,-12,cs)
);
}
);
width = 690;
},
{
anchors = (
{
name = bottom;
pos = (290,0);
},
{
name = ogonek;
pos = (523,10);
},
{
name = top;
pos = (431,668);
},
{
name = topright;
pos = (742,668);
}
);
layerId = "FD063E2A-CA5A-4098-9599-3D7AAD1E2DEB";
shapes = (
{
closed = 1;
nodes = (
(510,-12,o),
(594,78,o),
(633,262,cs),
(719,668,l),
(561,668,l),
(476,266,ls),
(456,171,o),
(423,117,o),
(339,117,cs),
(232,117,o),
(196,165,o),
(220,278,cs),
(302,668,l),
(144,668,l),
(68,311,ls),
(9,41,o),
(168,-12,o),
(332,-12,cs)
);
}
);
width = 685;
}
);
metricLeft = "=H*0.98";
metricRight = "=H*0.98";
unicode = 85;
},
{
glyphname = Uogonek;
kernLeft = U;
kernRight = U;
lastChange = "2024-11-01 12:02:53 +0000";
layers = (
{
anchors = (
{
name = bottom;
pos = (283,0);
},
{
name = top;
pos = (426,668);
},
{
name = topright;
pos = (756,668);
}
);
layerId = m003;
shapes = (
{
closed = 1;
nodes = (
(414,-168,o),
(425,-167,o),
(439,-163,c),
(448,-123,l),
(439,-126,o),
(431,-127,o),
(424,-127,cs),
(394,-127,o),
(371,-115,o),
(371,-86,cs),
(371,-49,o),
(404,-10,o),
(447,14,cs),
(516,53,o),
(564,120,o),
(591,245,cs),
(682,668,l),
(626,668,l),
(536,246,ls),
(506,104,o),
(437,36,o),
(321,36,cs),
(165,36,o),
(110,123,o),
(145,288,cs),
(226,668,l),
(170,668,l),
(91,299,ls),
(23,-20,o),
(268,-20,o),
(377,-8,c),
(346,-34,o),
(322,-69,o),
(322,-104,cs),
(322,-145,o),
(355,-168,o),
(406,-168,cs)
);
}
);
width = 673;
},
{
anchors = (
{
name = bottom;
pos = (293,0);
},
{
name = top;
pos = (434,668);
},
{
name = topright;
pos = (743,668);
}
);
layerId = m004;
shapes = (
{
closed = 1;
nodes = (
(466,-174,o),
(478,-174,o),
(493,-172,c),
(510,-91,l),
(504,-92,o),
(486,-95,o),
(467,-95,cs),
(438,-95,o),
(420,-83,o),
(420,-61,cs),
(420,-13,o),
(485,14,o),
(524,42,cs),
(583,87,o),
(618,161,o),
(640,264,cs),
(725,668,l),
(555,668,l),
(471,268,ls),
(452,179,o),
(424,126,o),
(343,126,cs),
(243,126,o),
(209,170,o),
(231,277,cs),
(313,668,l),
(143,668,l),
(67,313,ls),
(20,93,o),
(112,-12,o),
(317,-12,c),
(295,-33,o),
(280,-58,o),
(280,-83,cs),
(280,-151,o),
(367,-174,o),
(457,-174,cs)
);
}
);
width = 690;
},
{
anchors = (
{
name = bottom;
pos = (292,0);
},
{
name = top;
pos = (434,668);
},
{
name = topright;
pos = (757,668);
}
);
guides = (
{
pos = (356,-173);
},
{
pos = (356,-115);
}
);
layerId = "685EC287-0A44-43F1-AA0E-B98846C13147";
shapes = (
{
closed = 1;
nodes = (
(428,-173,o),
(444,-171,o),
(462,-167,c),
(475,-110,l),
(465,-113,o),
(453,-115,o),
(442,-115,cs),
(417,-115,o),
(394,-106,o),
(394,-76,cs),
(394,-39,o),
(437,1,o),
(472,19,cs),
(543,56,o),
(588,131,o),
(614,251,cs),
(703,668,l),
(609,668,l),
(521,254,ls),
(495,130,o),
(438,69,o),
(334,69,cs),
(197,69,o),
(149,140,o),
(179,284,cs),
(260,668,l),
(166,668,l),
(88,304,ls),
(21,-10,o),
(256,-16,o),
(365,-11,c),
(339,-35,o),
(321,-67,o),
(321,-100,cs),
(321,-148,o),
(364,-173,o),
(413,-173,cs)
);
}
);
width = 690;
},
{
anchors = (
{
name = bottom;
pos = (290,0);
},
{
name = top;
pos = (431,668);
},
{
name = topright;
pos = (742,668);
}
);
layerId = "FD063E2A-CA5A-4098-9599-3D7AAD1E2DEB";
shapes = (
{
closed = 1;
nodes = (
(463,-174,o),
(475,-174,o),
(485,-173,c),
(502,-94,l),
(495,-96,o),
(478,-98,o),
(461,-98,cs),
(431,-98,o),
(413,-86,o),
(413,-63,cs),
(413,-33,o),
(446,-3,o),
(485,20,cs),
(563,65,o),
(607,140,o),
(633,262,cs),
(719,668,l),
(561,668,l),
(476,266,ls),
(456,171,o),
(423,117,o),
(339,117,cs),
(232,117,o),
(196,165,o),
(220,278,cs),
(302,668,l),
(144,668,l),
(68,311,ls),
(22,93,o),
(110,-14,o),
(328,-12,c),
(300,-33,o),
(283,-58,o),
(283,-83,cs),
(283,-150,o),
(364,-174,o),
(450,-174,cs)
);
}
);
width = 685;
}
);
metricLeft = U;
metricRight = U;
unicode = 370;
},
{
glyphname = V;
kernLeft = V;
kernRight = V;
lastChange = "2024-11-01 12:02:53 +0000";
layers = (
{
anchors = (
{
name = bottom;
pos = (230,0);
},
{
name = top;
pos = (372,668);
}
);
layerId = m003;
shapes = (
{
closed = 1;
nodes = (
(258,0,l),
(638,668,l),
(578,668,l),
(240,66,l),
(160,668,l),
(105,668,l),
(199,0,l)
);
}
);
width = 565;
},
{
anchors = (
{
name = bottom;
pos = (281,0);
},
{
name = top;
pos = (423,668);
}
);
layerId = m004;
shapes = (
{
closed = 1;
nodes = (
(379,0,l),
(748,668,l),
(567,668,l),
(316,190,l),
(270,668,l),
(99,668,l),
(182,0,l)
);
}
);
width = 669;
},
{
anchors = (
{
name = bottom;
pos = (243,0);
},
{
name = top;
pos = (385,668);
}
);
layerId = "685EC287-0A44-43F1-AA0E-B98846C13147";
shapes = (
{
closed = 1;
nodes = (
(295,0,l),
(670,668,l),
(569,668,l),
(262,108,l),
(195,668,l),
(101,668,l),
(189,0,l)
);
}
);
width = 593;
},
{
anchors = (
{
name = bottom;
pos = (274,0);
},
{
name = top;
pos = (416,668);
}
);
layerId = "FD063E2A-CA5A-4098-9599-3D7AAD1E2DEB";
shapes = (
{
closed = 1;
nodes = (
(365,0,l),
(735,668,l),
(567,668,l),
(307,176,l),
(257,668,l),
(99,668,l),
(183,0,l)
);
}
);
width = 656;
}
);
metricRight = "=|";
unicode = 86;
},
{
glyphname = W;
kernLeft = W;
kernRight = W;
lastChange = "2024-11-01 12:02:53 +0000";
layers = (
{
anchors = (
{
name = bottom;
pos = (376,0);
},
{
name = top;
pos = (515,668);
}
);
layerId = m003;
shapes = (
{
closed = 1;
nodes = (
(216,0,l),
(497,576,l),
(533,0,l),
(600,0,l),
(922,668,l),
(862,668,l),
(578,64,l),
(544,668,l),
(486,668,l),
(194,64,l),
(168,668,l),
(113,668,l),
(149,0,l)
);
}
);
width = 857;
},
{
anchors = (
{
name = bottom;
pos = (398,0);
},
{
name = top;
pos = (540,668);
}
);
layerId = m004;
shapes = (
{
closed = 1;
nodes = (
(301,0,l),
(494,455,l),
(494,0,l),
(673,0,l),
(975,668,l),
(803,668,l),
(622,222,l),
(622,668,l),
(448,668,l),
(259,222,l),
(268,668,l),
(104,668,l),
(122,0,l)
);
}
);
width = 901;
},
{
anchors = (
{
name = bottom;
pos = (377,0);
},
{
name = top;
pos = (515,668);
}
);
layerId = "685EC287-0A44-43F1-AA0E-B98846C13147";
shapes = (
{
closed = 1;
nodes = (
(238,0,l),
(489,535,l),
(513,0,l),
(618,0,l),
(927,668,l),
(829,668,l),
(586,117,l),
(563,668,l),
(466,668,l),
(209,117,l),
(199,668,l),
(107,668,l),
(133,0,l)
);
}
);
width = 856;
},
{
anchors = (
{
name = bottom;
pos = (395,0);
},
{
name = top;
pos = (536,668);
}
);
layerId = "FD063E2A-CA5A-4098-9599-3D7AAD1E2DEB";
shapes = (
{
closed = 1;
nodes = (
(291,0,l),
(493,468,l),
(497,0,l),
(664,0,l),
(967,668,l),
(807,668,l),
(616,205,l),
(612,668,l),
(451,668,l),
(251,205,l),
(256,668,l),
(104,668,l),
(124,0,l)
);
}
);
width = 893;
}
);
metricLeft = "=V*1.5";
metricRight = "=V*1.5";
unicode = 87;
},
{
glyphname = X;
kernLeft = X;
kernRight = X;
lastChange = "2024-11-01 12:02:53 +0000";
layers = (
{
anchors = (
{
name = bottom;
pos = (242,0);
},
{
name = top;
pos = (384,668);
}
);
layerId = m003;
shapes = (
{
closed = 1;
nodes = (
(30,0,l),
(307,301,l),
(458,0,l),
(523,0,l),
(350,343,l),
(651,668,l),
(581,668,l),
(322,387,l),
(181,668,l),
(117,668,l),
(280,346,l),
(-39,0,l)
);
}
);
width = 590;
},
{
anchors = (
{
name = bottom;
pos = (304,0);
},
{
name = top;
pos = (446,668);
}
);
layerId = m004;
shapes = (
{
closed = 1;
nodes = (
(166,0,l),
(350,202,l),
(451,0,l),
(650,0,l),
(479,341,l),
(778,668,l),
(570,668,l),
(401,485,l),
(311,668,l),
(113,668,l),
(274,344,l),
(-43,0,l)
);
}
);
width = 713;
},
{
anchors = (
{
name = bottom;
pos = (259,0);
},
{
name = top;
pos = (401,668);
}
);
layerId = "685EC287-0A44-43F1-AA0E-B98846C13147";
shapes = (
{
closed = 1;
nodes = (
(70,0,l),
(317,268,l),
(452,0,l),
(560,0,l),
(389,342,l),
(688,668,l),
(575,668,l),
(344,420,l),
(221,668,l),
(113,668,l),
(274,345,l),
(-43,0,l)
);
}
);
width = 623;
},
{
anchors = (
{
name = bottom;
pos = (297,0);
},
{
name = top;
pos = (439,668);
}
);
layerId = "FD063E2A-CA5A-4098-9599-3D7AAD1E2DEB";
shapes = (
{
closed = 1;
nodes = (
(151,0,l),
(345,213,l),
(452,0,l),
(636,0,l),
(465,341,l),
(764,668,l),
(571,668,l),
(392,474,l),
(297,668,l),
(113,668,l),
(275,344,l),
(-43,0,l)
);
}
);
width = 699;
}
);
metricRight = "=|";
unicode = 88;
},
{
glyphname = Y;
kernLeft = Y;
kernRight = Y;
lastChange = "2024-11-01 12:02:53 +0000";
layers = (
{
anchors = (
{
name = bottom;
pos = (211,0);
},
{
name = top;
pos = (349,668);
},
{
name = topleft;
pos = (99,668);
}
);
guides = (
{
angle = 78;
pos = (327,564);
}
);
layerId = m003;
shapes = (
{
closed = 1;
nodes = (
(239,0,l),
(296,268,l),
(615,668,l),
(546,668,l),
(276,325,l),
(151,668,l),
(89,668,l),
(240,268,l),
(183,0,l)
);
}
);
width = 526;
},
{
anchors = (
{
name = bottom;
pos = (290,0);
},
{
name = top;
pos = (426,668);
},
{
name = topleft;
pos = (99,668);
}
);
guides = (
{
angle = 78;
pos = (404,564);
}
);
layerId = m004;
shapes = (
{
closed = 1;
nodes = (
(374,0,l),
(429,261,l),
(773,668,l),
(567,668,l),
(372,423,l),
(282,668,l),
(89,668,l),
(259,263,l),
(204,0,l)
);
}
);
width = 684;
},
{
anchors = (
{
name = bottom;
pos = (235,0);
},
{
name = top;
pos = (373,668);
},
{
name = topleft;
pos = (97,668);
}
);
layerId = "685EC287-0A44-43F1-AA0E-B98846C13147";
shapes = (
{
closed = 1;
nodes = (
(282,0,l),
(339,266,l),
(664,668,l),
(548,668,l),
(305,358,l),
(194,668,l),
(89,668,l),
(244,266,l),
(188,0,l)
);
}
);
width = 575;
},
{
anchors = (
{
name = bottom;
pos = (281,0);
},
{
name = top;
pos = (418,668);
},
{
name = topleft;
pos = (99,668);
}
);
layerId = "FD063E2A-CA5A-4098-9599-3D7AAD1E2DEB";
shapes = (
{
closed = 1;
nodes = (
(360,0,l),
(415,264,l),
(756,668,l),
(564,668,l),
(361,412,l),
(267,668,l),
(89,668,l),
(257,263,l),
(202,0,l)
);
}
);
width = 667;
}
);
metricLeft = "=0";
metricRight = "=0";
unicode = 89;
},
{
glyphname = Z;
kernLeft = Z;
kernRight = Z;
lastChange = "2024-11-01 12:02:53 +0000";
layers = (
{
anchors = (
{
name = bottom;
pos = (247,0);
},
{
name = center;
pos = (318,334);
},
{
name = top;
pos = (393,668);
}
);
layerId = m003;
shapes = (
{
closed = 1;
nodes = (
(496,0,l),
(507,50,l),
(73,50,l),
(610,608,l),
(623,668,l),
(154,668,l),
(143,618,l),
(547,618,l),
(10,60,l),
(-3,0,l)
);
}
);
width = 600;
},
{
anchors = (
{
name = bottom;
pos = (259,0);
},
{
name = center;
pos = (330,334);
},
{
name = top;
pos = (401,668);
}
);
layerId = m004;
shapes = (
{
closed = 1;
nodes = (
(541,0,l),
(573,150,l),
(246,150,l),
(641,540,l),
(668,668,l),
(134,668,l),
(102,518,l),
(402,518,l),
(4,128,l),
(-23,0,l)
);
}
);
width = 624;
},
{
anchors = (
{
name = bottom;
pos = (253,0);
},
{
name = center;
pos = (324,334);
},
{
name = top;
pos = (396,668);
}
);
layerId = "685EC287-0A44-43F1-AA0E-B98846C13147";
shapes = (
{
closed = 1;
nodes = (
(511,0,l),
(528,81,l),
(128,81,l),
(621,587,l),
(638,668,l),
(149,668,l),
(132,587,l),
(502,587,l),
(9,81,l),
(-8,0,l)
);
}
);
width = 607;
},
{
anchors = (
{
name = bottom;
pos = (258,0);
},
{
name = center;
pos = (329,334);
},
{
name = top;
pos = (400,668);
}
);
layerId = "FD063E2A-CA5A-4098-9599-3D7AAD1E2DEB";
shapes = (
{
closed = 1;
nodes = (
(536,0,l),
(566,139,l),
(227,139,l),
(638,547,l),
(663,668,l),
(136,668,l),
(106,529,l),
(418,529,l),
(5,121,l),
(-21,0,l)
);
}
);
width = 621;
}
);
unicode = 90;
},
{
glyphname = a;
kernLeft = a;
kernRight = a;
lastChange = "2024-11-01 12:02:53 +0000";
layers = (
{
anchors = (
{
name = bottom;
pos = (193,0);
},
{
name = ogonek;
pos = (391,10);
},
{
name = top;
pos = (293,496);
}
);
layerId = m003;
shapes = (
{
closed = 1;
nodes = (
(251,-12,o),
(313,34,o),
(344,80,c),
(345,0,l),
(389,0,l),
(389,44,o),
(393,100,o),
(413,194,cs),
(434,295,ls),
(462,430,o),
(407,506,o),
(279,506,cs),
(200,506,o),
(123,470,o),
(87,386,c),
(143,373,l),
(163,434,o),
(220,460,o),
(277,460,cs),
(370,460,o),
(402,400,o),
(383,306,cs),
(381,296,l),
(131,297,o),
(7,245,o),
(7,113,cs),
(7,27,o),
(82,-12,o),
(161,-12,cs)
);
},
{
closed = 1;
nodes = (
(113,35,o),
(62,62,o),
(62,121,cs),
(62,211,o),
(159,254,o),
(372,252,c),
(360,195,ls),
(336,80,o),
(249,35,o),
(173,35,cs)
);
}
);
width = 504;
},
{
anchors = (
{
name = bottom;
pos = (227,0);
},
{
name = ogonek;
pos = (477,10);
},
{
name = top;
pos = (319,496);
}
);
layerId = m004;
shapes = (
{
closed = 1;
nodes = (
(210,-12,o),
(266,3,o),
(316,54,c),
(320,0,l),
(475,0,l),
(473,38,o),
(482,114,o),
(497,185,cs),
(519,287,ls),
(551,437,o),
(455,511,o),
(299,511,cs),
(213,511,o),
(115,482,o),
(66,398,c),
(205,348,l),
(219,383,o),
(253,400,o),
(293,400,cs),
(343,400,o),
(381,377,o),
(367,320,cs),
(364,308,l),
(97,312,o),
(-5,242,o),
(-5,121,cs),
(-5,37,o),
(66,-12,o),
(151,-12,cs)
);
},
{
closed = 1;
nodes = (
(197,99,o),
(171,116,o),
(171,146,cs),
(171,187,o),
(217,213,o),
(343,212,c),
(343,210,l),
(325,128,o),
(281,99,o),
(228,99,cs)
);
}
);
width = 561;
},
{
anchors = (
{
name = bottom;
pos = (206,0);
},
{
name = ogonek;
pos = (419,10);
},
{
name = top;
pos = (304,496);
}
);
layerId = "685EC287-0A44-43F1-AA0E-B98846C13147";
name = "AHL Variable 06 FROM Regular Italic";
shapes = (
{
closed = 1;
nodes = (
(244,-12,o),
(304,26,o),
(340,73,c),
(342,0,l),
(417,0,l),
(416,42,o),
(421,104,o),
(440,192,cs),
(461,293,ls),
(489,429,o),
(424,504,o),
(289,504,cs),
(207,504,o),
(124,470,o),
(84,386,c),
(165,362,l),
(183,417,o),
(233,437,o),
(285,437,cs),
(367,437,o),
(402,390,o),
(385,314,cs),
(383,305,l),
(140,305,o),
(8,249,o),
(8,115,cs),
(8,30,o),
(82,-12,o),
(162,-12,cs)
);
},
{
closed = 1;
nodes = (
(140,55,o),
(96,77,o),
(96,128,cs),
(96,206,o),
(181,240,o),
(369,242,c),
(360,199,ls),
(338,93,o),
(262,55,o),
(192,55,cs)
);
}
);
width = 525;
},
{
anchors = (
{
name = bottom;
pos = (224,0);
},
{
name = ogonek;
pos = (468,10);
},
{
name = top;
pos = (317,496);
}
);
layerId = "FD063E2A-CA5A-4098-9599-3D7AAD1E2DEB";
name = "AHL Variable 06 FROM Bold Italic";
shapes = (
{
closed = 1;
nodes = (
(216,-12,o),
(273,7,o),
(320,57,c),
(324,0,l),
(466,0,l),
(464,39,o),
(472,112,o),
(488,186,cs),
(510,288,ls),
(541,436,o),
(450,510,o),
(298,510,cs),
(212,510,o),
(117,481,o),
(70,397,c),
(198,351,l),
(212,389,o),
(249,407,o),
(292,407,cs),
(347,407,o),
(386,380,o),
(373,321,cs),
(370,307,l),
(111,310,o),
(-3,246,o),
(-3,120,cs),
(-3,36,o),
(69,-12,o),
(153,-12,cs)
);
},
{
closed = 1;
nodes = (
(188,92,o),
(159,110,o),
(159,143,cs),
(159,194,o),
(219,217,o),
(350,217,c),
(348,208,ls),
(329,122,o),
(278,92,o),
(223,92,cs)
);
}
);
width = 558;
}
);
unicode = 97;
},
{
glyphname = aogonek;
kernLeft = a;
kernRight = a;
lastChange = "2024-11-01 12:02:53 +0000";
layers = (
{
anchors = (
{
name = bottom;
pos = (193,0);
},
{
name = top;
pos = (293,496);
}
);
layerId = m003;
shapes = (
{
closed = 1;
nodes = (
(328,-168,o),
(340,-167,o),
(354,-164,c),
(363,-124,l),
(356,-126,o),
(344,-127,o),
(338,-127,cs),
(312,-127,o),
(285,-121,o),
(285,-93,cs),
(285,-49,o),
(343,-14,o),
(389,0,c),
(389,44,o),
(393,100,o),
(413,194,cs),
(434,295,ls),
(462,430,o),
(407,506,o),
(279,506,cs),
(200,506,o),
(123,470,o),
(87,386,c),
(143,373,l),
(163,434,o),
(220,460,o),
(277,460,cs),
(370,460,o),
(402,400,o),
(383,306,cs),
(381,296,l),
(131,297,o),
(7,245,o),
(7,113,cs),
(7,27,o),
(82,-12,o),
(161,-12,cs),
(251,-12,o),
(313,34,o),
(344,80,c),
(345,11,l),
(291,-13,o),
(238,-50,o),
(238,-105,cs),
(238,-144,o),
(271,-168,o),
(316,-168,cs)
);
},
{
closed = 1;
nodes = (
(113,35,o),
(62,62,o),
(62,121,cs),
(62,211,o),
(159,254,o),
(372,252,c),
(360,195,ls),
(336,80,o),
(249,35,o),
(173,35,cs)
);
}
);
width = 504;
},
{
anchors = (
{
name = bottom;
pos = (227,0);
},
{
name = top;
pos = (319,496);
}
);
layerId = m004;
shapes = (
{
closed = 1;
nodes = (
(410,-176,o),
(426,-175,o),
(438,-172,c),
(455,-91,l),
(444,-93,o),
(427,-95,o),
(409,-95,cs),
(385,-95,o),
(364,-87,o),
(364,-67,cs),
(364,-38,o),
(411,-9,o),
(475,0,c),
(473,38,o),
(482,114,o),
(497,185,cs),
(519,287,ls),
(551,437,o),
(455,511,o),
(299,511,cs),
(213,511,o),
(115,482,o),
(66,398,c),
(205,348,l),
(219,383,o),
(253,400,o),
(293,400,cs),
(343,400,o),
(381,377,o),
(367,320,cs),
(364,308,l),
(97,312,o),
(-5,242,o),
(-5,121,cs),
(-5,37,o),
(66,-12,o),
(151,-12,cs),
(210,-12,o),
(266,3,o),
(316,54,c),
(319,9,l),
(274,-10,o),
(222,-43,o),
(222,-89,cs),
(222,-152,o),
(316,-176,o),
(396,-176,cs)
);
},
{
closed = 1;
nodes = (
(197,99,o),
(171,116,o),
(171,146,cs),
(171,187,o),
(217,213,o),
(343,212,c),
(343,210,l),
(325,128,o),
(281,99,o),
(228,99,cs)
);
}
);
width = 561;
},
{
anchors = (
{
name = bottom;
pos = (206,0);
},
{
name = top;
pos = (304,496);
}
);
layerId = "685EC287-0A44-43F1-AA0E-B98846C13147";
shapes = (
{
closed = 1;
nodes = (
(347,-173,o),
(365,-171,o),
(381,-167,c),
(394,-110,l),
(383,-113,o),
(373,-115,o),
(362,-115,cs),
(340,-115,o),
(313,-107,o),
(313,-79,cs),
(313,-38,o),
(375,-14,o),
(417,0,c),
(416,42,o),
(421,104,o),
(440,192,cs),
(461,293,ls),
(489,429,o),
(424,504,o),
(289,504,cs),
(207,504,o),
(124,470,o),
(84,386,c),
(165,362,l),
(183,417,o),
(233,437,o),
(285,437,cs),
(367,437,o),
(402,390,o),
(385,314,cs),
(383,305,l),
(140,305,o),
(8,249,o),
(8,115,cs),
(8,30,o),
(82,-12,o),
(162,-12,cs),
(244,-12,o),
(304,26,o),
(340,73,c),
(342,10,l),
(283,-9,o),
(240,-46,o),
(240,-100,cs),
(240,-148,o),
(283,-173,o),
(332,-173,cs)
);
},
{
closed = 1;
nodes = (
(140,55,o),
(96,77,o),
(96,128,cs),
(96,206,o),
(181,240,o),
(369,242,c),
(360,199,ls),
(338,93,o),
(262,55,o),
(192,55,cs)
);
}
);
width = 525;
},
{
anchors = (
{
name = bottom;
pos = (224,0);
},
{
name = top;
pos = (317,496);
}
);
layerId = "FD063E2A-CA5A-4098-9599-3D7AAD1E2DEB";
shapes = (
{
closed = 1;
nodes = (
(404,-174,o),
(420,-173,o),
(429,-172,c),
(445,-95,l),
(435,-97,o),
(418,-98,o),
(401,-98,cs),
(377,-98,o),
(355,-89,o),
(355,-67,cs),
(355,-39,o),
(404,-9,o),
(466,0,c),
(464,39,o),
(472,112,o),
(488,186,cs),
(510,288,ls),
(541,436,o),
(450,510,o),
(298,510,cs),
(212,510,o),
(117,481,o),
(70,397,c),
(198,351,l),
(212,389,o),
(249,407,o),
(292,407,cs),
(347,407,o),
(386,380,o),
(373,321,cs),
(370,307,l),
(111,310,o),
(-3,246,o),
(-3,120,cs),
(-3,36,o),
(69,-12,o),
(153,-12,cs),
(216,-12,o),
(273,7,o),
(320,57,c),
(323,10,l),
(277,-10,o),
(224,-43,o),
(224,-91,cs),
(224,-151,o),
(311,-174,o),
(387,-174,cs)
);
},
{
closed = 1;
nodes = (
(188,92,o),
(159,110,o),
(159,143,cs),
(159,194,o),
(219,217,o),
(350,217,c),
(348,208,ls),
(329,122,o),
(278,92,o),
(223,92,cs)
);
}
);
width = 558;
}
);
metricLeft = a;
metricRight = a;
unicode = 261;
},
{
glyphname = ae;
kernLeft = a;
kernRight = e;
lastChange = "2024-11-01 12:02:53 +0000";
layers = (
{
anchors = (
{
name = bottom;
pos = (372,0);
},
{
name = top;
pos = (478,496);
}
);
layerId = m003;
shapes = (
{
closed = 1;
nodes = (
(249,-12,o),
(336,34,o),
(378,118,c),
(403,39,o),
(469,-12,o),
(569,-12,cs),
(643,-12,o),
(702,12,o),
(759,80,c),
(705,100,l),
(670,54,o),
(621,36,o),
(570,36,cs),
(456,36,o),
(410,130,o),
(425,244,c),
(809,244,l),
(837,380,o),
(767,506,o),
(624,506,cs),
(545,506,o),
(480,466,o),
(436,407,c),
(419,471,o),
(365,506,o),
(278,506,cs),
(200,506,o),
(123,470,o),
(87,386,c),
(143,373,l),
(163,434,o),
(220,460,o),
(276,460,cs),
(368,460,o),
(402,397,o),
(383,307,cs),
(379,288,l),
(142,295,o),
(7,245,o),
(7,110,cs),
(7,28,o),
(84,-12,o),
(161,-12,cs)
);
},
{
closed = 1;
nodes = (
(115,35,o),
(62,63,o),
(62,118,cs),
(62,214,o),
(176,250,o),
(370,244,c),
(360,195,ls),
(336,78,o),
(249,35,o),
(173,35,cs)
);
},
{
closed = 1;
nodes = (
(458,371,o),
(513,458,o),
(620,458,cs),
(718,458,o),
(769,379,o),
(760,289,c),
(435,289,l)
);
}
);
width = 848;
},
{
anchors = (
{
name = bottom;
pos = (385,0);
},
{
name = top;
pos = (490,496);
}
);
layerId = m004;
shapes = (
{
closed = 1;
nodes = (
(278,-12,o),
(344,29,o),
(386,83,c),
(425,23,o),
(494,-12,o),
(584,-12,cs),
(667,-12,o),
(752,25,o),
(810,95,c),
(683,146,l),
(662,121,o),
(623,114,o),
(591,114,cs),
(525,114,o),
(492,149,o),
(489,207,c),
(851,207,l),
(889,384,o),
(794,511,o),
(633,511,cs),
(567,511,o),
(509,490,o),
(463,454,c),
(428,492,o),
(370,511,o),
(296,511,cs),
(213,511,o),
(115,482,o),
(66,398,c),
(205,348,l),
(219,383,o),
(253,400,o),
(293,400,cs),
(343,400,o),
(380,378,o),
(367,318,cs),
(364,304,l),
(125,308,o),
(-5,257,o),
(-5,121,cs),
(-5,37,o),
(66,-12,o),
(171,-12,cs)
);
},
{
closed = 1;
nodes = (
(196,99,o),
(171,116,o),
(171,146,cs),
(171,188,o),
(219,210,o),
(343,208,c),
(341,201,ls),
(319,125,o),
(280,99,o),
(228,99,cs)
);
},
{
closed = 1;
nodes = (
(524,348,o),
(561,390,o),
(621,390,cs),
(676,390,o),
(719,363,o),
(718,301,c),
(505,301,l)
);
}
);
width = 878;
},
{
anchors = (
{
name = bottom;
pos = (378,0);
},
{
name = top;
pos = (484,496);
}
);
layerId = "685EC287-0A44-43F1-AA0E-B98846C13147";
name = "AHL Variable 06 FROM Regular Italic";
shapes = (
{
closed = 1;
nodes = (
(261,-12,o),
(339,33,o),
(383,106,c),
(413,33,o),
(480,-12,o),
(576,-12,cs),
(652,-12,o),
(721,15,o),
(778,83,c),
(699,114,l),
(668,72,o),
(622,62,o),
(579,62,cs),
(508,62,o),
(435,105,o),
(444,225,c),
(821,225,l),
(857,376,o),
(780,504,o),
(629,504,cs),
(555,504,o),
(493,471,o),
(447,421,c),
(424,475,o),
(369,504,o),
(286,504,cs),
(207,504,o),
(124,470,o),
(84,386,c),
(165,362,l),
(183,417,o),
(233,437,o),
(285,437,cs),
(364,437,o),
(399,392,o),
(382,311,cs),
(378,292,l),
(128,298,o),
(7,242,o),
(7,113,cs),
(7,30,o),
(82,-12,o),
(167,-12,cs)
);
},
{
closed = 1;
nodes = (
(140,55,o),
(95,78,o),
(95,126,cs),
(95,191,o),
(160,233,o),
(364,227,c),
(358,199,ls),
(336,92,o),
(261,55,o),
(191,55,cs)
);
},
{
closed = 1;
nodes = (
(480,362,o),
(530,432,o),
(623,432,cs),
(710,432,o),
(758,375,o),
(752,292,c),
(457,292,l)
);
}
);
width = 859;
},
{
anchors = (
{
name = bottom;
pos = (384,0);
},
{
name = top;
pos = (490,496);
}
);
layerId = "FD063E2A-CA5A-4098-9599-3D7AAD1E2DEB";
name = "AHL Variable 06 FROM Bold Italic";
shapes = (
{
closed = 1;
nodes = (
(276,-12,o),
(344,30,o),
(386,86,c),
(423,25,o),
(493,-12,o),
(580,-12,cs),
(664,-12,o),
(749,22,o),
(807,92,c),
(686,142,l),
(664,113,o),
(625,106,o),
(590,106,cs),
(519,106,o),
(483,145,o),
(482,210,c),
(847,210,l),
(884,384,o),
(792,510,o),
(633,510,cs),
(566,510,o),
(507,487,o),
(462,450,c),
(428,490,o),
(370,510,o),
(295,510,cs),
(212,510,o),
(117,481,o),
(70,397,c),
(198,351,l),
(212,389,o),
(249,407,o),
(292,407,cs),
(347,407,o),
(384,380,o),
(370,316,cs),
(367,302,l),
(137,306,o),
(-3,259,o),
(-3,120,cs),
(-3,36,o),
(69,-12,o),
(171,-12,cs)
);
},
{
closed = 1;
nodes = (
(187,93,o),
(159,110,o),
(159,143,cs),
(159,194,o),
(223,214,o),
(347,212,c),
(346,208,ls),
(327,122,o),
(278,93,o),
(223,93,cs)
);
},
{
closed = 1;
nodes = (
(518,351,o),
(557,397,o),
(623,397,cs),
(682,397,o),
(726,365,o),
(724,300,c),
(498,300,l)
);
}
);
width = 873;
}
);
metricLeft = a;
metricRight = e;
unicode = 230;
},
{
glyphname = b;
kernLeft = h;
kernRight = o;
lastChange = "2024-11-01 12:02:53 +0000";
layers = (
{
anchors = (
{
name = bottom;
pos = (224,0);
},
{
name = center;
pos = (277,248);
},
{
name = top;
pos = (329,496);
}
);
layerId = m003;
shapes = (
{
closed = 1;
nodes = (
(426,-12,o),
(509,163,o),
(509,300,cs),
(509,422,o),
(446,506,o),
(337,506,cs),
(264,506,o),
(198,467,o),
(163,412,c),
(227,708,l),
(173,708,l),
(24,0,l),
(64,0,l),
(98,93,l),
(113,28,o),
(176,-12,o),
(249,-12,cs)
);
},
{
closed = 1;
nodes = (
(170,36,o),
(124,89,o),
(124,180,cs),
(124,282,o),
(183,458,o),
(324,458,cs),
(409,458,o),
(454,394,o),
(454,300,cs),
(454,198,o),
(401,36,o),
(253,36,cs)
);
}
);
width = 545;
},
{
anchors = (
{
name = bottom;
pos = (251,0);
},
{
name = center;
pos = (304,248);
},
{
name = top;
pos = (356,496);
}
);
layerId = m004;
shapes = (
{
closed = 1;
nodes = (
(510,-12,o),
(589,178,o),
(589,309,cs),
(589,429,o),
(523,511,o),
(409,511,cs),
(354,511,o),
(295,487,o),
(255,442,c),
(312,708,l),
(147,708,l),
(-4,0,l),
(143,0,l),
(179,75,l),
(198,19,o),
(263,-12,o),
(324,-12,cs)
);
},
{
closed = 1;
nodes = (
(234,115,o),
(203,149,o),
(203,210,cs),
(203,273,o),
(238,385,o),
(329,385,cs),
(388,385,o),
(417,339,o),
(417,281,cs),
(417,218,o),
(378,115,o),
(287,115,cs)
);
}
);
width = 610;
},
{
anchors = (
{
name = bottom;
pos = (234,0);
},
{
name = center;
pos = (287,248);
},
{
name = top;
pos = (339,496);
}
);
layerId = "685EC287-0A44-43F1-AA0E-B98846C13147";
name = "AHL Variable 06 FROM Regular Italic";
shapes = (
{
closed = 1;
nodes = (
(452,-12,o),
(534,167,o),
(534,302,cs),
(534,421,o),
(470,504,o),
(359,504,cs),
(292,504,o),
(230,473,o),
(193,422,c),
(254,708,l),
(170,708,l),
(19,0,l),
(81,0,l),
(123,88,l),
(139,26,o),
(203,-12,o),
(272,-12,cs)
);
},
{
closed = 1;
nodes = (
(190,60,o),
(149,105,o),
(149,188,cs),
(149,280,o),
(203,432,o),
(326,432,cs),
(403,432,o),
(443,376,o),
(443,296,cs),
(443,202,o),
(395,60,o),
(266,60,cs)
);
}
);
width = 567;
},
{
anchors = (
{
name = bottom;
pos = (249,0);
},
{
name = center;
pos = (302,248);
},
{
name = top;
pos = (354,496);
}
);
layerId = "FD063E2A-CA5A-4098-9599-3D7AAD1E2DEB";
name = "AHL Variable 06 FROM Bold Italic";
shapes = (
{
closed = 1;
nodes = (
(493,-12,o),
(579,171,o),
(579,304,cs),
(579,449,o),
(482,510,o),
(401,510,cs),
(343,510,o),
(285,485,o),
(245,438,c),
(303,708,l),
(151,708,l),
(0,0,l),
(133,0,l),
(170,77,l),
(189,20,o),
(253,-12,o),
(317,-12,cs)
);
},
{
closed = 1;
nodes = (
(231,106,o),
(195,143,o),
(195,210,cs),
(195,271,o),
(234,392,o),
(330,392,cs),
(386,392,o),
(420,351,o),
(420,285,cs),
(420,224,o),
(379,106,o),
(282,106,cs)
);
}
);
width = 603;
}
);
metricLeft = n;
metricRight = o;
unicode = 98;
},
{
glyphname = c;
kernLeft = o;
kernRight = c;
lastChange = "2024-11-01 12:02:53 +0000";
layers = (
{
anchors = (
{
name = bottom;
pos = (211,0);
},
{
name = top;
pos = (311,496);
}
);
layerId = m003;
shapes = (
{
closed = 1;
nodes = (
(294,-12,o),
(367,17,o),
(421,90,c),
(371,110,l),
(340,60,o),
(285,36,o),
(231,36,cs),
(136,36,o),
(91,106,o),
(91,197,cs),
(91,297,o),
(150,458,o),
(292,458,cs),
(347,458,o),
(394,428,o),
(413,378,c),
(463,395,l),
(437,459,o),
(381,506,o),
(296,506,cs),
(140,506,o),
(36,350,o),
(36,196,cs),
(36,81,o),
(102,-12,o),
(226,-12,cs)
);
}
);
width = 469;
},
{
anchors = (
{
name = bottom;
pos = (246,0);
},
{
name = top;
pos = (331,496);
}
);
layerId = m004;
shapes = (
{
closed = 1;
nodes = (
(346,-12,o),
(432,17,o),
(493,105,c),
(366,156,l),
(344,125,o),
(314,114,o),
(278,114,cs),
(219,114,o),
(191,152,o),
(191,211,cs),
(191,271,o),
(221,385,o),
(315,385,cs),
(355,385,o),
(384,365,o),
(394,328,c),
(529,374,l),
(498,467,o),
(413,511,o),
(311,511,cs),
(135,511,o),
(25,372,o),
(25,203,cs),
(25,68,o),
(113,-12,o),
(261,-12,cs)
);
}
);
width = 523;
},
{
anchors = (
{
name = bottom;
pos = (221,0);
},
{
name = top;
pos = (317,496);
}
);
layerId = "685EC287-0A44-43F1-AA0E-B98846C13147";
name = "AHL Variable 06 FROM Regular Italic";
shapes = (
{
closed = 1;
nodes = (
(311,-12,o),
(386,17,o),
(442,94,c),
(365,125,l),
(338,78,o),
(292,62,o),
(244,62,cs),
(159,62,o),
(119,119,o),
(119,201,cs),
(119,290,o),
(169,430,o),
(298,430,cs),
(349,430,o),
(390,408,o),
(406,361,c),
(483,387,l),
(456,458,o),
(390,504,o),
(300,504,cs),
(139,504,o),
(33,353,o),
(33,198,cs),
(33,78,o),
(105,-12,o),
(236,-12,cs)
);
}
);
width = 485;
},
{
anchors = (
{
name = bottom;
pos = (242,0);
},
{
name = top;
pos = (329,496);
}
);
layerId = "FD063E2A-CA5A-4098-9599-3D7AAD1E2DEB";
name = "AHL Variable 06 FROM Bold Italic";
shapes = (
{
closed = 1;
nodes = (
(347,-12,o),
(425,14,o),
(485,102,c),
(363,153,l),
(340,117,o),
(307,106,o),
(272,106,cs),
(209,106,o),
(180,147,o),
(180,209,cs),
(180,274,o),
(213,392,o),
(312,392,cs),
(354,392,o),
(384,372,o),
(395,334,c),
(523,377,l),
(492,466,o),
(409,510,o),
(309,510,cs),
(136,510,o),
(26,369,o),
(26,202,cs),
(26,70,o),
(112,-12,o),
(257,-12,cs)
);
}
);
width = 516;
}
);
metricLeft = o;
unicode = 99;
},
{
glyphname = ccedilla;
kernLeft = o;
kernRight = c;
lastChange = "2024-11-01 12:02:53 +0000";
layers = (
{
anchors = (
{
name = top;
pos = (311,496);
}
);
layerId = m003;
shapes = (
{
closed = 1;
nodes = (
(228,-177,o),
(268,-144,o),
(268,-97,cs),
(268,-68,o),
(244,-44,o),
(208,-44,cs),
(201,-44,o),
(194,-45,o),
(187,-47,c),
(218,-12,l),
(321,-13,o),
(378,35,o),
(421,90,c),
(371,110,l),
(340,60,o),
(285,36,o),
(231,36,cs),
(136,36,o),
(91,106,o),
(91,197,cs),
(91,297,o),
(150,458,o),
(292,458,cs),
(347,458,o),
(394,428,o),
(413,378,c),
(463,395,l),
(437,459,o),
(381,506,o),
(296,506,cs),
(140,506,o),
(36,350,o),
(36,196,cs),
(36,95,o),
(87,11,o),
(183,-8,c),
(147,-52,ls),
(136,-65,o),
(137,-79,o),
(155,-79,cs),
(162,-79,o),
(174,-77,o),
(182,-77,cs),
(206,-77,o),
(224,-85,o),
(224,-106,cs),
(224,-127,o),
(204,-145,o),
(174,-145,cs),
(158,-145,o),
(138,-141,o),
(111,-123,c),
(93,-147,l),
(120,-167,o),
(146,-177,o),
(176,-177,cs)
);
}
);
width = 469;
},
{
anchors = (
{
name = top;
pos = (331,496);
}
);
layerId = m004;
shapes = (
{
closed = 1;
nodes = (
(287,-188,o),
(344,-166,o),
(344,-108,cs),
(344,-67,o),
(299,-46,o),
(251,-46,cs),
(247,-46,o),
(241,-46,o),
(236,-47,c),
(265,-12,l),
(349,-11,o),
(433,18,o),
(493,105,c),
(366,156,l),
(344,125,o),
(314,114,o),
(278,114,cs),
(219,114,o),
(191,152,o),
(191,211,cs),
(191,271,o),
(221,385,o),
(315,385,cs),
(355,385,o),
(384,365,o),
(394,328,c),
(529,374,l),
(498,467,o),
(413,511,o),
(311,511,cs),
(135,511,o),
(25,372,o),
(25,203,cs),
(25,85,o),
(93,9,o),
(209,-8,c),
(172,-53,ls),
(158,-70,o),
(164,-92,o),
(190,-87,cs),
(196,-86,o),
(204,-85,o),
(215,-85,cs),
(232,-85,o),
(244,-95,o),
(244,-108,cs),
(244,-127,o),
(227,-136,o),
(208,-136,cs),
(181,-136,o),
(151,-125,o),
(140,-118,c),
(114,-168,l),
(141,-179,o),
(181,-188,o),
(223,-188,cs)
);
}
);
width = 523;
},
{
anchors = (
{
name = top;
pos = (317,496);
}
);
layerId = "685EC287-0A44-43F1-AA0E-B98846C13147";
shapes = (
{
closed = 1;
nodes = (
(245,-183,o),
(291,-151,o),
(291,-100,cs),
(291,-60,o),
(262,-42,o),
(223,-42,cs),
(219,-42,o),
(212,-42,o),
(204,-43,c),
(231,-12,l),
(337,-12,o),
(398,35,o),
(442,94,c),
(365,125,l),
(338,78,o),
(292,62,o),
(244,62,cs),
(159,62,o),
(119,119,o),
(119,201,cs),
(119,290,o),
(169,430,o),
(298,430,cs),
(349,430,o),
(390,408,o),
(406,361,c),
(483,387,l),
(456,458,o),
(390,504,o),
(300,504,cs),
(139,504,o),
(33,353,o),
(33,198,cs),
(33,95,o),
(86,14,o),
(185,-7,c),
(148,-50,ls),
(137,-61,o),
(141,-83,o),
(165,-78,cs),
(171,-77,o),
(180,-76,o),
(186,-76,cs),
(210,-76,o),
(231,-86,o),
(231,-105,cs),
(231,-128,o),
(207,-142,o),
(181,-142,cs),
(156,-142,o),
(139,-133,o),
(119,-121,c),
(98,-154,l),
(125,-170,o),
(153,-183,o),
(192,-183,cs)
);
}
);
width = 485;
},
{
anchors = (
{
name = top;
pos = (329,496);
}
);
layerId = "FD063E2A-CA5A-4098-9599-3D7AAD1E2DEB";
shapes = (
{
closed = 1;
nodes = (
(281,-187,o),
(336,-164,o),
(336,-107,cs),
(336,-69,o),
(298,-46,o),
(246,-46,cs),
(242,-46,o),
(236,-46,o),
(231,-47,c),
(260,-12,l),
(347,-11,o),
(425,14,o),
(485,102,c),
(363,153,l),
(340,117,o),
(307,106,o),
(272,106,cs),
(209,106,o),
(180,147,o),
(180,209,cs),
(180,274,o),
(213,392,o),
(312,392,cs),
(354,392,o),
(384,372,o),
(395,334,c),
(523,377,l),
(492,466,o),
(409,510,o),
(309,510,cs),
(136,510,o),
(26,369,o),
(26,202,cs),
(26,86,o),
(92,9,o),
(206,-8,c),
(169,-53,ls),
(156,-70,o),
(161,-91,o),
(186,-86,cs),
(192,-85,o),
(201,-84,o),
(211,-84,cs),
(229,-84,o),
(242,-94,o),
(242,-108,cs),
(242,-127,o),
(225,-137,o),
(200,-137,cs),
(178,-137,o),
(150,-127,o),
(137,-118,c),
(112,-166,l),
(139,-178,o),
(177,-187,o),
(218,-187,cs)
);
}
);
width = 516;
}
);
unicode = 231;
},
{
glyphname = d;
kernLeft = o;
kernRight = d;
lastChange = "2024-11-01 12:02:53 +0000";
layers = (
{
anchors = (
{
name = bottom;
pos = (214,0);
},
{
name = center;
pos = (472,581);
},
{
name = top;
pos = (383,796);
},
{
name = topright;
pos = (568,498);
}
);
layerId = m003;
shapes = (
{
closed = 1;
nodes = (
(278,-12,o),
(342,23,o),
(378,76,c),
(384,0,l),
(434,0,l),
(436,94,o),
(451,159,o),
(456,183,cs),
(568,708,l),
(514,708,l),
(447,401,l),
(432,466,o),
(369,506,o),
(295,506,cs),
(118,506,o),
(36,329,o),
(36,194,cs),
(36,71,o),
(99,-12,o),
(208,-12,cs)
);
},
{
closed = 1;
nodes = (
(136,36,o),
(91,100,o),
(91,194,cs),
(91,296,o),
(144,458,o),
(292,458,cs),
(375,458,o),
(421,405,o),
(421,314,cs),
(421,203,o),
(354,36,o),
(221,36,cs)
);
}
);
width = 549;
},
{
anchors = (
{
name = bottom;
pos = (254,0);
},
{
name = center;
pos = (521,584);
},
{
name = top;
pos = (423,796);
},
{
name = topright;
pos = (634,496);
}
);
layerId = m004;
shapes = (
{
closed = 1;
nodes = (
(255,-12,o),
(321,11,o),
(362,60,c),
(368,0,l),
(525,0,l),
(526,70,o),
(538,142,o),
(550,198,cs),
(659,708,l),
(495,708,l),
(434,427,l),
(411,482,o),
(348,511,o),
(283,511,cs),
(101,511,o),
(23,328,o),
(23,197,cs),
(23,77,o),
(88,-12,o),
(208,-12,cs)
);
},
{
closed = 1;
nodes = (
(225,115,o),
(195,162,o),
(195,221,cs),
(195,283,o),
(232,385,o),
(322,385,cs),
(376,385,o),
(409,350,o),
(409,289,cs),
(409,231,o),
(376,115,o),
(283,115,cs)
);
}
);
width = 611;
},
{
anchors = (
{
name = bottom;
pos = (224,0);
},
{
name = center;
pos = (484,582);
},
{
name = top;
pos = (393,796);
},
{
name = topright;
pos = (585,497);
}
);
layerId = "685EC287-0A44-43F1-AA0E-B98846C13147";
name = "AHL Variable 06 FROM Regular Italic";
shapes = (
{
closed = 1;
nodes = (
(275,-12,o),
(336,19,o),
(373,70,c),
(379,0,l),
(458,0,l),
(461,87,o),
(474,154,o),
(481,187,cs),
(592,708,l),
(508,708,l),
(443,408,l),
(424,466,o),
(363,504,o),
(294,504,cs),
(114,504,o),
(32,325,o),
(32,190,cs),
(32,71,o),
(96,-12,o),
(208,-12,cs)
);
},
{
closed = 1;
nodes = (
(163,60,o),
(123,116,o),
(123,196,cs),
(123,290,o),
(171,432,o),
(300,432,cs),
(375,432,o),
(417,386,o),
(417,305,cs),
(417,213,o),
(363,60,o),
(240,60,cs)
);
}
);
width = 563;
},
{
anchors = (
{
name = bottom;
pos = (248,0);
},
{
name = center;
pos = (522,584);
},
{
name = top;
pos = (417,796);
},
{
name = topright;
pos = (625,496);
}
);
layerId = "FD063E2A-CA5A-4098-9599-3D7AAD1E2DEB";
name = "AHL Variable 06 FROM Bold Italic";
shapes = (
{
closed = 1;
nodes = (
(257,-12,o),
(322,12,o),
(363,62,c),
(368,0,l),
(513,0,l),
(514,73,o),
(527,144,o),
(538,196,cs),
(647,708,l),
(495,708,l),
(434,424,l),
(412,479,o),
(351,510,o),
(286,510,cs),
(110,510,o),
(24,327,o),
(24,194,cs),
(24,49,o),
(121,-12,o),
(203,-12,cs)
);
},
{
closed = 1;
nodes = (
(217,106,o),
(183,147,o),
(183,213,cs),
(183,275,o),
(225,392,o),
(321,392,cs),
(373,392,o),
(408,355,o),
(408,287,cs),
(408,222,o),
(365,106,o),
(272,106,cs)
);
}
);
width = 602;
}
);
metricLeft = o;
unicode = 100;
},
{
glyphname = dcroat;
kernLeft = o;
kernRight = d;
lastChange = "2024-11-01 12:02:53 +0000";
layers = (
{
layerId = m003;
shapes = (
{
closed = 1;
nodes = (
(278,-12,o),
(342,23,o),
(378,76,c),
(384,0,l),
(434,0,l),
(436,94,o),
(451,159,o),
(456,183,cs),
(537,561,l),
(612,561,l),
(620,601,l),
(545,601,l),
(568,708,l),
(514,708,l),
(491,601,l),
(332,601,l),
(324,561,l),
(482,561,l),
(447,401,l),
(432,466,o),
(369,506,o),
(295,506,cs),
(118,506,o),
(36,329,o),
(36,194,cs),
(36,71,o),
(99,-12,o),
(208,-12,cs)
);
},
{
closed = 1;
nodes = (
(136,36,o),
(91,100,o),
(91,194,cs),
(91,296,o),
(144,458,o),
(292,458,cs),
(375,458,o),
(421,405,o),
(421,314,cs),
(421,203,o),
(354,36,o),
(221,36,cs)
);
}
);
width = 549;
},
{
layerId = m004;
shapes = (
{
closed = 1;
nodes = (
(255,-12,o),
(321,11,o),
(362,60,c),
(368,0,l),
(525,0,l),
(526,70,o),
(538,142,o),
(550,198,cs),
(624,544,l),
(699,544,l),
(717,624,l),
(641,624,l),
(659,708,l),
(495,708,l),
(477,624,l),
(341,624,l),
(323,544,l),
(459,544,l),
(434,427,l),
(411,482,o),
(348,511,o),
(283,511,cs),
(101,511,o),
(23,328,o),
(23,197,cs),
(23,77,o),
(88,-12,o),
(208,-12,cs)
);
},
{
closed = 1;
nodes = (
(225,115,o),
(195,162,o),
(195,221,cs),
(195,283,o),
(232,385,o),
(322,385,cs),
(376,385,o),
(409,350,o),
(409,289,cs),
(409,231,o),
(376,115,o),
(283,115,cs)
);
}
);
width = 612;
},
{
layerId = "685EC287-0A44-43F1-AA0E-B98846C13147";
shapes = (
{
closed = 1;
nodes = (
(275,-12,o),
(336,19,o),
(373,70,c),
(379,0,l),
(458,0,l),
(461,87,o),
(474,154,o),
(481,187,cs),
(558,548,l),
(644,548,l),
(658,615,l),
(572,615,l),
(592,708,l),
(508,708,l),
(488,615,l),
(329,615,l),
(315,548,l),
(473,548,l),
(443,408,l),
(424,466,o),
(363,504,o),
(294,504,cs),
(114,504,o),
(32,325,o),
(32,190,cs),
(32,71,o),
(96,-12,o),
(208,-12,cs)
);
},
{
closed = 1;
nodes = (
(163,60,o),
(123,116,o),
(123,196,cs),
(123,290,o),
(171,432,o),
(300,432,cs),
(375,432,o),
(417,386,o),
(417,305,cs),
(417,213,o),
(363,60,o),
(240,60,cs)
);
}
);
width = 564;
},
{
layerId = "FD063E2A-CA5A-4098-9599-3D7AAD1E2DEB";
shapes = (
{
closed = 1;
nodes = (
(257,-12,o),
(322,12,o),
(363,62,c),
(368,0,l),
(513,0,l),
(514,73,o),
(527,144,o),
(538,196,cs),
(612,545,l),
(697,545,l),
(713,623,l),
(629,623,l),
(647,708,l),
(495,708,l),
(477,623,l),
(344,623,l),
(328,545,l),
(460,545,l),
(434,424,l),
(412,479,o),
(351,510,o),
(286,510,cs),
(110,510,o),
(24,327,o),
(24,194,cs),
(24,49,o),
(121,-12,o),
(203,-12,cs)
);
},
{
closed = 1;
nodes = (
(217,106,o),
(183,147,o),
(183,213,cs),
(183,275,o),
(225,392,o),
(321,392,cs),
(373,392,o),
(408,355,o),
(408,287,cs),
(408,222,o),
(365,106,o),
(272,106,cs)
);
}
);
width = 603;
}
);
metricLeft = d;
unicode = 273;
},
{
glyphname = eth;
kernLeft = o;
kernRight = eth;
lastChange = "2024-11-01 12:02:53 +0000";
layers = (
{
anchors = (
{
name = bottom;
pos = (217,0);
},
{
name = top;
pos = (386,796);
}
);
layerId = m003;
shapes = (
{
closed = 1;
nodes = (
(433,-12,o),
(506,221,o),
(506,424,cs),
(506,508,o),
(494,568,o),
(462,617,c),
(520,659,l),
(495,689,l),
(436,645,l),
(387,683,o),
(325,701,o),
(260,708,c),
(250,663,l),
(311,656,o),
(364,638,o),
(394,613,c),
(302,548,l),
(326,516,l),
(420,585,l),
(464,520,o),
(461,419,o),
(451,306,c),
(437,389,o),
(363,441,o),
(275,441,cs),
(124,441,o),
(31,308,o),
(31,183,cs),
(31,78,o),
(99,-12,o),
(226,-12,cs)
);
},
{
closed = 1;
nodes = (
(139,36,o),
(85,95,o),
(85,180,cs),
(85,287,o),
(157,394,o),
(271,394,cs),
(364,394,o),
(417,329,o),
(417,243,cs),
(417,136,o),
(343,36,o),
(228,36,cs)
);
}
);
width = 545;
},
{
anchors = (
{
name = bottom;
pos = (247,0);
},
{
name = top;
pos = (416,796);
}
);
layerId = m004;
shapes = (
{
closed = 1;
nodes = (
(498,-12,o),
(588,225,o),
(588,398,cs),
(588,505,o),
(553,591,o),
(515,629,c),
(587,682,l),
(545,734,l),
(465,675,l),
(420,711,o),
(358,736,o),
(270,746,c),
(243,617,l),
(283,613,o),
(318,601,o),
(346,585,c),
(282,538,l),
(323,485,l),
(398,542,l),
(436,497,o),
(439,441,o),
(428,396,c),
(387,437,o),
(336,453,o),
(279,453,cs),
(142,453,o),
(21,350,o),
(21,196,cs),
(21,62,o),
(127,-12,o),
(269,-12,cs)
);
},
{
closed = 1;
nodes = (
(224,109,o),
(187,140,o),
(187,197,cs),
(187,250,o),
(219,332,o),
(302,332,cs),
(349,332,o),
(391,302,o),
(391,243,cs),
(391,180,o),
(351,109,o),
(274,109,cs)
);
}
);
width = 599;
},
{
anchors = (
{
name = bottom;
pos = (226,0);
},
{
name = top;
pos = (395,796);
}
);
layerId = "685EC287-0A44-43F1-AA0E-B98846C13147";
name = "AHL Variable 06 FROM Regular Italic";
shapes = (
{
closed = 1;
nodes = (
(452,-12,o),
(529,222,o),
(529,417,cs),
(529,506,o),
(511,573,o),
(479,618,c),
(542,664,l),
(510,704,l),
(443,655,l),
(395,692,o),
(334,711,o),
(264,719,c),
(249,650,l),
(303,644,o),
(350,628,o),
(380,607,c),
(294,546,l),
(326,505,l),
(417,571,l),
(457,512,o),
(456,424,o),
(446,331,c),
(424,402,o),
(357,445,o),
(277,445,cs),
(130,445,o),
(29,319,o),
(29,186,cs),
(29,74,o),
(108,-12,o),
(239,-12,cs)
);
},
{
closed = 1;
nodes = (
(163,59,o),
(114,107,o),
(114,185,cs),
(114,274,o),
(175,371,o),
(280,371,cs),
(361,371,o),
(411,316,o),
(411,243,cs),
(411,148,o),
(346,59,o),
(242,59,cs)
);
}
);
width = 565;
},
{
anchors = (
{
name = bottom;
pos = (244,0);
},
{
name = top;
pos = (413,796);
}
);
layerId = "FD063E2A-CA5A-4098-9599-3D7AAD1E2DEB";
name = "AHL Variable 06 FROM Bold Italic";
shapes = (
{
closed = 1;
nodes = (
(491,-12,o),
(579,225,o),
(579,401,cs),
(579,504,o),
(548,587,o),
(511,627,c),
(581,678,l),
(538,731,l),
(461,673,l),
(415,709,o),
(354,732,o),
(270,742,c),
(245,621,l),
(285,616,o),
(322,605,o),
(349,589,c),
(283,541,l),
(325,488,l),
(402,545,l),
(439,499,o),
(441,438,o),
(431,387,c),
(393,432,o),
(340,452,o),
(280,452,cs),
(141,452,o),
(23,345,o),
(23,194,cs),
(23,64,o),
(125,-12,o),
(265,-12,cs)
);
},
{
closed = 1;
nodes = (
(215,101,o),
(176,135,o),
(176,195,cs),
(176,254,o),
(213,338,o),
(299,338,cs),
(352,338,o),
(395,305,o),
(395,243,cs),
(395,175,o),
(351,101,o),
(270,101,cs)
);
}
);
width = 593;
}
);
metricLeft = d;
unicode = 240;
},
{
glyphname = e;
kernLeft = o;
kernRight = e;
lastChange = "2024-11-01 12:02:53 +0000";
layers = (
{
anchors = (
{
name = bottom;
pos = (206,0);
},
{
name = ogonek;
pos = (383,10);
},
{
name = top;
pos = (312,496);
}
);
guides = (
{
angle = 78;
pos = (453,174);
},
{
angle = 78;
pos = (410,174);
}
);
layerId = m003;
shapes = (
{
closed = 1;
nodes = (
(317,-12,o),
(376,12,o),
(433,80,c),
(379,100,l),
(344,54,o),
(295,36,o),
(244,36,cs),
(129,36,o),
(79,132,o),
(95,244,c),
(483,244,l),
(512,386,o),
(436,506,o),
(297,506,cs),
(138,506,o),
(36,346,o),
(36,197,cs),
(36,74,o),
(112,-12,o),
(243,-12,cs)
);
},
{
closed = 1;
nodes = (
(129,372,o),
(187,458,o),
(293,458,cs),
(393,458,o),
(443,378,o),
(434,289,c),
(105,289,l)
);
}
);
width = 522;
},
{
anchors = (
{
name = bottom;
pos = (239,0);
},
{
name = ogonek;
pos = (457,10);
},
{
name = top;
pos = (344,496);
}
);
layerId = m004;
shapes = (
{
closed = 1;
nodes = (
(365,-12,o),
(450,25,o),
(508,95,c),
(381,146,l),
(360,121,o),
(321,114,o),
(289,114,cs),
(224,114,o),
(187,149,o),
(181,205,c),
(549,205,l),
(588,383,o),
(492,511,o),
(324,511,cs),
(153,511,o),
(26,382,o),
(26,215,cs),
(26,78,o),
(126,-12,o),
(275,-12,cs)
);
},
{
closed = 1;
nodes = (
(214,348,o),
(252,390,o),
(319,390,cs),
(373,390,o),
(417,363,o),
(416,301,c),
(195,301,l)
);
}
);
width = 576;
},
{
anchors = (
{
name = bottom;
pos = (216,0);
},
{
name = ogonek;
pos = (406,10);
},
{
name = top;
pos = (322,496);
}
);
layerId = "685EC287-0A44-43F1-AA0E-B98846C13147";
name = "AHL Variable 06 FROM Regular Italic";
shapes = (
{
closed = 1;
nodes = (
(333,-12,o),
(400,15,o),
(457,83,c),
(378,114,l),
(347,72,o),
(302,62,o),
(257,62,cs),
(187,62,o),
(113,103,o),
(117,225,c),
(500,225,l),
(537,376,o),
(454,504,o),
(305,504,cs),
(143,504,o),
(34,356,o),
(34,202,cs),
(34,75,o),
(117,-12,o),
(253,-12,cs)
);
},
{
closed = 1;
nodes = (
(152,362,o),
(205,432,o),
(301,432,cs),
(388,432,o),
(437,371,o),
(430,292,c),
(130,292,l)
);
}
);
width = 538;
},
{
anchors = (
{
name = bottom;
pos = (236,0);
},
{
name = ogonek;
pos = (449,10);
},
{
name = top;
pos = (341,496);
}
);
layerId = "FD063E2A-CA5A-4098-9599-3D7AAD1E2DEB";
name = "AHL Variable 06 FROM Bold Italic";
shapes = (
{
closed = 1;
nodes = (
(359,-12,o),
(444,22,o),
(502,92,c),
(381,142,l),
(359,113,o),
(320,106,o),
(285,106,cs),
(215,106,o),
(176,145,o),
(171,208,c),
(542,208,l),
(581,382,o),
(486,510,o),
(322,510,cs),
(152,510,o),
(28,378,o),
(28,213,cs),
(28,78,o),
(125,-12,o),
(272,-12,cs)
);
},
{
closed = 1;
nodes = (
(205,351,o),
(245,397,o),
(317,397,cs),
(376,397,o),
(421,365,o),
(419,300,c),
(186,300,l)
);
}
);
width = 569;
}
);
metricLeft = o;
unicode = 101;
},
{
glyphname = eogonek;
kernLeft = o;
kernRight = e;
lastChange = "2024-11-01 12:02:53 +0000";
layers = (
{
anchors = (
{
name = bottom;
pos = (206,0);
},
{
name = top;
pos = (312,496);
}
);
guides = (
{
angle = 78;
pos = (453,174);
},
{
angle = 78;
pos = (410,174);
}
);
layerId = m003;
shapes = (
{
closed = 1;
nodes = (
(322,-168,o),
(333,-167,o),
(347,-163,c),
(356,-123,l),
(347,-126,o),
(339,-127,o),
(332,-127,cs),
(302,-127,o),
(279,-115,o),
(279,-86,cs),
(279,-51,o),
(309,-13,o),
(345,8,cs),
(375,25,o),
(405,46,o),
(433,80,c),
(379,100,l),
(344,54,o),
(295,36,o),
(244,36,cs),
(129,36,o),
(79,132,o),
(95,244,c),
(483,244,l),
(512,386,o),
(436,506,o),
(297,506,cs),
(138,506,o),
(36,346,o),
(36,197,cs),
(36,41,o),
(155,-29,o),
(283,-9,c),
(254,-35,o),
(230,-70,o),
(230,-104,cs),
(230,-145,o),
(263,-168,o),
(314,-168,cs)
);
},
{
closed = 1;
nodes = (
(129,372,o),
(187,458,o),
(293,458,cs),
(393,458,o),
(443,378,o),
(434,289,c),
(105,289,l)
);
}
);
width = 522;
},
{
anchors = (
{
name = bottom;
pos = (239,0);
},
{
name = top;
pos = (344,496);
}
);
guides = (
{
angle = 78;
pos = (480,-36);
},
{
angle = 78;
pos = (438,-36);
}
);
layerId = m004;
shapes = (
{
closed = 1;
nodes = (
(392,-174,o),
(404,-174,o),
(419,-172,c),
(436,-91,l),
(430,-92,o),
(412,-95,o),
(393,-95,cs),
(364,-95,o),
(346,-83,o),
(346,-61,cs),
(346,-29,o),
(385,3,o),
(422,24,cs),
(454,42,o),
(483,65,o),
(508,95,c),
(381,146,l),
(360,121,o),
(321,114,o),
(289,114,cs),
(224,114,o),
(187,149,o),
(181,205,c),
(549,205,l),
(588,383,o),
(492,511,o),
(324,511,cs),
(153,511,o),
(26,382,o),
(26,215,cs),
(26,88,o),
(112,1,o),
(244,-11,c),
(222,-32,o),
(206,-57,o),
(206,-83,cs),
(206,-151,o),
(293,-174,o),
(383,-174,cs)
);
},
{
closed = 1;
nodes = (
(214,348,o),
(252,390,o),
(319,390,cs),
(373,390,o),
(417,363,o),
(416,301,c),
(195,301,l)
);
}
);
width = 576;
},
{
anchors = (
{
name = bottom;
pos = (216,0);
},
{
name = top;
pos = (322,496);
}
);
layerId = "685EC287-0A44-43F1-AA0E-B98846C13147";
shapes = (
{
closed = 1;
nodes = (
(334,-173,o),
(350,-171,o),
(368,-167,c),
(381,-110,l),
(371,-113,o),
(359,-115,o),
(348,-115,cs),
(323,-115,o),
(300,-106,o),
(300,-76,cs),
(300,-40,o),
(335,-7,o),
(367,11,cs),
(397,28,o),
(430,49,o),
(457,83,c),
(378,114,l),
(347,72,o),
(302,62,o),
(257,62,cs),
(187,62,o),
(113,103,o),
(117,225,c),
(500,225,l),
(537,376,o),
(454,504,o),
(305,504,cs),
(143,504,o),
(34,356,o),
(34,202,cs),
(34,65,o),
(128,-18,o),
(270,-12,c),
(244,-36,o),
(227,-67,o),
(227,-100,cs),
(227,-148,o),
(270,-173,o),
(319,-173,cs)
);
},
{
closed = 1;
nodes = (
(152,362,o),
(205,432,o),
(301,432,cs),
(388,432,o),
(437,371,o),
(430,292,c),
(130,292,l)
);
}
);
width = 538;
},
{
anchors = (
{
name = bottom;
pos = (236,0);
},
{
name = top;
pos = (341,496);
}
);
layerId = "FD063E2A-CA5A-4098-9599-3D7AAD1E2DEB";
shapes = (
{
closed = 1;
nodes = (
(389,-174,o),
(401,-174,o),
(411,-173,c),
(428,-94,l),
(421,-96,o),
(404,-98,o),
(387,-98,cs),
(357,-98,o),
(339,-86,o),
(339,-63,cs),
(339,-32,o),
(375,0,o),
(411,21,cs),
(443,40,o),
(477,61,o),
(502,92,c),
(381,142,l),
(359,113,o),
(320,106,o),
(285,106,cs),
(215,106,o),
(176,145,o),
(171,208,c),
(542,208,l),
(581,382,o),
(486,510,o),
(322,510,cs),
(152,510,o),
(28,378,o),
(28,213,cs),
(28,83,o),
(117,-5,o),
(254,-12,c),
(227,-33,o),
(209,-58,o),
(209,-83,cs),
(209,-150,o),
(290,-174,o),
(376,-174,cs)
);
},
{
closed = 1;
nodes = (
(205,351,o),
(245,397,o),
(317,397,cs),
(376,397,o),
(421,365,o),
(419,300,c),
(186,300,l)
);
}
);
width = 569;
}
);
metricLeft = e;
metricRight = e;
unicode = 281;
},
{
glyphname = f;
kernLeft = f;
kernRight = f;
lastChange = "2024-11-01 12:02:53 +0000";
layers = (
{
anchors = (
{
name = bottom;
pos = (67,0);
},
{
name = top;
pos = (236,796);
}
);
layerId = m003;
shapes = (
{
closed = 1;
nodes = (
(104,0,l),
(200,452,l),
(300,452,l),
(309,496,l),
(209,496,l),
(234,612,ls),
(244,658,o),
(255,668,o),
(284,668,cs),
(346,668,l),
(356,716,l),
(278,716,ls),
(220,716,o),
(198,695,o),
(179,608,cs),
(155,496,l),
(70,496,l),
(61,452,l),
(146,452,l),
(50,0,l)
);
}
);
width = 286;
},
{
anchors = (
{
name = bottom;
pos = (143,0);
},
{
name = top;
pos = (312,796);
}
);
layerId = m004;
shapes = (
{
closed = 1;
nodes = (
(203,0,l),
(282,371,l),
(390,371,l),
(417,496,l),
(308,496,l),
(319,547,ls),
(327,583,o),
(345,589,o),
(398,589,cs),
(437,589,l),
(464,718,l),
(353,718,ls),
(253,718,o),
(188,702,o),
(162,581,cs),
(144,496,l),
(63,496,l),
(36,371,l),
(118,371,l),
(39,0,l)
);
}
);
width = 389;
},
{
anchors = (
{
name = bottom;
pos = (88,0);
},
{
name = top;
pos = (257,796);
}
);
layerId = "685EC287-0A44-43F1-AA0E-B98846C13147";
name = "AHL Variable 06 FROM Regular Italic";
shapes = (
{
closed = 1;
nodes = (
(131,0,l),
(221,429,l),
(323,429,l),
(338,496,l),
(236,496,l),
(256,588,ls),
(266,633,o),
(275,646,o),
(315,646,cs),
(371,646,l),
(385,717,l),
(298,717,ls),
(229,717,o),
(195,697,o),
(174,601,cs),
(152,496,l),
(69,496,l),
(54,429,l),
(137,429,l),
(47,0,l)
);
}
);
width = 314;
},
{
anchors = (
{
name = bottom;
pos = (134,0);
},
{
name = top;
pos = (303,796);
}
);
layerId = "FD063E2A-CA5A-4098-9599-3D7AAD1E2DEB";
name = "AHL Variable 06 FROM Bold Italic";
shapes = (
{
closed = 1;
nodes = (
(192,0,l),
(273,380,l),
(380,380,l),
(405,496,l),
(297,496,l),
(310,554,ls),
(318,591,o),
(335,598,o),
(386,598,cs),
(426,598,l),
(451,718,l),
(344,718,ls),
(249,718,o),
(189,701,o),
(164,584,cs),
(145,496,l),
(64,496,l),
(39,380,l),
(121,380,l),
(40,0,l)
);
}
);
width = 377;
}
);
unicode = 102;
},
{
glyphname = g;
kernLeft = g;
kernRight = g;
lastChange = "2024-11-01 12:02:53 +0000";
layers = (
{
anchors = (
{
name = bottom;
pos = (159,-251);
},
{
name = top;
pos = (312,496);
}
);
layerId = m003;
shapes = (
{
closed = 1;
nodes = (
(303,-186,o),
(383,-129,o),
(405,-24,cs),
(515,496,l),
(475,496,l),
(442,409,l),
(420,465,o),
(362,506,o),
(294,506,cs),
(133,506,o),
(37,356,o),
(37,200,cs),
(37,85,o),
(100,4,o),
(210,4,cs),
(289,4,o),
(344,51,o),
(375,94,c),
(352,-14,ls),
(335,-95,o),
(284,-137,o),
(202,-137,cs),
(129,-137,o),
(80,-106,o),
(71,-56,c),
(16,-70,l),
(29,-149,o),
(116,-186,o),
(197,-186,cs)
);
},
{
closed = 1;
nodes = (
(139,52,o),
(92,115,o),
(92,204,cs),
(92,296,o),
(143,458,o),
(294,458,cs),
(370,458,o),
(417,406,o),
(417,318,cs),
(417,225,o),
(359,52,o),
(223,52,cs)
);
}
);
width = 538;
},
{
anchors = (
{
name = bottom;
pos = (205,-251);
},
{
name = top;
pos = (360,496);
}
);
layerId = m004;
shapes = (
{
closed = 1;
nodes = (
(388,-205,o),
(483,-138,o),
(516,17,cs),
(618,496,l),
(474,496,l),
(437,424,l),
(407,481,o),
(352,512,o),
(283,512,cs),
(131,512,o),
(28,372,o),
(28,225,cs),
(28,109,o),
(102,20,o),
(207,20,cs),
(277,20,o),
(328,46,o),
(367,89,c),
(349,1,ls),
(338,-53,o),
(304,-82,o),
(248,-82,cs),
(202,-82,o),
(166,-61,o),
(152,-34,c),
(20,-88,l),
(41,-147,o),
(119,-205,o),
(247,-205,cs)
);
},
{
closed = 1;
nodes = (
(238,147,o),
(203,183,o),
(203,242,cs),
(203,296,o),
(233,385,o),
(321,385,cs),
(381,385,o),
(414,344,o),
(414,288,cs),
(414,236,o),
(383,147,o),
(299,147,cs)
);
}
);
width = 613;
},
{
anchors = (
{
name = bottom;
pos = (170,-251);
},
{
name = top;
pos = (324,496);
}
);
layerId = "685EC287-0A44-43F1-AA0E-B98846C13147";
name = "AHL Variable 06 FROM Regular Italic";
shapes = (
{
closed = 1;
nodes = (
(325,-192,o),
(408,-134,o),
(434,-14,cs),
(542,496,l),
(481,496,l),
(439,410,l),
(409,483,o),
(342,504,o),
(288,504,cs),
(135,504,o),
(35,355,o),
(35,210,cs),
(35,93,o),
(105,9,o),
(222,9,cs),
(285,9,o),
(333,36,o),
(369,76,c),
(352,-4,ls),
(333,-90,o),
(282,-119,o),
(219,-119,cs),
(172,-119,o),
(114,-103,o),
(100,-50,c),
(18,-73,l),
(37,-160,o),
(136,-192,o),
(213,-192,cs)
);
},
{
closed = 1;
nodes = (
(177,79,o),
(124,127,o),
(124,211,cs),
(124,292,o),
(168,432,o),
(297,432,cs),
(371,432,o),
(413,386,o),
(413,310,cs),
(413,221,o),
(365,79,o),
(245,79,cs)
);
}
);
width = 560;
},
{
anchors = (
{
name = bottom;
pos = (199,-251);
},
{
name = top;
pos = (353,496);
}
);
layerId = "FD063E2A-CA5A-4098-9599-3D7AAD1E2DEB";
name = "AHL Variable 06 FROM Bold Italic";
shapes = (
{
closed = 1;
nodes = (
(377,-203,o),
(470,-137,o),
(502,12,cs),
(605,496,l),
(473,496,l),
(437,422,l),
(408,479,o),
(352,511,o),
(284,511,cs),
(132,511,o),
(30,370,o),
(30,222,cs),
(30,106,o),
(103,18,o),
(207,18,cs),
(278,18,o),
(329,47,o),
(367,90,c),
(348,-1,ls),
(337,-58,o),
(301,-88,o),
(242,-88,cs),
(192,-88,o),
(155,-66,o),
(142,-37,c),
(20,-85,l),
(39,-147,o),
(118,-203,o),
(240,-203,cs)
);
},
{
closed = 1;
nodes = (
(225,136,o),
(189,174,o),
(189,237,cs),
(189,295,o),
(221,392,o),
(317,392,cs),
(379,392,o),
(413,350,o),
(413,290,cs),
(413,229,o),
(379,136,o),
(289,136,cs)
);
}
);
width = 603;
}
);
metricLeft = o;
metricRight = n;
unicode = 103;
},
{
glyphname = h;
kernLeft = h;
kernRight = h;
lastChange = "2024-11-01 12:02:53 +0000";
layers = (
{
anchors = (
{
name = bottom;
pos = (209,0);
},
{
name = center;
pos = (215,581);
},
{
name = top;
pos = (378,796);
}
);
layerId = m003;
shapes = (
{
closed = 1;
nodes = (
(77,0,l),
(135,273,ls),
(159,387,o),
(228,457,o),
(322,457,cs),
(405,457,o),
(440,398,o),
(419,298,cs),
(355,0,l),
(409,0,l),
(475,308,ls),
(504,444,o),
(428,505,o),
(338,505,cs),
(258,505,o),
(198,467,o),
(166,419,c),
(227,708,l),
(173,708,l),
(23,0,l)
);
}
);
width = 537;
},
{
anchors = (
{
name = bottom;
pos = (240,0);
},
{
name = center;
pos = (234,584);
},
{
name = top;
pos = (409,796);
}
);
layerId = m004;
shapes = (
{
closed = 1;
nodes = (
(162,0,l),
(215,252,ls),
(233,339,o),
(264,385,o),
(325,385,cs),
(382,385,o),
(391,338,o),
(378,276,cs),
(319,0,l),
(484,0,l),
(548,300,ls),
(577,434,o),
(529,511,o),
(413,511,cs),
(337,511,o),
(282,473,o),
(254,432,c),
(312,708,l),
(147,708,l),
(-3,0,l)
);
}
);
width = 585;
},
{
anchors = (
{
name = bottom;
pos = (221,0);
},
{
name = center;
pos = (219,582);
},
{
name = top;
pos = (390,796);
}
);
layerId = "685EC287-0A44-43F1-AA0E-B98846C13147";
name = "AHL Variable 06 FROM Regular Italic";
shapes = (
{
closed = 1;
nodes = (
(104,0,l),
(161,267,ls),
(183,374,o),
(241,432,o),
(324,432,cs),
(398,432,o),
(426,379,o),
(407,292,cs),
(344,0,l),
(428,0,l),
(494,306,ls),
(522,438,o),
(455,504,o),
(357,504,cs),
(283,504,o),
(224,466,o),
(193,421,c),
(254,708,l),
(170,708,l),
(20,0,l)
);
}
);
width = 552;
},
{
anchors = (
{
name = bottom;
pos = (237,0);
},
{
name = center;
pos = (225,584);
},
{
name = top;
pos = (406,796);
}
);
layerId = "FD063E2A-CA5A-4098-9599-3D7AAD1E2DEB";
name = "AHL Variable 06 FROM Bold Italic";
shapes = (
{
closed = 1;
nodes = (
(153,0,l),
(207,254,ls),
(226,344,o),
(261,392,o),
(324,392,cs),
(383,392,o),
(395,344,o),
(381,279,cs),
(321,0,l),
(473,0,l),
(537,301,ls),
(566,435,o),
(515,510,o),
(403,510,cs),
(329,510,o),
(273,472,o),
(245,430,c),
(303,708,l),
(151,708,l),
(1,0,l)
);
}
);
width = 577;
}
);
metricLeft = n;
metricRight = n;
unicode = 104;
},
{
glyphname = hbar;
kernLeft = h;
kernRight = h;
lastChange = "2024-11-01 12:02:53 +0000";
layers = (
{
layerId = m003;
shapes = (
{
closed = 1;
nodes = (
(76,0,l),
(134,273,ls),
(158,387,o),
(227,457,o),
(321,457,cs),
(404,457,o),
(439,398,o),
(418,298,cs),
(354,0,l),
(408,0,l),
(474,308,ls),
(503,444,o),
(427,505,o),
(337,505,cs),
(257,505,o),
(197,467,o),
(165,419,c),
(195,561,l),
(354,561,l),
(362,601,l),
(203,601,l),
(226,708,l),
(172,708,l),
(149,601,l),
(74,601,l),
(66,561,l),
(141,561,l),
(22,0,l)
);
}
);
width = 536;
},
{
layerId = m004;
shapes = (
{
closed = 1;
nodes = (
(162,0,l),
(215,252,ls),
(233,339,o),
(264,385,o),
(325,385,cs),
(382,385,o),
(391,338,o),
(378,276,cs),
(319,0,l),
(484,0,l),
(548,300,ls),
(577,434,o),
(529,511,o),
(413,511,cs),
(337,511,o),
(282,473,o),
(254,432,c),
(278,544,l),
(414,544,l),
(432,624,l),
(294,624,l),
(312,708,l),
(147,708,l),
(129,624,l),
(55,624,l),
(37,544,l),
(112,544,l),
(-3,0,l)
);
}
);
width = 585;
},
{
layerId = "685EC287-0A44-43F1-AA0E-B98846C13147";
shapes = (
{
closed = 1;
nodes = (
(102,0,l),
(159,267,ls),
(181,374,o),
(239,432,o),
(322,432,cs),
(396,432,o),
(424,379,o),
(405,292,cs),
(342,0,l),
(426,0,l),
(492,306,ls),
(520,438,o),
(453,504,o),
(355,504,cs),
(281,504,o),
(222,466,o),
(191,421,c),
(218,548,l),
(377,548,l),
(391,615,l),
(232,615,l),
(252,708,l),
(168,708,l),
(148,615,l),
(62,615,l),
(48,548,l),
(134,548,l),
(18,0,l)
);
}
);
width = 550;
},
{
layerId = "FD063E2A-CA5A-4098-9599-3D7AAD1E2DEB";
shapes = (
{
closed = 1;
nodes = (
(152,0,l),
(206,254,ls),
(225,344,o),
(260,392,o),
(323,392,cs),
(382,392,o),
(394,344,o),
(380,279,cs),
(320,0,l),
(472,0,l),
(536,301,ls),
(565,435,o),
(514,510,o),
(402,510,cs),
(328,510,o),
(272,472,o),
(244,430,c),
(268,545,l),
(400,545,l),
(416,623,l),
(284,623,l),
(302,708,l),
(150,708,l),
(132,623,l),
(46,623,l),
(30,545,l),
(115,545,l),
(0,0,l)
);
}
);
width = 576;
}
);
metricRight = h;
unicode = 295;
},
{
glyphname = idotless;
kernLeft = i;
kernRight = i;
lastChange = "2024-11-01 12:02:53 +0000";
layers = (
{
anchors = (
{
name = bottom;
pos = (57,0);
},
{
name = ogonek;
pos = (92,10);
},
{
name = top;
pos = (158,496);
}
);
layerId = m003;
shapes = (
{
closed = 1;
nodes = (
(90,0,l),
(196,496,l),
(81,496,l),
(71,452,l),
(132,452,l),
(36,0,l)
);
}
);
width = 220;
},
{
anchors = (
{
name = bottom;
pos = (86,0);
},
{
name = ogonek;
pos = (221,10);
},
{
name = top;
pos = (233,496);
}
);
layerId = m004;
shapes = (
{
closed = 1;
nodes = (
(219,0,l),
(325,496,l),
(73,496,l),
(46,372,l),
(132,372,l),
(53,0,l)
);
}
);
width = 323;
},
{
anchors = (
{
name = bottom;
pos = (65,0);
},
{
name = ogonek;
pos = (127,10);
},
{
name = top;
pos = (178,496);
}
);
layerId = "685EC287-0A44-43F1-AA0E-B98846C13147";
name = "AHL Variable 06 FROM Regular Italic";
shapes = (
{
closed = 1;
nodes = (
(125,0,l),
(231,496,l),
(78,496,l),
(63,429,l),
(132,429,l),
(41,0,l)
);
}
);
width = 252;
},
{
anchors = (
{
name = bottom;
pos = (82,0);
},
{
name = ogonek;
pos = (204,10);
},
{
name = top;
pos = (222,496);
}
);
layerId = "FD063E2A-CA5A-4098-9599-3D7AAD1E2DEB";
name = "AHL Variable 06 FROM Bold Italic";
shapes = (
{
closed = 1;
nodes = (
(202,0,l),
(308,496,l),
(73,496,l),
(48,381,l),
(131,381,l),
(50,0,l)
);
}
);
width = 310;
}
);
metricRight = "=|n+2";
unicode = 305;
},
{
glyphname = iogonek;
kernLeft = i;
kernRight = i;
lastChange = "2024-11-01 12:02:53 +0000";
layers = (
{
anchors = (
{
name = bottom;
pos = (57,0);
},
{
name = top;
pos = (200,693);
}
);
layerId = m003;
shapes = (
{
closed = 1;
nodes = (
(215,602,o),
(235,622,o),
(235,647,cs),
(235,672,o),
(215,692,o),
(190,692,cs),
(165,692,o),
(145,672,o),
(145,647,cs),
(145,622,o),
(165,602,o),
(190,602,cs)
);
},
{
closed = 1;
nodes = (
(29,-168,o),
(41,-167,o),
(55,-164,c),
(64,-124,l),
(57,-126,o),
(45,-127,o),
(39,-127,cs),
(13,-127,o),
(-14,-121,o),
(-14,-93,cs),
(-14,-49,o),
(44,-14,o),
(90,0,c),
(196,496,l),
(81,496,l),
(71,452,l),
(132,452,l),
(38,7,l),
(-13,-17,o),
(-61,-53,o),
(-61,-105,cs),
(-61,-144,o),
(-28,-168,o),
(17,-168,cs)
);
}
);
width = 220;
},
{
anchors = (
{
name = bottom;
pos = (86,0);
},
{
name = top;
pos = (290,766);
}
);
layerId = m004;
shapes = (
{
closed = 1;
nodes = (
(323,577,o),
(364,618,o),
(364,671,cs),
(364,724,o),
(323,765,o),
(270,765,cs),
(217,765,o),
(176,724,o),
(176,671,cs),
(176,618,o),
(217,577,o),
(270,577,cs)
);
},
{
closed = 1;
nodes = (
(154,-176,o),
(170,-175,o),
(182,-172,c),
(199,-91,l),
(188,-93,o),
(171,-95,o),
(153,-95,cs),
(129,-95,o),
(108,-87,o),
(108,-67,cs),
(108,-38,o),
(155,-9,o),
(219,0,c),
(325,496,l),
(73,496,l),
(46,372,l),
(132,372,l),
(54,5,l),
(11,-14,o),
(-34,-46,o),
(-34,-89,cs),
(-34,-152,o),
(60,-176,o),
(140,-176,cs)
);
}
);
width = 323;
},
{
anchors = (
{
name = bottom;
pos = (65,0);
},
{
name = top;
pos = (224,714);
}
);
layerId = "685EC287-0A44-43F1-AA0E-B98846C13147";
shapes = (
{
closed = 1;
nodes = (
(245,590,o),
(273,618,o),
(273,652,cs),
(273,686,o),
(245,714,o),
(211,714,cs),
(177,714,o),
(149,686,o),
(149,652,cs),
(149,618,o),
(177,590,o),
(211,590,cs)
);
},
{
closed = 1;
nodes = (
(55,-173,o),
(73,-171,o),
(89,-167,c),
(102,-110,l),
(91,-113,o),
(81,-115,o),
(70,-115,cs),
(48,-115,o),
(21,-107,o),
(21,-79,cs),
(21,-38,o),
(83,-14,o),
(125,0,c),
(231,496,l),
(78,496,l),
(63,429,l),
(132,429,l),
(43,8,l),
(-12,-12,o),
(-52,-48,o),
(-52,-100,cs),
(-52,-148,o),
(-9,-173,o),
(40,-173,cs)
);
}
);
width = 252;
},
{
anchors = (
{
name = bottom;
pos = (82,0);
},
{
name = top;
pos = (277,758);
}
);
layerId = "FD063E2A-CA5A-4098-9599-3D7AAD1E2DEB";
shapes = (
{
closed = 1;
nodes = (
(308,578,o),
(348,618,o),
(348,668,cs),
(348,718,o),
(308,758,o),
(258,758,cs),
(208,758,o),
(168,718,o),
(168,668,cs),
(168,618,o),
(208,578,o),
(258,578,cs)
);
},
{
closed = 1;
nodes = (
(140,-174,o),
(156,-173,o),
(165,-172,c),
(181,-95,l),
(171,-97,o),
(154,-98,o),
(137,-98,cs),
(113,-98,o),
(91,-89,o),
(91,-67,cs),
(91,-39,o),
(140,-9,o),
(202,0,c),
(308,496,l),
(73,496,l),
(48,381,l),
(131,381,l),
(51,7,l),
(7,-14,o),
(-40,-46,o),
(-40,-91,cs),
(-40,-151,o),
(47,-174,o),
(123,-174,cs)
);
}
);
width = 310;
}
);
unicode = 303;
},
{
glyphname = jdotless;
kernLeft = j;
kernRight = j;
lastChange = "2024-11-01 12:02:53 +0000";
layers = (
{
anchors = (
{
name = bottom;
pos = (-7,-251);
},
{
name = top;
pos = (163,496);
}
);
layerId = m003;
shapes = (
{
closed = 1;
nodes = (
(-67,-162,ls),
(37,-162,o),
(55,-133,o),
(79,-23,cs),
(190,496,l),
(136,496,l),
(25,-19,ls),
(7,-103,o),
(-4,-114,o),
(-77,-114,cs),
(-128,-114,l),
(-138,-162,l)
);
}
);
width = 214;
},
{
anchors = (
{
name = bottom;
pos = (26,-251);
},
{
name = top;
pos = (185,496);
}
);
layerId = m004;
shapes = (
{
closed = 1;
nodes = (
(-40,-162,ls),
(43,-162,o),
(130,-150,o),
(155,-34,cs),
(267,496,l),
(102,496,l),
(-1,11,ls),
(-9,-27,o),
(-22,-33,o),
(-64,-33,cs),
(-130,-33,l),
(-158,-162,l)
);
}
);
width = 266;
},
{
anchors = (
{
name = bottom;
pos = (15,-251);
},
{
name = top;
pos = (182,496);
}
);
layerId = "685EC287-0A44-43F1-AA0E-B98846C13147";
name = "AHL Variable 06 FROM Regular Italic";
shapes = (
{
closed = 1;
nodes = (
(-47,-162,ls),
(52,-162,o),
(88,-138,o),
(113,-26,cs),
(224,496,l),
(140,496,l),
(32,-7,ls),
(17,-78,o),
(5,-88,o),
(-60,-88,cs),
(-132,-88,l),
(-148,-162,l)
);
}
);
width = 245;
},
{
anchors = (
{
name = bottom;
pos = (23,-251);
},
{
name = top;
pos = (183,496);
}
);
layerId = "FD063E2A-CA5A-4098-9599-3D7AAD1E2DEB";
name = "AHL Variable 06 FROM Bold Italic";
shapes = (
{
closed = 1;
nodes = (
(-42,-162,ls),
(43,-162,o),
(122,-148,o),
(147,-33,cs),
(259,496,l),
(107,496,l),
(3,8,ls),
(-6,-35,o),
(-19,-42,o),
(-65,-42,cs),
(-129,-42,l),
(-155,-162,l)
);
}
);
width = 262;
}
);
metricRight = "=|n+2";
unicode = 567;
},
{
glyphname = k;
kernLeft = h;
kernRight = k;
lastChange = "2024-11-01 12:02:53 +0000";
layers = (
{
anchors = (
{
name = bottom;
pos = (173,0);
},
{
name = top;
pos = (342,796);
}
);
layerId = m003;
shapes = (
{
closed = 1;
nodes = (
(77,0,l),
(116,183,l),
(193,252,l),
(328,0,l),
(388,0,l),
(233,288,l),
(464,496,l),
(393,496,l),
(131,255,l),
(227,708,l),
(173,708,l),
(23,0,l)
);
}
);
width = 451;
},
{
anchors = (
{
name = bottom;
pos = (242,0);
},
{
name = top;
pos = (411,796);
}
);
layerId = m004;
shapes = (
{
closed = 1;
nodes = (
(162,0,l),
(185,108,l),
(256,171,l),
(346,0,l),
(530,0,l),
(376,277,l),
(622,496,l),
(418,496,l),
(229,315,l),
(312,708,l),
(147,708,l),
(-3,0,l)
);
}
);
width = 587;
},
{
anchors = (
{
name = bottom;
pos = (196,0);
},
{
name = top;
pos = (365,796);
}
);
layerId = "685EC287-0A44-43F1-AA0E-B98846C13147";
name = "AHL Variable 06 FROM Regular Italic";
shapes = (
{
closed = 1;
nodes = (
(104,0,l),
(138,162,l),
(213,229,l),
(335,0,l),
(429,0,l),
(276,286,l),
(510,496,l),
(403,496,l),
(161,270,l),
(254,708,l),
(170,708,l),
(20,0,l)
);
}
);
width = 492;
},
{
anchors = (
{
name = bottom;
pos = (235,0);
},
{
name = top;
pos = (404,796);
}
);
layerId = "FD063E2A-CA5A-4098-9599-3D7AAD1E2DEB";
name = "AHL Variable 06 FROM Bold Italic";
shapes = (
{
closed = 1;
nodes = (
(153,0,l),
(178,117,l),
(248,180,l),
(344,0,l),
(513,0,l),
(359,277,l),
(604,496,l),
(416,496,l),
(218,308,l),
(303,708,l),
(151,708,l),
(1,0,l)
);
}
);
width = 570;
}
);
metricLeft = n;
unicode = 107;
},
{
glyphname = l;
kernLeft = l;
kernRight = l;
lastChange = "2024-11-20 12:10:52 +0000";
layers = (
{
anchors = (
{
name = bottom;
pos = (65,0);
},
{
name = center;
pos = (114,317);
},
{
name = top;
pos = (195,708);
},
{
name = topright;
pos = (223,499);
}
);
layerId = m003;
shapes = (
{
closed = 1;
nodes = (
(159,0,l),
(169,46,l),
(139,46,ls),
(94,46,o),
(85,59,o),
(94,100,cs),
(223,708,l),
(169,708,l),
(41,105,ls),
(26,34,o),
(42,0,o),
(133,0,cs)
);
}
);
width = 234;
},
{
anchors = (
{
name = bottom;
pos = (113,0);
},
{
name = center;
pos = (190,374);
},
{
name = top;
pos = (221,708);
},
{
name = topright;
pos = (286,497);
}
);
layerId = m004;
shapes = (
{
closed = 1;
nodes = (
(273,0,l),
(301,132,l),
(264,132,ls),
(209,132,o),
(190,142,o),
(202,197,cs),
(311,708,l),
(145,708,l),
(29,162,ls),
(3,40,o),
(40,0,o),
(206,0,cs)
);
}
);
width = 348;
},
{
anchors = (
{
name = bottom;
pos = (77,0);
},
{
name = center;
pos = (138,332);
},
{
name = top;
pos = (209,708);
},
{
name = topright;
pos = (243,498);
}
);
layerId = "685EC287-0A44-43F1-AA0E-B98846C13147";
name = "AHL Variable 06 FROM Regular Italic";
shapes = (
{
closed = 1;
nodes = (
(190,0,l),
(205,74,l),
(177,74,ls),
(129,74,o),
(117,86,o),
(127,131,cs),
(250,708,l),
(166,708,l),
(41,120,ls),
(23,36,o),
(44,0,o),
(156,0,cs)
);
}
);
width = 263;
},
{
anchors = (
{
name = bottom;
pos = (104,0);
},
{
name = center;
pos = (180,367);
},
{
name = top;
pos = (221,708);
},
{
name = topright;
pos = (278,497);
}
);
layerId = "FD063E2A-CA5A-4098-9599-3D7AAD1E2DEB";
name = "AHL Variable 06 FROM Bold Italic";
shapes = (
{
closed = 1;
nodes = (
(259,0,l),
(285,124,l),
(248,124,ls),
(194,124,o),
(176,134,o),
(188,188,cs),
(300,708,l),
(148,708,l),
(30,155,ls),
(6,39,o),
(39,0,o),
(196,0,cs)
);
}
);
width = 331;
}
);
metricLeft = "=n*0.95";
unicode = 108;
},
{
glyphname = lslash;
kernLeft = l;
kernRight = l;
lastChange = "2024-11-01 12:02:53 +0000";
layers = (
{
layerId = m003;
shapes = (
{
closed = 1;
nodes = (
(179,0,l),
(189,46,l),
(159,46,ls),
(114,46,o),
(105,59,o),
(114,100,cs),
(158,307,l),
(251,359,l),
(262,411,l),
(169,359,l),
(243,708,l),
(189,708,l),
(108,325,l),
(35,285,l),
(24,233,l),
(97,273,l),
(61,105,ls),
(46,34,o),
(62,0,o),
(153,0,cs)
);
}
);
width = 274;
},
{
layerId = m004;
shapes = (
{
closed = 1;
nodes = (
(294,0,l),
(322,132,l),
(285,132,ls),
(230,132,o),
(211,142,o),
(223,197,cs),
(253,335,l),
(369,390,l),
(397,519,l),
(280,464,l),
(332,708,l),
(166,708,l),
(96,379,l),
(52,358,l),
(25,229,l),
(69,249,l),
(50,162,ls),
(24,40,o),
(61,0,o),
(227,0,cs)
);
}
);
width = 375;
},
{
layerId = "685EC287-0A44-43F1-AA0E-B98846C13147";
shapes = (
{
closed = 1;
nodes = (
(209,0,l),
(224,74,l),
(196,74,ls),
(148,74,o),
(136,86,o),
(146,131,cs),
(186,317,l),
(282,367,l),
(298,442,l),
(202,392,l),
(269,708,l),
(185,708,l),
(107,343,l),
(39,307,l),
(23,232,l),
(91,268,l),
(60,120,ls),
(42,36,o),
(63,0,o),
(175,0,cs)
);
}
);
width = 296;
},
{
layerId = "FD063E2A-CA5A-4098-9599-3D7AAD1E2DEB";
shapes = (
{
closed = 1;
nodes = (
(279,0,l),
(305,124,l),
(268,124,ls),
(214,124,o),
(196,134,o),
(208,188,cs),
(239,332,l),
(351,385,l),
(377,506,l),
(265,453,l),
(320,708,l),
(168,708,l),
(97,373,l),
(48,350,l),
(22,229,l),
(71,252,l),
(50,155,ls),
(26,39,o),
(59,0,o),
(216,0,cs)
);
}
);
width = 361;
}
);
unicode = 322;
},
{
glyphname = m;
kernLeft = n;
kernRight = h;
lastChange = "2024-11-01 12:02:53 +0000";
layers = (
{
anchors = (
{
name = bottom;
pos = (351,0);
},
{
name = top;
pos = (457,496);
}
);
layerId = m003;
shapes = (
{
closed = 1;
nodes = (
(76,0,l),
(134,273,ls),
(158,387,o),
(227,457,o),
(311,457,cs),
(384,457,o),
(419,398,o),
(398,298,cs),
(334,0,l),
(388,0,l),
(447,273,ls),
(474,396,o),
(544,457,o),
(623,457,cs),
(697,457,o),
(731,398,o),
(710,298,cs),
(646,0,l),
(700,0,l),
(766,308,ls),
(795,444,o),
(719,505,o),
(637,505,cs),
(561,505,o),
(505,470,o),
(457,399,c),
(442,472,o),
(386,505,o),
(327,505,cs),
(255,505,o),
(197,467,o),
(162,417,c),
(168,496,l),
(128,496,l),
(22,0,l)
);
}
);
width = 828;
},
{
anchors = (
{
name = bottom;
pos = (398,0);
},
{
name = top;
pos = (503,496);
}
);
layerId = m004;
shapes = (
{
closed = 1;
nodes = (
(163,0,l),
(216,252,ls),
(234,339,o),
(265,385,o),
(323,385,cs),
(378,385,o),
(387,338,o),
(374,276,cs),
(315,0,l),
(481,0,l),
(535,252,ls),
(554,339,o),
(584,385,o),
(642,385,cs),
(697,385,o),
(706,338,o),
(693,276,cs),
(634,0,l),
(800,0,l),
(864,300,ls),
(893,434,o),
(844,511,o),
(730,511,cs),
(658,511,o),
(598,487,o),
(546,425,c),
(529,481,o),
(483,511,o),
(411,511,cs),
(338,511,o),
(283,473,o),
(255,432,c),
(250,496,l),
(102,496,l),
(-3,0,l)
);
}
);
width = 901;
},
{
anchors = (
{
name = bottom;
pos = (364,0);
},
{
name = top;
pos = (470,496);
}
);
layerId = "685EC287-0A44-43F1-AA0E-B98846C13147";
name = "AHL Variable 06 FROM Regular Italic";
shapes = (
{
closed = 1;
nodes = (
(103,0,l),
(159,267,ls),
(182,374,o),
(241,432,o),
(315,432,cs),
(382,432,o),
(410,382,o),
(392,292,cs),
(329,0,l),
(413,0,l),
(471,267,ls),
(496,381,o),
(555,432,o),
(626,432,cs),
(692,432,o),
(720,379,o),
(701,292,cs),
(638,0,l),
(722,0,l),
(787,306,ls),
(815,438,o),
(748,504,o),
(659,504,cs),
(588,504,o),
(530,475,o),
(481,406,c),
(466,474,o),
(413,504,o),
(351,504,cs),
(281,504,o),
(224,469,o),
(190,421,c),
(187,496,l),
(125,496,l),
(19,0,l)
);
}
);
width = 845;
},
{
anchors = (
{
name = bottom;
pos = (392,0);
},
{
name = top;
pos = (498,496);
}
);
layerId = "FD063E2A-CA5A-4098-9599-3D7AAD1E2DEB";
name = "AHL Variable 06 FROM Bold Italic";
shapes = (
{
closed = 1;
nodes = (
(153,0,l),
(207,254,ls),
(226,343,o),
(261,392,o),
(322,392,cs),
(379,392,o),
(390,343,o),
(376,279,cs),
(317,0,l),
(470,0,l),
(523,254,ls),
(542,346,o),
(579,392,o),
(640,392,cs),
(697,392,o),
(708,343,o),
(694,279,cs),
(635,0,l),
(787,0,l),
(851,301,ls),
(880,435,o),
(829,510,o),
(719,510,cs),
(647,510,o),
(587,485,o),
(535,422,c),
(519,480,o),
(472,510,o),
(401,510,cs),
(328,510,o),
(273,472,o),
(244,430,c),
(239,496,l),
(106,496,l),
(1,0,l)
);
}
);
width = 891;
}
);
metricLeft = n;
metricRight = n;
unicode = 109;
},
{
glyphname = n;
kernLeft = n;
kernRight = h;
lastChange = "2024-11-01 12:02:53 +0000";
layers = (
{
anchors = (
{
name = bottom;
pos = (214,0);
},
{
name = top;
pos = (320,496);
}
);
layerId = m003;
shapes = (
{
closed = 1;
nodes = (
(76,0,l),
(134,273,ls),
(158,387,o),
(227,457,o),
(321,457,cs),
(404,457,o),
(439,398,o),
(418,298,cs),
(354,0,l),
(408,0,l),
(474,308,ls),
(503,444,o),
(427,505,o),
(336,505,cs),
(257,505,o),
(197,467,o),
(162,417,c),
(168,496,l),
(128,496,l),
(22,0,l)
);
}
);
width = 536;
},
{
anchors = (
{
name = bottom;
pos = (240,0);
},
{
name = top;
pos = (345,496);
}
);
layerId = m004;
shapes = (
{
closed = 1;
nodes = (
(162,0,l),
(215,252,ls),
(233,339,o),
(264,385,o),
(325,385,cs),
(382,385,o),
(391,338,o),
(378,276,cs),
(319,0,l),
(484,0,l),
(548,300,ls),
(577,434,o),
(529,511,o),
(413,511,cs),
(337,511,o),
(282,473,o),
(254,432,c),
(249,496,l),
(102,496,l),
(-3,0,l)
);
}
);
width = 585;
},
{
anchors = (
{
name = bottom;
pos = (224,0);
},
{
name = top;
pos = (330,496);
}
);
layerId = "685EC287-0A44-43F1-AA0E-B98846C13147";
name = "AHL Variable 06 FROM Regular Italic";
shapes = (
{
closed = 1;
nodes = (
(103,0,l),
(160,267,ls),
(183,374,o),
(240,432,o),
(323,432,cs),
(397,432,o),
(425,379,o),
(406,292,cs),
(343,0,l),
(427,0,l),
(492,306,ls),
(520,438,o),
(454,504,o),
(358,504,cs),
(282,504,o),
(223,466,o),
(190,421,c),
(187,496,l),
(125,496,l),
(19,0,l)
);
}
);
width = 550;
},
{
anchors = (
{
name = bottom;
pos = (238,0);
},
{
name = top;
pos = (343,496);
}
);
layerId = "FD063E2A-CA5A-4098-9599-3D7AAD1E2DEB";
name = "AHL Variable 06 FROM Bold Italic";
shapes = (
{
closed = 1;
nodes = (
(153,0,l),
(207,254,ls),
(226,343,o),
(261,392,o),
(325,392,cs),
(383,392,o),
(394,343,o),
(380,279,cs),
(321,0,l),
(473,0,l),
(537,301,ls),
(566,435,o),
(515,510,o),
(403,510,cs),
(329,510,o),
(273,472,o),
(244,430,c),
(239,496,l),
(106,496,l),
(1,0,l)
);
}
);
width = 577;
}
);
unicode = 110;
},
{
glyphname = o;
kernLeft = o;
kernRight = o;
lastChange = "2024-11-01 12:02:53 +0000";
layers = (
{
anchors = (
{
name = bottom;
pos = (211,0);
},
{
name = center;
pos = (264,248);
},
{
name = ogonek;
pos = (431,10);
},
{
name = top;
pos = (315,496);
},
{
name = topright;
pos = (568,496);
}
);
layerId = m003;
shapes = (
{
closed = 1;
nodes = (
(390,-12,o),
(492,145,o),
(492,294,cs),
(492,413,o),
(423,506,o),
(300,506,cs),
(138,506,o),
(36,349,o),
(36,200,cs),
(36,81,o),
(105,-12,o),
(228,-12,cs)
);
},
{
closed = 1;
nodes = (
(137,36,o),
(91,108,o),
(91,200,cs),
(91,303,o),
(152,458,o),
(295,458,cs),
(391,458,o),
(437,386,o),
(437,294,cs),
(437,191,o),
(376,36,o),
(233,36,cs)
);
}
);
width = 529;
},
{
anchors = (
{
name = bottom;
pos = (243,0);
},
{
name = center;
pos = (296,248);
},
{
name = ogonek;
pos = (476,10);
},
{
name = top;
pos = (341,496);
},
{
name = topright;
pos = (616,496);
}
);
layerId = m004;
shapes = (
{
closed = 1;
nodes = (
(451,-12,o),
(566,124,o),
(566,288,cs),
(566,430,o),
(460,511,o),
(321,511,cs),
(141,511,o),
(26,375,o),
(26,211,cs),
(26,69,o),
(132,-12,o),
(271,-12,cs)
);
},
{
closed = 1;
nodes = (
(216,114,o),
(193,158,o),
(193,213,cs),
(193,275,o),
(225,385,o),
(317,385,cs),
(376,385,o),
(399,341,o),
(399,286,cs),
(399,224,o),
(367,114,o),
(275,114,cs)
);
}
);
width = 591;
},
{
anchors = (
{
name = bottom;
pos = (221,0);
},
{
name = center;
pos = (274,248);
},
{
name = ogonek;
pos = (444,10);
},
{
name = top;
pos = (323,496);
},
{
name = topright;
pos = (582,496);
}
);
layerId = "685EC287-0A44-43F1-AA0E-B98846C13147";
name = "AHL Variable 06 FROM Regular Italic";
shapes = (
{
closed = 1;
nodes = (
(407,-12,o),
(513,136,o),
(513,289,cs),
(513,414,o),
(434,504,o),
(306,504,cs),
(140,504,o),
(34,356,o),
(34,203,cs),
(34,78,o),
(113,-12,o),
(241,-12,cs)
);
},
{
closed = 1;
nodes = (
(160,62,o),
(120,122,o),
(120,203,cs),
(120,295,o),
(173,430,o),
(302,430,cs),
(387,430,o),
(427,370,o),
(427,289,cs),
(427,197,o),
(374,62,o),
(245,62,cs)
);
}
);
width = 548;
},
{
anchors = (
{
name = bottom;
pos = (238,0);
},
{
name = center;
pos = (291,248);
},
{
name = ogonek;
pos = (470,10);
},
{
name = top;
pos = (337,496);
},
{
name = topright;
pos = (609,496);
}
);
layerId = "FD063E2A-CA5A-4098-9599-3D7AAD1E2DEB";
name = "AHL Variable 06 FROM Bold Italic";
shapes = (
{
closed = 1;
nodes = (
(442,-12,o),
(554,126,o),
(554,288,cs),
(554,428,o),
(454,510,o),
(318,510,cs),
(140,510,o),
(28,372,o),
(28,210,cs),
(28,70,o),
(128,-12,o),
(264,-12,cs)
);
},
{
closed = 1;
nodes = (
(206,106,o),
(182,152,o),
(182,211,cs),
(182,278,o),
(215,392,o),
(313,392,cs),
(376,392,o),
(400,346,o),
(400,287,cs),
(400,220,o),
(367,106,o),
(269,106,cs)
);
}
);
width = 581;
}
);
metricRight = "=|";
unicode = 111;
},
{
glyphname = oslash;
kernLeft = o;
kernRight = o;
lastChange = "2024-11-01 12:02:53 +0000";
layers = (
{
anchors = (
{
name = bottom;
pos = (211,0);
},
{
name = center;
pos = (264,248);
},
{
name = top;
pos = (315,496);
},
{
name = topright;
pos = (568,496);
}
);
layerId = m003;
shapes = (
{
closed = 1;
nodes = (
(390,-12,o),
(492,145,o),
(492,294,cs),
(492,337,o),
(483,377,o),
(465,411,c),
(527,469,l),
(500,497,l),
(443,443,l),
(410,482,o),
(362,506,o),
(300,506,cs),
(138,506,o),
(36,349,o),
(36,200,cs),
(36,157,o),
(45,118,o),
(62,85,c),
(1,27,l),
(28,-1,l),
(84,52,l),
(117,12,o),
(165,-12,o),
(228,-12,cs)
);
},
{
closed = 1;
nodes = (
(183,36,o),
(146,56,o),
(123,88,c),
(424,372,l),
(433,349,o),
(437,322,o),
(437,294,cs),
(437,191,o),
(376,36,o),
(233,36,cs)
);
},
{
closed = 1;
nodes = (
(91,303,o),
(152,458,o),
(295,458,cs),
(345,458,o),
(381,439,o),
(405,407,c),
(104,124,l),
(95,146,o),
(91,172,o),
(91,200,cs)
);
}
);
width = 529;
},
{
anchors = (
{
name = bottom;
pos = (243,0);
},
{
name = center;
pos = (296,248);
},
{
name = top;
pos = (341,496);
},
{
name = topright;
pos = (616,496);
}
);
layerId = m004;
shapes = (
{
closed = 1;
nodes = (
(451,-12,o),
(566,124,o),
(566,288,cs),
(566,338,o),
(553,380,o),
(530,414,c),
(591,471,l),
(539,526,l),
(476,468,l),
(434,496,o),
(381,511,o),
(321,511,cs),
(141,511,o),
(26,375,o),
(26,211,cs),
(26,160,o),
(39,118,o),
(63,83,c),
(-1,24,l),
(51,-30,l),
(117,31,l),
(158,3,o),
(212,-12,o),
(271,-12,cs)
);
},
{
closed = 1;
nodes = (
(253,114,o),
(236,120,o),
(224,130,c),
(399,293,l),
(399,291,o),
(399,288,o),
(399,286,cs),
(399,224,o),
(367,114,o),
(275,114,cs)
);
},
{
closed = 1;
nodes = (
(193,275,o),
(225,385,o),
(317,385,cs),
(339,385,o),
(356,379,o),
(369,368,c),
(193,205,l),
(193,208,o),
(193,210,o),
(193,213,cs)
);
}
);
width = 591;
},
{
anchors = (
{
name = bottom;
pos = (221,0);
},
{
name = center;
pos = (274,248);
},
{
name = top;
pos = (323,496);
},
{
name = topright;
pos = (582,496);
}
);
guides = (
{
angle = 78;
pos = (36,246);
},
{
angle = 78;
pos = (49,246);
},
{
angle = 78;
pos = (498,246);
},
{
angle = 78;
pos = (511,246);
}
);
layerId = "685EC287-0A44-43F1-AA0E-B98846C13147";
shapes = (
{
closed = 1;
nodes = (
(407,-12,o),
(513,136,o),
(513,289,cs),
(513,335,o),
(502,376,o),
(483,410,c),
(546,469,l),
(511,505,l),
(452,449,l),
(416,484,o),
(367,504,o),
(306,504,cs),
(140,504,o),
(34,356,o),
(34,203,cs),
(34,158,o),
(44,118,o),
(63,84,c),
(2,27,l),
(37,-9,l),
(94,44,l),
(129,9,o),
(179,-12,o),
(241,-12,cs)
);
},
{
closed = 1;
nodes = (
(204,62,o),
(173,76,o),
(153,100,c),
(418,349,l),
(424,331,o),
(427,311,o),
(427,289,cs),
(427,197,o),
(374,62,o),
(245,62,cs)
);
},
{
closed = 1;
nodes = (
(120,295,o),
(173,430,o),
(302,430,cs),
(342,430,o),
(372,417,o),
(393,394,c),
(128,145,l),
(123,163,o),
(120,182,o),
(120,203,cs)
);
}
);
width = 548;
},
{
anchors = (
{
name = bottom;
pos = (238,0);
},
{
name = center;
pos = (291,248);
},
{
name = top;
pos = (337,496);
},
{
name = topright;
pos = (609,496);
}
);
guides = (
{
angle = 78;
pos = (29,250);
},
{
angle = 78;
pos = (47,250);
},
{
angle = 78;
pos = (535,250);
},
{
angle = 78;
pos = (553,250);
}
);
layerId = "FD063E2A-CA5A-4098-9599-3D7AAD1E2DEB";
shapes = (
{
closed = 1;
nodes = (
(442,-12,o),
(554,126,o),
(554,288,cs),
(554,337,o),
(542,379,o),
(520,413,c),
(582,471,l),
(531,523,l),
(470,466,l),
(429,495,o),
(377,510,o),
(318,510,cs),
(140,510,o),
(28,372,o),
(28,210,cs),
(28,161,o),
(40,118,o),
(63,84,c),
(-1,25,l),
(50,-27,l),
(113,32,l),
(153,3,o),
(205,-12,o),
(264,-12,cs)
);
},
{
closed = 1;
nodes = (
(244,106,o),
(226,113,o),
(212,125,c),
(399,300,l),
(400,296,o),
(400,291,o),
(400,287,cs),
(400,220,o),
(367,106,o),
(269,106,cs)
);
},
{
closed = 1;
nodes = (
(182,278,o),
(215,392,o),
(313,392,cs),
(338,392,o),
(357,385,o),
(370,373,c),
(183,197,l),
(182,202,o),
(182,206,o),
(182,211,cs)
);
}
);
width = 581;
}
);
metricLeft = o;
metricRight = o;
unicode = 248;
},
{
glyphname = oe;
kernLeft = o;
kernRight = e;
lastChange = "2024-11-01 12:02:53 +0000";
layers = (
{
anchors = (
{
name = bottom;
pos = (405,0);
},
{
name = top;
pos = (511,496);
}
);
layerId = m003;
shapes = (
{
closed = 1;
nodes = (
(709,-12,o),
(768,12,o),
(825,80,c),
(771,100,l),
(736,54,o),
(687,36,o),
(636,36,cs),
(514,36,o),
(473,142,o),
(488,244,c),
(875,244,l),
(904,386,o),
(828,506,o),
(689,506,cs),
(599,506,o),
(523,454,o),
(477,375,c),
(454,452,o),
(393,506,o),
(300,506,cs),
(138,506,o),
(36,349,o),
(36,200,cs),
(36,81,o),
(105,-12,o),
(228,-12,cs),
(322,-12,o),
(396,42,o),
(440,118,c),
(465,44,o),
(526,-12,o),
(635,-12,cs)
);
},
{
closed = 1;
nodes = (
(137,36,o),
(91,108,o),
(91,200,cs),
(91,303,o),
(152,458,o),
(295,458,cs),
(391,458,o),
(436,386,o),
(436,295,cs),
(436,191,o),
(376,36,o),
(233,36,cs)
);
},
{
closed = 1;
nodes = (
(525,385,o),
(588,458,o),
(685,458,cs),
(786,458,o),
(835,378,o),
(826,289,c),
(497,289,l)
);
}
);
width = 914;
},
{
anchors = (
{
name = bottom;
pos = (531,0);
},
{
name = top;
pos = (636,496);
}
);
layerId = m004;
shapes = (
{
closed = 1;
nodes = (
(731,-12,o),
(816,25,o),
(874,95,c),
(747,146,l),
(726,121,o),
(687,114,o),
(655,114,cs),
(590,114,o),
(553,149,o),
(547,205,c),
(915,205,l),
(954,383,o),
(858,511,o),
(690,511,cs),
(612,511,o),
(544,484,o),
(492,440,c),
(449,486,o),
(384,511,o),
(310,511,cs),
(130,511,o),
(26,365,o),
(26,210,cs),
(26,69,o),
(131,-12,o),
(262,-12,cs),
(340,-12,o),
(404,15,o),
(452,59,c),
(496,14,o),
(561,-12,o),
(641,-12,cs)
);
},
{
closed = 1;
nodes = (
(216,114,o),
(193,158,o),
(193,213,cs),
(193,274,o),
(225,385,o),
(316,385,cs),
(374,385,o),
(397,341,o),
(397,286,cs),
(397,225,o),
(365,114,o),
(274,114,cs)
);
},
{
closed = 1;
nodes = (
(580,348,o),
(618,390,o),
(685,390,cs),
(739,390,o),
(783,363,o),
(782,301,c),
(561,301,l)
);
}
);
width = 942;
},
{
anchors = (
{
name = bottom;
pos = (440,0);
},
{
name = top;
pos = (546,496);
}
);
layerId = "685EC287-0A44-43F1-AA0E-B98846C13147";
name = "AHL Variable 06 FROM Regular Italic";
shapes = (
{
closed = 1;
nodes = (
(718,-12,o),
(785,15,o),
(842,83,c),
(763,114,l),
(732,72,o),
(687,62,o),
(642,62,cs),
(539,62,o),
(498,138,o),
(504,225,c),
(885,225,l),
(922,380,o),
(839,504,o),
(690,504,cs),
(604,504,o),
(532,463,o),
(484,398,c),
(453,463,o),
(390,504,o),
(304,504,cs),
(137,504,o),
(34,353,o),
(34,203,cs),
(34,78,o),
(113,-12,o),
(238,-12,cs),
(327,-12,o),
(398,32,o),
(444,98,c),
(475,33,o),
(539,-12,o),
(638,-12,cs)
);
},
{
closed = 1;
nodes = (
(160,57,o),
(120,122,o),
(120,203,cs),
(120,295,o),
(173,430,o),
(302,430,cs),
(387,430,o),
(426,374,o),
(426,293,cs),
(426,200,o),
(374,57,o),
(245,57,cs)
);
},
{
closed = 1;
nodes = (
(541,370,o),
(595,432,o),
(686,432,cs),
(774,432,o),
(822,374,o),
(815,292,c),
(517,292,l)
);
}
);
width = 923;
},
{
anchors = (
{
name = bottom;
pos = (516,0);
},
{
name = top;
pos = (621,496);
}
);
layerId = "FD063E2A-CA5A-4098-9599-3D7AAD1E2DEB";
name = "AHL Variable 06 FROM Bold Italic";
shapes = (
{
closed = 1;
nodes = (
(727,-12,o),
(812,22,o),
(870,92,c),
(749,142,l),
(727,113,o),
(688,106,o),
(653,106,cs),
(582,106,o),
(544,147,o),
(539,208,c),
(910,208,l),
(949,382,o),
(854,510,o),
(690,510,cs),
(611,510,o),
(542,482,o),
(491,434,c),
(449,483,o),
(385,510,o),
(309,510,cs),
(131,510,o),
(27,363,o),
(27,209,cs),
(27,70,o),
(128,-12,o),
(258,-12,cs),
(338,-12,o),
(403,17,o),
(451,64,c),
(492,16,o),
(558,-12,o),
(640,-12,cs)
);
},
{
closed = 1;
nodes = (
(207,106,o),
(181,152,o),
(181,211,cs),
(181,277,o),
(216,392,o),
(314,392,cs),
(376,392,o),
(402,346,o),
(402,287,cs),
(402,221,o),
(366,106,o),
(269,106,cs)
);
},
{
closed = 1;
nodes = (
(573,351,o),
(614,397,o),
(685,397,cs),
(745,397,o),
(789,365,o),
(787,300,c),
(554,300,l)
);
}
);
width = 937;
}
);
metricLeft = o;
metricRight = e;
unicode = 339;
},
{
glyphname = p;
kernLeft = p;
kernRight = o;
lastChange = "2024-11-01 12:02:53 +0000";
layers = (
{
anchors = (
{
name = bottom;
pos = (219,0);
},
{
name = top;
pos = (325,496);
}
);
layerId = m003;
shapes = (
{
closed = 1;
nodes = (
(42,-162,l),
(97,94,l),
(112,28,o),
(175,-12,o),
(248,-12,cs),
(425,-12,o),
(508,163,o),
(508,301,cs),
(508,422,o),
(445,506,o),
(336,506,cs),
(263,506,o),
(198,467,o),
(164,415,c),
(168,496,l),
(128,496,l),
(-12,-162,l)
);
},
{
closed = 1;
nodes = (
(169,36,o),
(123,89,o),
(123,180,cs),
(123,282,o),
(182,458,o),
(323,458,cs),
(408,458,o),
(453,394,o),
(453,300,cs),
(453,198,o),
(400,36,o),
(252,36,cs)
);
}
);
width = 544;
},
{
anchors = (
{
name = bottom;
pos = (252,0);
},
{
name = top;
pos = (357,496);
}
);
layerId = m004;
shapes = (
{
closed = 1;
nodes = (
(128,-162,l),
(177,73,l),
(198,22,o),
(261,-12,o),
(325,-12,cs),
(511,-12,o),
(590,178,o),
(590,309,cs),
(590,429,o),
(524,511,o),
(410,511,cs),
(355,511,o),
(293,487,o),
(253,437,c),
(248,496,l),
(102,496,l),
(-37,-162,l)
);
},
{
closed = 1;
nodes = (
(235,115,o),
(204,149,o),
(204,210,cs),
(204,273,o),
(239,385,o),
(330,385,cs),
(389,385,o),
(418,339,o),
(418,281,cs),
(418,218,o),
(379,115,o),
(288,115,cs)
);
}
);
width = 611;
},
{
anchors = (
{
name = bottom;
pos = (232,0);
},
{
name = top;
pos = (338,496);
}
);
layerId = "685EC287-0A44-43F1-AA0E-B98846C13147";
name = "AHL Variable 06 FROM Regular Italic";
shapes = (
{
closed = 1;
nodes = (
(69,-162,l),
(123,88,l),
(140,26,o),
(203,-12,o),
(272,-12,cs),
(452,-12,o),
(534,167,o),
(534,302,cs),
(534,422,o),
(470,504,o),
(359,504,cs),
(292,504,o),
(228,472,o),
(192,421,c),
(186,496,l),
(125,496,l),
(-15,-162,l)
);
},
{
closed = 1;
nodes = (
(190,60,o),
(149,105,o),
(149,188,cs),
(149,280,o),
(203,432,o),
(326,432,cs),
(403,432,o),
(443,376,o),
(443,296,cs),
(443,202,o),
(395,60,o),
(266,60,cs)
);
}
);
width = 567;
},
{
anchors = (
{
name = bottom;
pos = (249,0);
},
{
name = top;
pos = (354,496);
}
);
layerId = "FD063E2A-CA5A-4098-9599-3D7AAD1E2DEB";
name = "AHL Variable 06 FROM Bold Italic";
shapes = (
{
closed = 1;
nodes = (
(119,-162,l),
(169,75,l),
(189,23,o),
(252,-12,o),
(318,-12,cs),
(494,-12,o),
(580,171,o),
(580,304,cs),
(580,449,o),
(483,510,o),
(402,510,cs),
(344,510,o),
(283,485,o),
(243,434,c),
(238,496,l),
(106,496,l),
(-33,-162,l)
);
},
{
closed = 1;
nodes = (
(232,106,o),
(196,143,o),
(196,210,cs),
(196,271,o),
(235,392,o),
(331,392,cs),
(387,392,o),
(421,351,o),
(421,285,cs),
(421,224,o),
(380,106,o),
(283,106,cs)
);
}
);
width = 604;
}
);
metricLeft = n;
metricRight = o;
unicode = 112;
},
{
glyphname = thorn;
kernLeft = p;
kernRight = o;
lastChange = "2024-11-01 12:02:53 +0000";
layers = (
{
anchors = (
{
name = bottom;
pos = (218,0);
},
{
name = top;
pos = (323,496);
}
);
layerId = m003;
shapes = (
{
closed = 1;
nodes = (
(43,-162,l),
(97,95,l),
(109,39,o),
(162,-12,o),
(248,-12,cs),
(425,-12,o),
(508,163,o),
(508,301,cs),
(508,422,o),
(445,506,o),
(336,506,cs),
(263,506,o),
(198,467,o),
(164,415,c),
(227,708,l),
(173,708,l),
(-11,-162,l)
);
},
{
closed = 1;
nodes = (
(169,36,o),
(123,89,o),
(123,180,cs),
(123,282,o),
(182,458,o),
(323,458,cs),
(408,458,o),
(453,394,o),
(453,300,cs),
(453,198,o),
(400,36,o),
(252,36,cs)
);
}
);
width = 544;
},
{
anchors = (
{
name = bottom;
pos = (252,0);
},
{
name = top;
pos = (358,496);
}
);
layerId = m004;
shapes = (
{
closed = 1;
nodes = (
(128,-162,l),
(177,73,l),
(198,22,o),
(261,-12,o),
(325,-12,cs),
(511,-12,o),
(590,178,o),
(590,309,cs),
(590,429,o),
(524,511,o),
(410,511,cs),
(355,511,o),
(293,487,o),
(256,440,c),
(312,708,l),
(147,708,l),
(-37,-162,l)
);
},
{
closed = 1;
nodes = (
(235,115,o),
(204,149,o),
(204,210,cs),
(204,273,o),
(239,385,o),
(330,385,cs),
(389,385,o),
(418,339,o),
(418,281,cs),
(418,218,o),
(379,115,o),
(288,115,cs)
);
}
);
width = 611;
},
{
anchors = (
{
name = bottom;
pos = (231,0);
},
{
name = top;
pos = (336,496);
}
);
layerId = "685EC287-0A44-43F1-AA0E-B98846C13147";
name = "AHL Variable 06 FROM Regular Italic";
shapes = (
{
closed = 1;
nodes = (
(69,-162,l),
(123,88,l),
(140,26,o),
(203,-12,o),
(272,-12,cs),
(452,-12,o),
(534,167,o),
(534,302,cs),
(534,422,o),
(470,504,o),
(359,504,cs),
(292,504,o),
(228,473,o),
(193,422,c),
(254,708,l),
(170,708,l),
(-15,-162,l)
);
},
{
closed = 1;
nodes = (
(191,60,o),
(149,105,o),
(149,188,cs),
(149,280,o),
(203,432,o),
(326,432,cs),
(403,432,o),
(443,376,o),
(443,296,cs),
(443,202,o),
(395,60,o),
(266,60,cs)
);
}
);
width = 567;
},
{
anchors = (
{
name = bottom;
pos = (249,0);
},
{
name = top;
pos = (355,496);
}
);
layerId = "FD063E2A-CA5A-4098-9599-3D7AAD1E2DEB";
name = "AHL Variable 06 FROM Bold Italic";
shapes = (
{
closed = 1;
nodes = (
(119,-162,l),
(169,75,l),
(189,23,o),
(252,-12,o),
(318,-12,cs),
(494,-12,o),
(580,171,o),
(580,304,cs),
(580,449,o),
(483,510,o),
(402,510,cs),
(344,510,o),
(283,485,o),
(246,437,c),
(303,708,l),
(151,708,l),
(-33,-162,l)
);
},
{
closed = 1;
nodes = (
(232,106,o),
(196,143,o),
(196,210,cs),
(196,271,o),
(235,392,o),
(331,392,cs),
(387,392,o),
(421,351,o),
(421,285,cs),
(421,224,o),
(380,106,o),
(283,106,cs)
);
}
);
width = 604;
}
);
metricLeft = p;
metricRight = p;
unicode = 254;
},
{
glyphname = q;
kernLeft = o;
kernRight = q;
lastChange = "2024-11-01 12:02:53 +0000";
layers = (
{
anchors = (
{
name = bottom;
pos = (217,0);
},
{
name = top;
pos = (322,496);
}
);
layerId = m003;
shapes = (
{
closed = 1;
nodes = (
(473,-174,o),
(488,-171,o),
(504,-166,c),
(515,-118,l),
(499,-124,o),
(478,-126,o),
(464,-126,cs),
(401,-126,o),
(398,-86,o),
(406,-49,cs),
(522,496,l),
(482,496,l),
(447,403,l),
(430,467,o),
(368,506,o),
(295,506,cs),
(118,506,o),
(36,329,o),
(36,194,cs),
(36,71,o),
(99,-12,o),
(208,-12,cs),
(275,-12,o),
(337,19,o),
(378,75,c),
(353,-44,ls),
(338,-117,o),
(356,-174,o),
(454,-174,cs)
);
},
{
closed = 1;
nodes = (
(136,36,o),
(91,100,o),
(91,194,cs),
(91,296,o),
(144,458,o),
(292,458,cs),
(375,458,o),
(421,405,o),
(421,314,cs),
(421,203,o),
(354,36,o),
(221,36,cs)
);
}
);
width = 552;
},
{
anchors = (
{
name = bottom;
pos = (256,0);
},
{
name = top;
pos = (362,496);
}
);
layerId = m004;
shapes = (
{
closed = 1;
nodes = (
(548,-174,o),
(582,-170,o),
(596,-167,c),
(626,-25,l),
(606,-28,o),
(591,-30,o),
(577,-30,cs),
(510,-30,o),
(508,-1,o),
(519,51,cs),
(614,496,l),
(468,496,l),
(434,427,l),
(411,482,o),
(350,511,o),
(283,511,cs),
(101,511,o),
(23,328,o),
(23,197,cs),
(23,77,o),
(88,-12,o),
(208,-12,cs),
(256,-12,o),
(308,7,o),
(355,51,c),
(346,13,ls),
(320,-99,o),
(365,-174,o),
(519,-174,cs)
);
},
{
closed = 1;
nodes = (
(225,115,o),
(195,162,o),
(195,221,cs),
(195,283,o),
(232,385,o),
(322,385,cs),
(376,385,o),
(409,350,o),
(409,288,cs),
(409,231,o),
(376,115,o),
(283,115,cs)
);
}
);
width = 612;
},
{
anchors = (
{
name = bottom;
pos = (227,0);
},
{
name = top;
pos = (332,496);
}
);
layerId = "685EC287-0A44-43F1-AA0E-B98846C13147";
name = "AHL Variable 06 FROM Regular Italic";
shapes = (
{
closed = 1;
nodes = (
(493,-173,o),
(518,-169,o),
(536,-162,c),
(552,-85,l),
(534,-92,o),
(512,-94,o),
(496,-94,cs),
(432,-94,o),
(429,-57,o),
(438,-16,cs),
(546,496,l),
(485,496,l),
(443,409,l),
(425,465,o),
(363,504,o),
(294,504,cs),
(114,504,o),
(32,325,o),
(32,190,cs),
(32,71,o),
(96,-12,o),
(208,-12,cs),
(268,-12,o),
(333,15,o),
(370,66,c),
(350,-29,ls),
(332,-112,o),
(357,-173,o),
(470,-173,cs)
);
},
{
closed = 1;
nodes = (
(163,60,o),
(123,116,o),
(123,196,cs),
(123,290,o),
(171,432,o),
(300,432,cs),
(375,432,o),
(417,386,o),
(417,305,cs),
(417,213,o),
(363,60,o),
(240,60,cs)
);
}
);
width = 573;
},
{
anchors = (
{
name = bottom;
pos = (250,0);
},
{
name = top;
pos = (356,496);
}
);
layerId = "FD063E2A-CA5A-4098-9599-3D7AAD1E2DEB";
name = "AHL Variable 06 FROM Bold Italic";
shapes = (
{
closed = 1;
nodes = (
(538,-174,o),
(570,-170,o),
(584,-167,c),
(612,-36,l),
(592,-39,o),
(577,-41,o),
(563,-41,cs),
(496,-41,o),
(494,-11,o),
(505,39,cs),
(602,496,l),
(470,496,l),
(435,424,l),
(412,479,o),
(351,510,o),
(283,510,cs),
(110,510,o),
(24,327,o),
(24,194,cs),
(24,49,o),
(121,-12,o),
(203,-12,cs),
(257,-12,o),
(310,8,o),
(357,54,c),
(346,6,ls),
(321,-101,o),
(363,-174,o),
(510,-174,cs)
);
},
{
closed = 1;
nodes = (
(217,106,o),
(183,147,o),
(183,213,cs),
(183,275,o),
(225,392,o),
(321,392,cs),
(373,392,o),
(408,355,o),
(408,287,cs),
(408,222,o),
(365,106,o),
(272,106,cs)
);
}
);
width = 604;
}
);
metricLeft = o;
unicode = 113;
},
{
glyphname = r;
kernLeft = n;
kernRight = r;
lastChange = "2024-11-01 12:02:53 +0000";
layers = (
{
anchors = (
{
name = bottom;
pos = (104,0);
},
{
name = top;
pos = (234,496);
}
);
layerId = m003;
shapes = (
{
closed = 1;
nodes = (
(77,0,l),
(125,228,ls),
(153,360,o),
(218,446,o),
(351,449,c),
(362,501,l),
(275,505,o),
(199,449,o),
(164,402,c),
(168,496,l),
(128,496,l),
(23,0,l)
);
}
);
width = 325;
},
{
anchors = (
{
name = bottom;
pos = (140,0);
},
{
name = top;
pos = (261,496);
}
);
layerId = m004;
shapes = (
{
closed = 1;
nodes = (
(162,0,l),
(211,233,ls),
(232,332,o),
(311,364,o),
(403,347,c),
(438,511,l),
(365,516,o),
(286,489,o),
(241,405,c),
(233,496,l),
(102,496,l),
(-3,0,l)
);
}
);
width = 406;
},
{
anchors = (
{
name = bottom;
pos = (118,0);
},
{
name = top;
pos = (245,496);
}
);
layerId = "685EC287-0A44-43F1-AA0E-B98846C13147";
name = "AHL Variable 06 FROM Regular Italic";
shapes = (
{
closed = 1;
nodes = (
(104,0,l),
(153,229,ls),
(179,352,o),
(247,424,o),
(369,421,c),
(387,504,l),
(303,508,o),
(227,460,o),
(189,403,c),
(190,496,l),
(125,496,l),
(20,0,l)
);
}
);
width = 349;
},
{
anchors = (
{
name = bottom;
pos = (136,0);
},
{
name = top;
pos = (258,496);
}
);
layerId = "FD063E2A-CA5A-4098-9599-3D7AAD1E2DEB";
name = "AHL Variable 06 FROM Bold Italic";
shapes = (
{
closed = 1;
nodes = (
(152,0,l),
(201,232,ls),
(223,332,o),
(296,372,o),
(389,360,c),
(421,510,l),
(348,513,o),
(275,481,o),
(232,405,c),
(226,496,l),
(106,496,l),
(0,0,l)
);
}
);
width = 382;
}
);
metricLeft = n;
unicode = 114;
},
{
glyphname = s;
kernLeft = s;
kernRight = s;
lastChange = "2024-11-01 12:02:53 +0000";
layers = (
{
anchors = (
{
name = bottom;
pos = (185,0);
},
{
name = top;
pos = (270,496);
}
);
layerId = m003;
shapes = (
{
closed = 1;
nodes = (
(302,-12,o),
(387,50,o),
(387,148,cs),
(387,214,o),
(334,247,o),
(253,277,cs),
(212,292,ls),
(161,311,o),
(127,332,o),
(127,372,cs),
(127,431,o),
(192,458,o),
(249,458,cs),
(301,458,o),
(354,431,o),
(368,385,c),
(420,405,l),
(398,469,o),
(326,506,o),
(255,506,cs),
(162,506,o),
(75,453,o),
(75,361,cs),
(75,303,o),
(118,272,o),
(188,246,cs),
(229,231,ls),
(290,209,o),
(334,186,o),
(334,138,cs),
(334,76,o),
(277,36,o),
(206,36,cs),
(138,36,o),
(80,72,o),
(68,134,c),
(15,115,l),
(34,37,o),
(116,-12,o),
(200,-12,cs)
);
}
);
width = 447;
},
{
anchors = (
{
name = bottom;
pos = (234,0);
},
{
name = top;
pos = (309,496);
}
);
layerId = m004;
shapes = (
{
closed = 1;
nodes = (
(380,-13,o),
(494,43,o),
(494,165,cs),
(494,226,o),
(450,266,o),
(346,297,cs),
(261,322,ls),
(226,332,o),
(213,345,o),
(213,360,cs),
(213,388,o),
(250,395,o),
(278,395,cs),
(322,395,o),
(365,383,o),
(378,342,c),
(516,389,l),
(484,477,o),
(388,511,o),
(289,511,cs),
(168,511,o),
(55,459,o),
(55,346,cs),
(55,282,o),
(102,233,o),
(188,208,cs),
(273,183,ls),
(320,169,o),
(334,156,o),
(334,142,cs),
(334,111,o),
(286,104,o),
(254,104,cs),
(204,104,o),
(148,123,o),
(136,166,c),
(-2,119,l),
(35,22,o),
(153,-13,o),
(253,-13,cs)
);
}
);
width = 526;
},
{
anchors = (
{
name = bottom;
pos = (201,0);
},
{
name = top;
pos = (282,496);
}
);
layerId = "685EC287-0A44-43F1-AA0E-B98846C13147";
name = "AHL Variable 06 FROM Regular Italic";
shapes = (
{
closed = 1;
nodes = (
(324,-12,o),
(417,48,o),
(417,153,cs),
(417,217,o),
(367,252,o),
(279,283,cs),
(226,300,ls),
(180,317,o),
(152,335,o),
(152,369,cs),
(152,419,o),
(209,435,o),
(259,435,cs),
(307,435,o),
(357,418,o),
(370,372,c),
(449,402,l),
(425,471,o),
(345,506,o),
(266,506,cs),
(165,506,o),
(70,455,o),
(70,357,cs),
(70,297,o),
(115,261,o),
(189,235,cs),
(242,218,ls),
(299,198,o),
(335,178,o),
(335,139,cs),
(335,86,o),
(280,59,o),
(220,59,cs),
(158,59,o),
(102,87,o),
(91,144,c),
(9,115,l),
(34,33,o),
(127,-12,o),
(216,-12,cs)
);
}
);
width = 471;
},
{
anchors = (
{
name = bottom;
pos = (228,0);
},
{
name = top;
pos = (304,496);
}
);
layerId = "FD063E2A-CA5A-4098-9599-3D7AAD1E2DEB";
name = "AHL Variable 06 FROM Bold Italic";
shapes = (
{
closed = 1;
nodes = (
(371,-13,o),
(481,44,o),
(481,163,cs),
(481,225,o),
(436,264,o),
(335,295,cs),
(255,318,ls),
(218,330,o),
(203,343,o),
(203,361,cs),
(203,393,o),
(243,401,o),
(275,401,cs),
(320,401,o),
(364,389,o),
(377,347,c),
(505,391,l),
(474,476,o),
(381,510,o),
(285,510,cs),
(167,510,o),
(57,458,o),
(57,348,cs),
(57,284,o),
(104,238,o),
(188,212,cs),
(268,189,ls),
(316,174,o),
(334,160,o),
(334,142,cs),
(334,107,o),
(285,97,o),
(248,97,cs),
(196,97,o),
(140,117,o),
(128,162,c),
(0,119,l),
(35,24,o),
(149,-13,o),
(247,-13,cs)
);
}
);
width = 517;
}
);
unicode = 115;
},
{
glyphname = scedilla;
kernLeft = s;
kernRight = s;
lastChange = "2024-11-01 12:02:53 +0000";
layers = (
{
anchors = (
{
name = top;
pos = (270,496);
}
);
layerId = m003;
shapes = (
{
closed = 1;
nodes = (
(202,-177,o),
(242,-144,o),
(242,-97,cs),
(242,-68,o),
(218,-44,o),
(182,-44,cs),
(175,-44,o),
(168,-45,o),
(161,-47,c),
(192,-12,l),
(325,-12,o),
(387,66,o),
(387,148,cs),
(387,214,o),
(334,247,o),
(253,277,cs),
(212,292,ls),
(161,311,o),
(127,332,o),
(127,372,cs),
(127,431,o),
(192,458,o),
(249,458,cs),
(301,458,o),
(354,431,o),
(368,385,c),
(420,405,l),
(398,469,o),
(326,506,o),
(255,506,cs),
(162,506,o),
(75,453,o),
(75,361,cs),
(75,303,o),
(118,272,o),
(188,246,cs),
(229,231,ls),
(290,209,o),
(334,186,o),
(334,138,cs),
(334,76,o),
(277,36,o),
(206,36,cs),
(138,36,o),
(80,72,o),
(68,134,c),
(15,115,l),
(31,50,o),
(90,6,o),
(157,-8,c),
(121,-52,ls),
(110,-65,o),
(111,-79,o),
(129,-79,cs),
(136,-79,o),
(148,-77,o),
(156,-77,cs),
(180,-77,o),
(198,-85,o),
(198,-106,cs),
(198,-127,o),
(178,-145,o),
(148,-145,cs),
(132,-145,o),
(112,-141,o),
(85,-123,c),
(67,-147,l),
(94,-167,o),
(120,-177,o),
(150,-177,cs)
);
}
);
width = 447;
},
{
anchors = (
{
name = top;
pos = (309,496);
}
);
layerId = m004;
shapes = (
{
closed = 1;
nodes = (
(279,-188,o),
(336,-166,o),
(336,-108,cs),
(336,-67,o),
(291,-46,o),
(243,-46,cs),
(239,-46,o),
(233,-46,o),
(228,-47,c),
(256,-13,l),
(382,-12,o),
(494,44,o),
(494,165,cs),
(494,226,o),
(450,266,o),
(346,297,cs),
(261,322,ls),
(226,332,o),
(213,345,o),
(213,360,cs),
(213,388,o),
(250,395,o),
(278,395,cs),
(322,395,o),
(365,383,o),
(378,342,c),
(516,389,l),
(484,477,o),
(388,511,o),
(289,511,cs),
(168,511,o),
(55,459,o),
(55,346,cs),
(55,282,o),
(102,233,o),
(188,208,cs),
(273,183,ls),
(320,169,o),
(334,156,o),
(334,142,cs),
(334,111,o),
(286,104,o),
(254,104,cs),
(204,104,o),
(148,123,o),
(136,166,c),
(-2,119,l),
(29,39,o),
(115,1,o),
(200,-10,c),
(164,-53,ls),
(150,-70,o),
(156,-92,o),
(182,-87,cs),
(188,-86,o),
(196,-85,o),
(207,-85,cs),
(224,-85,o),
(236,-95,o),
(236,-108,cs),
(236,-127,o),
(219,-136,o),
(200,-136,cs),
(173,-136,o),
(143,-125,o),
(132,-118,c),
(106,-168,l),
(133,-179,o),
(173,-188,o),
(215,-188,cs)
);
}
);
width = 526;
},
{
anchors = (
{
name = top;
pos = (282,496);
}
);
layerId = "685EC287-0A44-43F1-AA0E-B98846C13147";
shapes = (
{
closed = 1;
nodes = (
(225,-183,o),
(271,-151,o),
(271,-100,cs),
(271,-60,o),
(242,-42,o),
(203,-42,cs),
(199,-42,o),
(192,-42,o),
(184,-43,c),
(211,-12,l),
(354,-12,o),
(417,71,o),
(417,153,cs),
(417,217,o),
(367,252,o),
(279,283,cs),
(226,300,ls),
(180,317,o),
(152,335,o),
(152,369,cs),
(152,419,o),
(209,435,o),
(259,435,cs),
(307,435,o),
(357,418,o),
(370,372,c),
(449,402,l),
(425,471,o),
(345,506,o),
(266,506,cs),
(165,506,o),
(70,455,o),
(70,357,cs),
(70,297,o),
(115,261,o),
(189,235,cs),
(242,218,ls),
(299,198,o),
(335,178,o),
(335,139,cs),
(335,86,o),
(280,59,o),
(220,59,cs),
(158,59,o),
(102,87,o),
(91,144,c),
(9,115,l),
(29,48,o),
(94,7,o),
(165,-7,c),
(128,-50,ls),
(117,-61,o),
(121,-83,o),
(145,-78,cs),
(151,-77,o),
(160,-76,o),
(166,-76,cs),
(190,-76,o),
(211,-86,o),
(211,-105,cs),
(211,-128,o),
(187,-142,o),
(161,-142,cs),
(136,-142,o),
(119,-133,o),
(99,-121,c),
(78,-154,l),
(105,-170,o),
(133,-183,o),
(172,-183,cs)
);
}
);
width = 471;
},
{
anchors = (
{
name = top;
pos = (304,496);
}
);
layerId = "FD063E2A-CA5A-4098-9599-3D7AAD1E2DEB";
shapes = (
{
closed = 1;
nodes = (
(271,-187,o),
(326,-164,o),
(326,-107,cs),
(326,-69,o),
(288,-46,o),
(236,-46,cs),
(232,-46,o),
(226,-46,o),
(221,-47,c),
(249,-13,l),
(372,-12,o),
(481,45,o),
(481,163,cs),
(481,225,o),
(436,264,o),
(335,295,cs),
(255,318,ls),
(218,330,o),
(203,343,o),
(203,361,cs),
(203,393,o),
(243,401,o),
(275,401,cs),
(320,401,o),
(364,389,o),
(377,347,c),
(505,391,l),
(474,476,o),
(381,510,o),
(285,510,cs),
(167,510,o),
(57,458,o),
(57,348,cs),
(57,284,o),
(104,238,o),
(188,212,cs),
(268,189,ls),
(316,174,o),
(334,160,o),
(334,142,cs),
(334,107,o),
(285,97,o),
(248,97,cs),
(196,97,o),
(140,117,o),
(128,162,c),
(0,119,l),
(29,41,o),
(112,2,o),
(195,-10,c),
(159,-53,ls),
(146,-70,o),
(151,-91,o),
(176,-86,cs),
(182,-85,o),
(191,-84,o),
(201,-84,cs),
(219,-84,o),
(232,-94,o),
(232,-108,cs),
(232,-127,o),
(215,-137,o),
(190,-137,cs),
(168,-137,o),
(140,-127,o),
(127,-118,c),
(102,-166,l),
(129,-178,o),
(167,-187,o),
(208,-187,cs)
);
}
);
width = 517;
}
);
metricLeft = s;
metricRight = s;
unicode = 351;
},
{
glyphname = germandbls;
kernLeft = germandbls;
kernRight = germandbls;
lastChange = "2024-11-01 12:02:53 +0000";
layers = (
{
layerId = m003;
shapes = (
{
closed = 1;
nodes = (
(224,-9,o),
(241,-11,o),
(257,-11,cs),
(407,-11,o),
(513,90,o),
(513,224,cs),
(513,310,o),
(455,382,o),
(365,409,c),
(450,430,o),
(498,481,o),
(498,552,cs),
(498,634,o),
(422,680,o),
(337,680,cs),
(222,680,o),
(158,602,o),
(136,500,cs),
(29,0,l),
(83,0,l),
(189,492,ls),
(212,598,o),
(273,632,o),
(338,632,cs),
(395,632,o),
(445,602,o),
(445,547,cs),
(445,481,o),
(373,435,o),
(271,435,c),
(261,386,l),
(263,386,ls),
(362,386,o),
(458,322,o),
(458,224,cs),
(458,122,o),
(389,37,o),
(264,37,cs),
(245,37,o),
(225,39,o),
(203,43,c),
(207,-7,l)
);
}
);
width = 560;
},
{
layerId = m004;
shapes = (
{
closed = 1;
nodes = (
(285,-6,o),
(319,-10,o),
(352,-10,cs),
(495,-10,o),
(613,68,o),
(613,224,cs),
(613,297,o),
(575,358,o),
(514,383,c),
(552,416,o),
(581,469,o),
(581,518,cs),
(581,638,o),
(467,680,o),
(348,680,cs),
(223,680,o),
(135,632,o),
(104,483,cs),
(2,0,l),
(167,0,l),
(264,459,ls),
(278,523,o),
(302,559,o),
(362,559,cs),
(406,559,o),
(444,543,o),
(444,506,cs),
(444,452,o),
(379,445,o),
(335,448,c),
(307,322,l),
(312,322,ls),
(394,322,o),
(446,279,o),
(446,222,cs),
(446,153,o),
(394,122,o),
(332,122,cs),
(301,122,o),
(268,129,o),
(238,144,c),
(251,2,l)
);
}
);
width = 642;
},
{
layerId = "685EC287-0A44-43F1-AA0E-B98846C13147";
name = "AHL Variable 06 FROM Regular Italic";
shapes = (
{
closed = 1;
nodes = (
(245,-9,o),
(266,-12,o),
(287,-12,cs),
(435,-12,o),
(544,84,o),
(544,224,cs),
(544,307,o),
(492,376,o),
(410,402,c),
(482,426,o),
(525,478,o),
(525,543,cs),
(525,635,o),
(438,680,o),
(344,680,cs),
(226,680,o),
(156,610,o),
(131,495,cs),
(26,0,l),
(110,0,l),
(213,483,ls),
(234,578,o),
(285,611,o),
(348,611,cs),
(402,611,o),
(449,586,o),
(449,536,cs),
(449,473,o),
(379,439,o),
(292,439,c),
(278,367,l),
(280,367,ls),
(375,367,o),
(459,310,o),
(459,223,cs),
(459,130,o),
(394,63,o),
(287,63,cs),
(264,63,o),
(241,66,o),
(217,74,c),
(223,-6,l)
);
}
);
width = 587;
},
{
layerId = "FD063E2A-CA5A-4098-9599-3D7AAD1E2DEB";
name = "AHL Variable 06 FROM Bold Italic";
shapes = (
{
closed = 1;
nodes = (
(273,-8,o),
(305,-12,o),
(336,-12,cs),
(480,-12,o),
(596,71,o),
(596,224,cs),
(596,299,o),
(556,361,o),
(491,386,c),
(535,418,o),
(566,470,o),
(566,522,cs),
(566,638,o),
(457,680,o),
(343,680,cs),
(220,680,o),
(136,628,o),
(106,485,cs),
(3,0,l),
(155,0,l),
(254,463,ls),
(269,533,o),
(297,569,o),
(360,569,cs),
(401,569,o),
(439,550,o),
(439,511,cs),
(439,455,o),
(373,445,o),
(322,447,c),
(297,329,l),
(301,329,ls),
(389,329,o),
(442,284,o),
(442,221,cs),
(442,151,o),
(389,114,o),
(319,114,cs),
(289,114,o),
(258,120,o),
(229,134,c),
(241,-1,l)
);
}
);
width = 628;
}
);
metricLeft = B;
metricRight = B;
unicode = 223;
},
{
glyphname = t;
kernLeft = t;
kernRight = t;
lastChange = "2024-11-01 12:02:53 +0000";
layers = (
{
anchors = (
{
name = bottom;
pos = (132,0);
},
{
name = center;
pos = (150,248);
},
{
name = top;
pos = (202,496);
},
{
name = topright;
pos = (251,542);
}
);
layerId = m003;
shapes = (
{
closed = 1;
nodes = (
(206,0,l),
(216,48,l),
(187,48,ls),
(122,48,o),
(120,67,o),
(132,122,cs),
(202,452,l),
(303,452,l),
(312,496,l),
(211,496,l),
(238,620,l),
(184,620,l),
(157,496,l),
(72,496,l),
(63,452,l),
(148,452,l),
(79,127,ls),
(59,31,o),
(78,0,o),
(186,0,cs)
);
}
);
width = 294;
},
{
anchors = (
{
name = bottom;
pos = (184,0);
},
{
name = center;
pos = (197,248);
},
{
name = top;
pos = (250,496);
},
{
name = topright;
pos = (345,554);
}
);
layerId = m004;
shapes = (
{
closed = 1;
nodes = (
(315,0,l),
(343,133,l),
(314,133,ls),
(255,133,o),
(238,149,o),
(248,194,cs),
(286,371,l),
(394,371,l),
(421,496,l),
(313,496,l),
(339,620,l),
(174,620,l),
(148,496,l),
(66,496,l),
(39,371,l),
(121,371,l),
(76,160,ls),
(50,40,o),
(88,0,o),
(265,0,cs)
);
}
);
width = 398;
},
{
anchors = (
{
name = bottom;
pos = (147,0);
},
{
name = center;
pos = (164,248);
},
{
name = top;
pos = (216,496);
},
{
name = topright;
pos = (278,545);
}
);
layerId = "685EC287-0A44-43F1-AA0E-B98846C13147";
name = "AHL Variable 06 FROM Regular Italic";
shapes = (
{
closed = 1;
nodes = (
(238,0,l),
(254,74,l),
(224,74,ls),
(160,74,o),
(154,92,o),
(165,144,cs),
(226,429,l),
(329,429,l),
(344,496,l),
(241,496,l),
(267,620,l),
(183,620,l),
(157,496,l),
(73,496,l),
(58,429,l),
(142,429,l),
(79,136,ls),
(58,33,o),
(82,0,o),
(209,0,cs)
);
}
);
width = 326;
},
{
anchors = (
{
name = bottom;
pos = (174,0);
},
{
name = center;
pos = (187,248);
},
{
name = top;
pos = (240,496);
},
{
name = topright;
pos = (330,553);
}
);
layerId = "FD063E2A-CA5A-4098-9599-3D7AAD1E2DEB";
name = "AHL Variable 06 FROM Bold Italic";
shapes = (
{
closed = 1;
nodes = (
(299,0,l),
(325,124,l),
(295,124,ls),
(235,124,o),
(220,140,o),
(230,186,cs),
(272,380,l),
(380,380,l),
(405,496,l),
(297,496,l),
(323,620,l),
(171,620,l),
(145,496,l),
(63,496,l),
(38,380,l),
(120,380,l),
(72,156,ls),
(47,39,o),
(83,0,o),
(252,0,cs)
);
}
);
width = 387;
}
);
unicode = 116;
},
{
glyphname = tcedilla;
kernLeft = t;
kernRight = t;
lastChange = "2024-11-01 12:02:53 +0000";
layers = (
{
anchors = (
{
name = center;
pos = (150,248);
},
{
name = top;
pos = (202,496);
},
{
name = topright;
pos = (251,542);
}
);
layerId = m003;
shapes = (
{
closed = 1;
nodes = (
(149,-177,o),
(189,-144,o),
(189,-97,cs),
(189,-68,o),
(165,-44,o),
(129,-44,cs),
(122,-44,o),
(115,-45,o),
(108,-47,c),
(150,1,l),
(163,0,o),
(174,0,o),
(186,0,cs),
(206,0,l),
(216,48,l),
(187,48,ls),
(122,48,o),
(120,67,o),
(132,122,cs),
(202,452,l),
(303,452,l),
(312,496,l),
(211,496,l),
(238,620,l),
(184,620,l),
(157,496,l),
(72,496,l),
(63,452,l),
(148,452,l),
(79,127,ls),
(64,57,o),
(71,22,o),
(117,8,c),
(68,-52,ls),
(57,-65,o),
(58,-79,o),
(76,-79,cs),
(83,-79,o),
(95,-77,o),
(103,-77,cs),
(127,-77,o),
(145,-85,o),
(145,-106,cs),
(145,-127,o),
(125,-145,o),
(95,-145,cs),
(79,-145,o),
(59,-141,o),
(32,-123,c),
(14,-147,l),
(41,-167,o),
(67,-177,o),
(97,-177,cs)
);
}
);
width = 294;
},
{
anchors = (
{
name = center;
pos = (197,248);
},
{
name = top;
pos = (250,496);
},
{
name = topright;
pos = (345,554);
}
);
layerId = m004;
shapes = (
{
closed = 1;
nodes = (
(225,-188,o),
(282,-166,o),
(282,-108,cs),
(282,-67,o),
(237,-46,o),
(189,-46,cs),
(185,-46,o),
(179,-46,o),
(174,-47,c),
(214,1,l),
(238,0,o),
(248,0,o),
(265,0,cs),
(315,0,l),
(343,133,l),
(314,133,ls),
(255,133,o),
(238,149,o),
(248,194,cs),
(286,371,l),
(394,371,l),
(421,496,l),
(313,496,l),
(339,620,l),
(174,620,l),
(148,496,l),
(66,496,l),
(39,371,l),
(121,371,l),
(76,160,ls),
(56,69,o),
(73,24,o),
(160,8,c),
(110,-53,ls),
(96,-70,o),
(102,-92,o),
(128,-87,cs),
(134,-86,o),
(142,-85,o),
(153,-85,cs),
(170,-85,o),
(182,-95,o),
(182,-108,cs),
(182,-127,o),
(165,-136,o),
(146,-136,cs),
(119,-136,o),
(89,-125,o),
(78,-118,c),
(52,-168,l),
(79,-179,o),
(119,-188,o),
(161,-188,cs)
);
}
);
width = 398;
},
{
anchors = (
{
name = center;
pos = (164,248);
},
{
name = top;
pos = (216,496);
},
{
name = topright;
pos = (278,545);
}
);
layerId = "685EC287-0A44-43F1-AA0E-B98846C13147";
shapes = (
{
closed = 1;
nodes = (
(171,-183,o),
(217,-151,o),
(217,-100,cs),
(217,-60,o),
(188,-42,o),
(149,-42,cs),
(145,-42,o),
(138,-42,o),
(130,-43,c),
(168,1,l),
(180,0,o),
(198,0,o),
(209,0,cs),
(238,0,l),
(254,74,l),
(224,74,ls),
(160,74,o),
(154,92,o),
(165,144,cs),
(226,429,l),
(329,429,l),
(344,496,l),
(241,496,l),
(267,620,l),
(183,620,l),
(157,496,l),
(73,496,l),
(58,429,l),
(142,429,l),
(79,136,ls),
(64,62,o),
(72,24,o),
(124,9,c),
(74,-50,l),
(63,-61,o),
(67,-83,o),
(91,-78,cs),
(97,-77,o),
(106,-76,o),
(112,-76,cs),
(136,-76,o),
(157,-86,o),
(157,-105,cs),
(157,-128,o),
(133,-142,o),
(107,-142,cs),
(82,-142,o),
(65,-133,o),
(45,-121,c),
(24,-154,l),
(51,-170,o),
(79,-183,o),
(118,-183,cs)
);
}
);
width = 326;
},
{
anchors = (
{
name = center;
pos = (187,248);
},
{
name = top;
pos = (240,496);
},
{
name = topright;
pos = (330,553);
}
);
layerId = "FD063E2A-CA5A-4098-9599-3D7AAD1E2DEB";
shapes = (
{
closed = 1;
nodes = (
(213,-187,o),
(268,-164,o),
(268,-107,cs),
(268,-69,o),
(230,-46,o),
(178,-46,cs),
(174,-46,o),
(168,-46,o),
(163,-47,c),
(203,1,l),
(216,0,o),
(230,0,o),
(252,0,cs),
(299,0,l),
(325,124,l),
(295,124,ls),
(235,124,o),
(220,140,o),
(230,186,cs),
(272,380,l),
(380,380,l),
(405,496,l),
(297,496,l),
(323,620,l),
(171,620,l),
(145,496,l),
(63,496,l),
(38,380,l),
(120,380,l),
(72,156,ls),
(53,68,o),
(69,24,o),
(151,8,c),
(101,-53,ls),
(88,-70,o),
(93,-91,o),
(118,-86,cs),
(124,-85,o),
(133,-84,o),
(143,-84,cs),
(161,-84,o),
(174,-94,o),
(174,-108,cs),
(174,-127,o),
(157,-137,o),
(132,-137,cs),
(110,-137,o),
(82,-127,o),
(69,-118,c),
(44,-166,l),
(71,-178,o),
(109,-187,o),
(150,-187,cs)
);
}
);
width = 387;
}
);
unicode = 355;
},
{
glyphname = u;
kernLeft = u;
kernRight = u;
lastChange = "2024-11-01 12:02:53 +0000";
layers = (
{
anchors = (
{
name = bottom;
pos = (199,0);
},
{
name = ogonek;
pos = (399,10);
},
{
name = top;
pos = (305,496);
},
{
name = topright;
pos = (543,496);
}
);
layerId = m003;
shapes = (
{
closed = 1;
nodes = (
(268,-12,o),
(328,29,o),
(363,79,c),
(357,0,l),
(397,0,l),
(503,496,l),
(449,496,l),
(391,223,ls),
(367,109,o),
(298,36,o),
(209,36,cs),
(132,36,o),
(97,95,o),
(118,195,cs),
(182,496,l),
(128,496,l),
(62,185,ls),
(33,49,o),
(108,-12,o),
(193,-12,cs)
);
}
);
width = 525;
},
{
anchors = (
{
name = bottom;
pos = (238,0);
},
{
name = ogonek;
pos = (480,10);
},
{
name = top;
pos = (343,496);
},
{
name = topright;
pos = (610,496);
}
);
layerId = m004;
shapes = (
{
closed = 1;
nodes = (
(244,-12,o),
(297,23,o),
(326,63,c),
(331,0,l),
(478,0,l),
(583,496,l),
(418,496,l),
(366,247,ls),
(348,160,o),
(319,114,o),
(260,114,cs),
(205,114,o),
(195,161,o),
(208,223,cs),
(266,496,l),
(101,496,l),
(38,199,ls),
(9,65,o),
(58,-12,o),
(172,-12,cs)
);
}
);
width = 580;
},
{
anchors = (
{
name = bottom;
pos = (207,0);
},
{
name = ogonek;
pos = (418,10);
},
{
name = top;
pos = (313,496);
},
{
name = topright;
pos = (558,496);
}
);
layerId = "685EC287-0A44-43F1-AA0E-B98846C13147";
name = "AHL Variable 06 FROM Regular Italic";
shapes = (
{
closed = 1;
nodes = (
(259,-12,o),
(317,27,o),
(350,75,c),
(347,0,l),
(416,0,l),
(521,496,l),
(437,496,l),
(380,229,ls),
(358,127,o),
(301,62,o),
(223,62,cs),
(154,62,o),
(126,113,o),
(144,203,cs),
(207,496,l),
(123,496,l),
(58,189,ls),
(29,53,o),
(97,-12,o),
(186,-12,cs)
);
}
);
width = 541;
},
{
anchors = (
{
name = bottom;
pos = (233,0);
},
{
name = ogonek;
pos = (469,10);
},
{
name = top;
pos = (339,496);
},
{
name = topright;
pos = (601,496);
}
);
layerId = "FD063E2A-CA5A-4098-9599-3D7AAD1E2DEB";
name = "AHL Variable 06 FROM Bold Italic";
shapes = (
{
closed = 1;
nodes = (
(247,-12,o),
(300,24,o),
(329,65,c),
(336,0,l),
(467,0,l),
(572,496,l),
(420,496,l),
(367,244,ls),
(348,154,o),
(316,106,o),
(254,106,cs),
(196,106,o),
(184,153,o),
(198,220,cs),
(256,496,l),
(104,496,l),
(41,197,ls),
(12,63,o),
(64,-12,o),
(174,-12,cs)
);
}
);
width = 573;
}
);
metricLeft = "=|n";
metricRight = "=|n";
unicode = 117;
},
{
glyphname = uogonek;
kernLeft = u;
kernRight = u;
lastChange = "2024-11-01 12:02:53 +0000";
layers = (
{
anchors = (
{
name = bottom;
pos = (199,0);
},
{
name = top;
pos = (305,496);
},
{
name = topright;
pos = (543,496);
}
);
layerId = m003;
shapes = (
{
closed = 1;
nodes = (
(268,-12,o),
(328,29,o),
(363,79,c),
(358,14,l),
(302,-11,o),
(246,-49,o),
(246,-105,cs),
(246,-144,o),
(279,-168,o),
(324,-168,cs),
(336,-168,o),
(348,-167,o),
(362,-164,c),
(371,-124,l),
(364,-126,o),
(352,-127,o),
(346,-127,cs),
(320,-127,o),
(293,-121,o),
(293,-93,cs),
(293,-49,o),
(351,-14,o),
(397,0,c),
(503,496,l),
(449,496,l),
(391,223,ls),
(367,109,o),
(298,36,o),
(209,36,cs),
(132,36,o),
(97,95,o),
(118,195,cs),
(182,496,l),
(128,496,l),
(62,185,ls),
(33,49,o),
(108,-12,o),
(193,-12,cs)
);
}
);
width = 525;
},
{
anchors = (
{
name = bottom;
pos = (238,0);
},
{
name = top;
pos = (343,496);
},
{
name = topright;
pos = (610,496);
}
);
layerId = m004;
shapes = (
{
closed = 1;
nodes = (
(244,-12,o),
(297,23,o),
(326,63,c),
(330,13,l),
(283,-6,o),
(225,-40,o),
(225,-89,cs),
(225,-152,o),
(319,-176,o),
(399,-176,cs),
(413,-176,o),
(429,-175,o),
(441,-172,c),
(458,-91,l),
(447,-93,o),
(430,-95,o),
(412,-95,cs),
(388,-95,o),
(367,-87,o),
(367,-67,cs),
(367,-38,o),
(414,-9,o),
(478,0,c),
(583,496,l),
(418,496,l),
(366,247,ls),
(348,160,o),
(319,114,o),
(260,114,cs),
(205,114,o),
(195,161,o),
(208,223,cs),
(266,496,l),
(101,496,l),
(38,199,ls),
(9,65,o),
(58,-12,o),
(172,-12,cs)
);
}
);
width = 580;
},
{
anchors = (
{
name = bottom;
pos = (207,0);
},
{
name = top;
pos = (313,496);
},
{
name = topright;
pos = (558,496);
}
);
layerId = "685EC287-0A44-43F1-AA0E-B98846C13147";
shapes = (
{
closed = 1;
nodes = (
(259,-12,o),
(317,27,o),
(350,75,c),
(348,13,l),
(286,-6,o),
(239,-44,o),
(239,-100,cs),
(239,-148,o),
(282,-173,o),
(331,-173,cs),
(346,-173,o),
(364,-171,o),
(380,-167,c),
(393,-110,l),
(382,-113,o),
(372,-115,o),
(361,-115,cs),
(339,-115,o),
(312,-107,o),
(312,-79,cs),
(312,-38,o),
(374,-14,o),
(416,0,c),
(521,496,l),
(437,496,l),
(380,229,ls),
(358,127,o),
(301,62,o),
(223,62,cs),
(154,62,o),
(126,113,o),
(144,203,cs),
(207,496,l),
(123,496,l),
(58,189,ls),
(29,53,o),
(97,-12,o),
(186,-12,cs)
);
}
);
width = 541;
},
{
anchors = (
{
name = bottom;
pos = (233,0);
},
{
name = top;
pos = (339,496);
},
{
name = topright;
pos = (601,496);
}
);
layerId = "FD063E2A-CA5A-4098-9599-3D7AAD1E2DEB";
shapes = (
{
closed = 1;
nodes = (
(247,-12,o),
(300,24,o),
(329,65,c),
(334,14,l),
(286,-5,o),
(225,-39,o),
(225,-91,cs),
(225,-151,o),
(312,-174,o),
(388,-174,cs),
(405,-174,o),
(421,-173,o),
(430,-172,c),
(446,-95,l),
(436,-97,o),
(419,-98,o),
(402,-98,cs),
(378,-98,o),
(356,-89,o),
(356,-67,cs),
(356,-39,o),
(405,-9,o),
(467,0,c),
(572,496,l),
(420,496,l),
(367,244,ls),
(348,154,o),
(316,106,o),
(254,106,cs),
(196,106,o),
(184,153,o),
(198,220,cs),
(256,496,l),
(104,496,l),
(41,197,ls),
(12,63,o),
(64,-12,o),
(174,-12,cs)
);
}
);
width = 573;
}
);
metricLeft = u;
metricRight = u;
unicode = 371;
},
{
glyphname = v;
kernLeft = v;
kernRight = v;
lastChange = "2024-11-01 12:02:53 +0000";
layers = (
{
anchors = (
{
name = bottom;
pos = (156,0);
},
{
name = top;
pos = (262,496);
}
);
layerId = m003;
shapes = (
{
closed = 1;
nodes = (
(176,0,l),
(459,496,l),
(400,496,l),
(172,85,l),
(117,496,l),
(63,496,l),
(134,0,l)
);
}
);
width = 416;
},
{
anchors = (
{
name = bottom;
pos = (228,0);
},
{
name = top;
pos = (334,496);
}
);
layerId = m004;
shapes = (
{
closed = 1;
nodes = (
(321,0,l),
(605,496,l),
(432,496,l),
(260,167,l),
(228,496,l),
(63,496,l),
(134,0,l)
);
}
);
width = 562;
},
{
anchors = (
{
name = bottom;
pos = (177,0);
},
{
name = top;
pos = (283,496);
}
);
layerId = "685EC287-0A44-43F1-AA0E-B98846C13147";
name = "AHL Variable 06 FROM Regular Italic";
shapes = (
{
closed = 1;
nodes = (
(218,0,l),
(504,496,l),
(414,496,l),
(198,107,l),
(147,496,l),
(63,496,l),
(136,0,l)
);
}
);
width = 461;
},
{
anchors = (
{
name = bottom;
pos = (219,0);
},
{
name = top;
pos = (325,496);
}
);
layerId = "FD063E2A-CA5A-4098-9599-3D7AAD1E2DEB";
name = "AHL Variable 06 FROM Bold Italic";
shapes = (
{
closed = 1;
nodes = (
(304,0,l),
(588,496,l),
(428,496,l),
(250,157,l),
(215,496,l),
(63,496,l),
(134,0,l)
);
}
);
width = 545;
}
);
metricRight = "=|";
unicode = 118;
},
